ChangaOne-Regular.otf.ufo
<glyph name="exclam" format="1">
  <advance width="330"/>
  <unicode hex="0021"/>
  <outline>
    <contour>
      <point x="250" y="170" type="line"/>
      <point x="280" y="598" type="line"/>
      <point x="280" y="613" smooth="yes"/>
      <point x="273" y="625" smooth="yes"/>
      <point x="243" y="625" type="curve" smooth="yes"/>
      <point x="87" y="625" type="line" smooth="yes"/>
      <point x="57" y="625"/>
      <point x="50" y="613"/>
      <point x="50" y="598" type="curve"/>
      <point x="80" y="170" type="line"/>
    </contour>
    <contour>
      <point x="53" y="70" type="curve" smooth="yes" name="hr01"/>
      <point x="53" y="15" smooth="yes"/>
      <point x="73" y="-7" smooth="yes"/>
      <point x="165" y="-7" type="curve" smooth="yes"/>
      <point x="256" y="-7" smooth="yes"/>
      <point x="276" y="15" smooth="yes"/>
      <point x="276" y="70" type="curve" smooth="yes"/>
      <point x="276" y="125" smooth="yes"/>
      <point x="256" y="149" smooth="yes"/>
      <point x="165" y="149" type="curve" smooth="yes"/>
      <point x="73" y="149" smooth="yes"/>
      <point x="53" y="125" smooth="yes"/>
    </contour>
  </outline>
</glyph>
<glyph name="quotedbl" format="1">
  <advance width="500"/>
  <unicode hex="0022"/>
  <outline>
    <contour>
      <point x="175" y="300" type="line" name="hr00"/>
      <point x="220" y="535" smooth="yes"/>
      <point x="225" y="553" smooth="yes"/>
      <point x="225" y="565" type="curve" smooth="yes"/>
      <point x="225" y="623" type="line" smooth="yes"/>
      <point x="225" y="638" smooth="yes"/>
      <point x="217" y="650" smooth="yes"/>
      <point x="188" y="650" type="curve" smooth="yes"/>
      <point x="62" y="650" type="line" smooth="yes"/>
      <point x="33" y="650" smooth="yes"/>
      <point x="25" y="638" smooth="yes"/>
      <point x="25" y="623" type="curve" smooth="yes"/>
      <point x="25" y="565" type="line"/>
      <point x="25" y="553"/>
      <point x="30" y="535"/>
      <point x="75" y="300" type="curve"/>
    </contour>
    <contour>
      <point x="425" y="300" type="line"/>
      <point x="470" y="535" smooth="yes"/>
      <point x="475" y="553" smooth="yes"/>
      <point x="475" y="565" type="curve" smooth="yes"/>
      <point x="475" y="623" type="line" smooth="yes"/>
      <point x="475" y="638" smooth="yes"/>
      <point x="467" y="650" smooth="yes"/>
      <point x="438" y="650" type="curve" smooth="yes"/>
      <point x="312" y="650" type="line" smooth="yes"/>
      <point x="283" y="650" smooth="yes"/>
      <point x="275" y="638" smooth="yes"/>
      <point x="275" y="623" type="curve" smooth="yes"/>
      <point x="275" y="565" type="line" smooth="yes"/>
      <point x="275" y="553"/>
      <point x="280" y="535"/>
      <point x="325" y="300" type="curve"/>
    </contour>
  </outline>
</glyph>
<glyph name="dollar" format="1">
  <advance width="551"/>
  <unicode hex="0024"/>
  <outline>
    <contour>
      <point x="225" y="718" type="line" name="hr00"/>
      <point x="222" y="635" type="line"/>
      <point x="123" y="622" smooth="yes"/>
      <point x="52" y="571" smooth="yes"/>
      <point x="52" y="418" type="curve" smooth="yes"/>
      <point x="52" y="315" smooth="yes"/>
      <point x="82" y="232" smooth="yes"/>
      <point x="247" y="215" type="curve" smooth="yes"/>
      <point x="309" y="208" type="line"/>
      <point x="309" y="166" type="line"/>
      <point x="284" y="163" smooth="yes"/>
      <point x="261" y="162" smooth="yes"/>
      <point x="238" y="162" type="curve" smooth="yes"/>
      <point x="181" y="162"/>
      <point x="117" y="170"/>
      <point x="64" y="184" type="curve"/>
      <point x="35" y="25" type="line"/>
      <point x="85" y="12"/>
      <point x="141" y="5"/>
      <point x="196" y="1" type="curve"/>
      <point x="192" y="-100" type="line"/>
      <point x="321" y="-100" type="line"/>
      <point x="324" y="1" type="line"/>
      <point x="427" y="8" smooth="yes"/>
      <point x="516" y="44" smooth="yes"/>
      <point x="516" y="219" type="curve" smooth="yes"/>
      <point x="516" y="321" smooth="yes"/>
      <point x="477" y="389" smooth="yes"/>
      <point x="314" y="407" type="curve" smooth="yes"/>
      <point x="251" y="414" type="line"/>
      <point x="252" y="453" smooth="yes"/>
      <point x="261" y="467" smooth="yes"/>
      <point x="310" y="467" type="curve" smooth="yes"/>
      <point x="460" y="467" type="line"/>
      <point x="489" y="622" type="line"/>
      <point x="450" y="629"/>
      <point x="395" y="635"/>
      <point x="349" y="638" type="curve"/>
      <point x="352" y="718" type="line"/>
    </contour>
  </outline>
</glyph>
<glyph name="percent" format="1">
  <advance width="862"/>
  <unicode hex="0025"/>
  <outline>
    <contour>
      <point x="659" y="625" type="line"/>
      <point x="594" y="625" type="line" smooth="yes"/>
      <point x="562" y="625" smooth="yes"/>
      <point x="558" y="623" smooth="yes"/>
      <point x="545" y="600" type="curve" smooth="yes"/>
      <point x="200" y="0" type="line"/>
      <point x="265" y="0" type="line" smooth="yes"/>
      <point x="297" y="0" smooth="yes"/>
      <point x="301" y="2" smooth="yes"/>
      <point x="314" y="25" type="curve" smooth="yes"/>
    </contour>
    <contour>
      <point x="472" y="170" type="curve" smooth="yes"/>
      <point x="472" y="48" smooth="yes"/>
      <point x="524" y="-15" smooth="yes"/>
      <point x="657" y="-15" type="curve" smooth="yes" name="hr01"/>
      <point x="790" y="-15" smooth="yes"/>
      <point x="842" y="48" smooth="yes"/>
      <point x="842" y="170" type="curve" smooth="yes"/>
      <point x="842" y="292" smooth="yes"/>
      <point x="790" y="355" smooth="yes"/>
      <point x="657" y="355" type="curve" smooth="yes"/>
      <point x="524" y="355" smooth="yes"/>
      <point x="472" y="292" smooth="yes"/>
    </contour>
    <contour>
      <point x="630" y="209" type="line" smooth="yes"/>
      <point x="630" y="236" smooth="yes"/>
      <point x="634" y="238" smooth="yes"/>
      <point x="662" y="238" type="curve" smooth="yes"/>
      <point x="684" y="238" type="line"/>
      <point x="684" y="131" type="line" smooth="yes"/>
      <point x="684" y="104" smooth="yes"/>
      <point x="680" y="102" smooth="yes"/>
      <point x="652" y="102" type="curve" smooth="yes"/>
      <point x="630" y="102" type="line"/>
    </contour>
    <contour>
      <point x="20" y="455" type="curve" smooth="yes"/>
      <point x="20" y="333" smooth="yes"/>
      <point x="72" y="270" smooth="yes"/>
      <point x="205" y="270" type="curve" smooth="yes"/>
      <point x="338" y="270" smooth="yes"/>
      <point x="390" y="333" smooth="yes"/>
      <point x="390" y="455" type="curve" smooth="yes"/>
      <point x="390" y="577" smooth="yes"/>
      <point x="338" y="640" smooth="yes"/>
      <point x="205" y="640" type="curve" smooth="yes"/>
      <point x="72" y="640" smooth="yes"/>
      <point x="20" y="577" smooth="yes"/>
    </contour>
    <contour>
      <point x="178" y="494" type="line" smooth="yes"/>
      <point x="178" y="521" smooth="yes"/>
      <point x="182" y="523" smooth="yes"/>
      <point x="210" y="523" type="curve" smooth="yes"/>
      <point x="232" y="523" type="line"/>
      <point x="232" y="416" type="line" smooth="yes"/>
      <point x="232" y="389" smooth="yes"/>
      <point x="228" y="387" smooth="yes"/>
      <point x="200" y="387" type="curve" smooth="yes"/>
      <point x="178" y="387" type="line"/>
    </contour>
  </outline>
</glyph>
<glyph name="ampersand" format="1">
  <advance width="664"/>
  <unicode hex="0026"/>
  <outline>
    <contour>
      <point x="439" y="-115" type="line" name="hr00"/>
      <point x="562" y="-100" type="line"/>
      <point x="562" y="242" type="line"/>
      <point x="632" y="242" type="line"/>
      <point x="654" y="382" type="line"/>
      <point x="287" y="382" type="line"/>
      <point x="287" y="415" type="line" smooth="yes"/>
      <point x="287" y="450" smooth="yes"/>
      <point x="307" y="457" smooth="yes"/>
      <point x="348" y="457" type="curve" smooth="yes"/>
      <point x="437" y="457" type="line"/>
      <point x="466" y="604" type="line"/>
      <point x="409" y="616" smooth="yes"/>
      <point x="350" y="625" smooth="yes"/>
      <point x="269" y="625" type="curve" smooth="yes"/>
      <point x="163" y="625"/>
      <point x="84" y="587"/>
      <point x="84" y="396" type="curve"/>
      <point x="169" y="367" type="line"/>
      <point x="169" y="363" type="line"/>
      <point x="66" y="348" smooth="yes"/>
      <point x="45" y="262" smooth="yes"/>
      <point x="45" y="180" type="curve" smooth="yes"/>
      <point x="45" y="31" smooth="yes"/>
      <point x="122" y="-15" smooth="yes"/>
      <point x="220" y="-15" type="curve" smooth="yes"/>
      <point x="281" y="-15"/>
      <point x="350" y="2"/>
      <point x="414" y="21" type="curve"/>
    </contour>
    <contour>
      <point x="316" y="115" type="curve" smooth="yes"/>
      <point x="272" y="115" smooth="yes"/>
      <point x="245" y="136" smooth="yes"/>
      <point x="245" y="181" type="curve" smooth="yes"/>
      <point x="245" y="242" type="line"/>
      <point x="374" y="242" type="line"/>
      <point x="396" y="121" type="line"/>
      <point x="368" y="116" smooth="yes"/>
      <point x="340" y="115" smooth="yes"/>
    </contour>
  </outline>
</glyph>
<glyph name="quotesingle" format="1">
  <advance width="250"/>
  <unicode hex="0027"/>
  <outline>
    <contour>
      <point x="175" y="300" type="line" name="hr00"/>
      <point x="220" y="535" smooth="yes"/>
      <point x="225" y="553" smooth="yes"/>
      <point x="225" y="565" type="curve" smooth="yes"/>
      <point x="225" y="623" type="line" smooth="yes"/>
      <point x="225" y="638" smooth="yes"/>
      <point x="217" y="650" smooth="yes"/>
      <point x="188" y="650" type="curve" smooth="yes"/>
      <point x="62" y="650" type="line" smooth="yes"/>
      <point x="33" y="650" smooth="yes"/>
      <point x="25" y="638" smooth="yes"/>
      <point x="25" y="623" type="curve" smooth="yes"/>
      <point x="25" y="565" type="line"/>
      <point x="25" y="553"/>
      <point x="30" y="535"/>
      <point x="75" y="300" type="curve"/>
    </contour>
  </outline>
</glyph>
<glyph name="parenleft" format="1">
  <advance width="314"/>
  <unicode hex="0028"/>
  <outline>
    <contour>
      <point x="274" y="620" type="line" name="hr00"/>
      <point x="40" y="590" smooth="yes"/>
      <point x="20" y="358" smooth="yes"/>
      <point x="20" y="242" type="curve" smooth="yes"/>
      <point x="20" y="126"/>
      <point x="40" y="-106"/>
      <point x="274" y="-136" type="curve"/>
      <point x="284" y="11" type="line"/>
      <point x="249" y="26" smooth="yes"/>
      <point x="200" y="47" smooth="yes"/>
      <point x="200" y="242" type="curve" smooth="yes"/>
      <point x="200" y="431"/>
      <point x="249" y="458"/>
      <point x="284" y="473" type="curve"/>
    </contour>
  </outline>
</glyph>
<glyph name="parenright" format="1">
  <advance width="314"/>
  <unicode hex="0029"/>
  <outline>
    <contour>
      <point x="30" y="463" type="line" name="hr00"/>
      <point x="65" y="448" smooth="yes"/>
      <point x="114" y="421" smooth="yes"/>
      <point x="114" y="232" type="curve" smooth="yes"/>
      <point x="114" y="37"/>
      <point x="65" y="16"/>
      <point x="30" y="1" type="curve"/>
      <point x="40" y="-146" type="line"/>
      <point x="274" y="-116" smooth="yes"/>
      <point x="294" y="116" smooth="yes"/>
      <point x="294" y="232" type="curve" smooth="yes"/>
      <point x="294" y="348"/>
      <point x="274" y="580"/>
      <point x="40" y="610" type="curve"/>
    </contour>
  </outline>
</glyph>
<glyph name="asterisk" format="1">
  <advance width="536"/>
  <unicode hex="002A"/>
  <outline>
    <contour>
      <point x="341" y="580" type="line"/>
      <point x="341" y="638" type="line" smooth="yes"/>
      <point x="341" y="653" smooth="yes"/>
      <point x="333" y="665" smooth="yes"/>
      <point x="304" y="665" type="curve" smooth="yes"/>
      <point x="228" y="665" type="line" smooth="yes"/>
      <point x="199" y="665" smooth="yes"/>
      <point x="191" y="653" smooth="yes"/>
      <point x="191" y="638" type="curve" smooth="yes"/>
      <point x="191" y="580" type="line"/>
      <point x="220" y="492" type="line"/>
      <point x="146" y="547" type="line"/>
      <point x="90" y="565" type="line" smooth="yes"/>
      <point x="87" y="566" smooth="yes"/>
      <point x="83" y="567" smooth="yes"/>
      <point x="80" y="567" type="curve" smooth="yes"/>
      <point x="70" y="567" smooth="yes"/>
      <point x="60" y="559" smooth="yes"/>
      <point x="53" y="538" type="curve" smooth="yes"/>
      <point x="30" y="466" type="line" smooth="yes"/>
      <point x="27" y="458" smooth="yes"/>
      <point x="26" y="452" smooth="yes"/>
      <point x="26" y="446" type="curve" smooth="yes"/>
      <point x="26" y="432" smooth="yes"/>
      <point x="34" y="425" smooth="yes"/>
      <point x="44" y="422" type="curve" smooth="yes"/>
      <point x="99" y="404" type="line"/>
      <point x="190" y="404" type="line"/>
      <point x="117" y="351" type="line"/>
      <point x="82" y="304" type="line" smooth="yes"/>
      <point x="78" y="299" smooth="yes"/>
      <point x="76" y="294" smooth="yes"/>
      <point x="76" y="289" type="curve" smooth="yes"/>
      <point x="76" y="280" smooth="yes"/>
      <point x="82" y="271" smooth="yes"/>
      <point x="97" y="260" type="curve" smooth="yes"/>
      <point x="158" y="216" type="line" smooth="yes"/>
      <point x="169" y="208" smooth="yes"/>
      <point x="178" y="205" smooth="yes"/>
      <point x="185" y="205" type="curve" smooth="yes"/>
      <point x="193" y="205" smooth="yes"/>
      <point x="199" y="209" smooth="yes"/>
      <point x="204" y="216" type="curve" smooth="yes"/>
      <point x="238" y="262" type="line"/>
      <point x="264" y="345" type="line"/>
      <point x="286" y="263" type="line"/>
      <point x="328" y="215" type="line"/>
      <point x="333" y="208" smooth="yes"/>
      <point x="339" y="204" smooth="yes"/>
      <point x="347" y="204" type="curve" smooth="yes" name="hr01"/>
      <point x="355" y="204" smooth="yes"/>
      <point x="364" y="207" smooth="yes"/>
      <point x="375" y="216" type="curve" smooth="yes"/>
      <point x="435" y="260" type="line" smooth="yes"/>
      <point x="449" y="271" smooth="yes"/>
      <point x="455" y="280" smooth="yes"/>
      <point x="455" y="289" type="curve" smooth="yes"/>
      <point x="455" y="294" smooth="yes"/>
      <point x="452" y="299" smooth="yes"/>
      <point x="449" y="304" type="curve" smooth="yes"/>
      <point x="416" y="351" type="line"/>
      <point x="338" y="406" type="line"/>
      <point x="433" y="406" type="line"/>
      <point x="489" y="422" type="line" smooth="yes"/>
      <point x="499" y="425" smooth="yes"/>
      <point x="506" y="432" smooth="yes"/>
      <point x="506" y="446" type="curve" smooth="yes"/>
      <point x="506" y="451" smooth="yes"/>
      <point x="505" y="458" smooth="yes"/>
      <point x="502" y="467" type="curve" smooth="yes"/>
      <point x="479" y="538" type="line" smooth="yes"/>
      <point x="472" y="559" smooth="yes"/>
      <point x="462" y="566" smooth="yes"/>
      <point x="452" y="566" type="curve" smooth="yes"/>
      <point x="448" y="566" smooth="yes"/>
      <point x="445" y="565" smooth="yes"/>
      <point x="441" y="564" type="curve" smooth="yes"/>
      <point x="387" y="548" type="line"/>
      <point x="312" y="491" type="line"/>
    </contour>
  </outline>
</glyph>
<glyph name="plus" format="1">
  <advance width="600"/>
  <unicode hex="002B"/>
  <outline>
    <contour>
      <point x="72" y="240" type="line" name="hr00"/>
      <point x="227" y="240" type="line"/>
      <point x="227" y="84" type="line"/>
      <point x="371" y="84" type="line"/>
      <point x="371" y="240" type="line"/>
      <point x="527" y="240" type="line"/>
      <point x="527" y="384" type="line"/>
      <point x="371" y="384" type="line"/>
      <point x="371" y="539" type="line"/>
      <point x="227" y="539" type="line"/>
      <point x="227" y="384" type="line"/>
      <point x="72" y="384" type="line"/>
    </contour>
  </outline>
</glyph>
<glyph name="comma" format="1">
  <advance width="277"/>
  <unicode hex="002C"/>
  <outline>
    <contour>
      <point x="30" y="99" type="curve" smooth="yes" name="hr00"/>
      <point x="30" y="54"/>
      <point x="42" y="30"/>
      <point x="90" y="22" type="curve"/>
      <point x="57" y="-122" type="line"/>
      <point x="146" y="-151" type="line"/>
      <point x="214" y="-15" type="line" smooth="yes"/>
      <point x="228" y="13" smooth="yes"/>
      <point x="244" y="36" smooth="yes"/>
      <point x="247" y="87" type="curve" smooth="yes"/>
      <point x="247" y="99" type="line" smooth="yes"/>
      <point x="247" y="175" smooth="yes"/>
      <point x="227" y="206" smooth="yes"/>
      <point x="139" y="206" type="curve" smooth="yes"/>
      <point x="50" y="206" smooth="yes"/>
      <point x="30" y="175" smooth="yes"/>
    </contour>
  </outline>
</glyph>
<glyph name="hyphen" format="1">
  <advance width="350"/>
  <unicode hex="002D"/>
  <outline>
    <contour>
      <point x="25" y="200" type="line" name="hr00"/>
      <point x="256" y="200" type="line" smooth="yes"/>
      <point x="296" y="200" smooth="yes"/>
      <point x="325" y="203" smooth="yes"/>
      <point x="325" y="242" type="curve" smooth="yes"/>
      <point x="325" y="350" type="line"/>
      <point x="94" y="350" type="line" smooth="yes"/>
      <point x="54" y="350" smooth="yes"/>
      <point x="25" y="347" smooth="yes"/>
      <point x="25" y="308" type="curve" smooth="yes"/>
    </contour>
  </outline>
</glyph>
<glyph name="period" format="1">
  <advance width="267"/>
  <unicode hex="002E"/>
  <outline>
    <contour>
      <point x="30" y="99" type="curve" smooth="yes" name="hr00"/>
      <point x="30" y="23" smooth="yes"/>
      <point x="50" y="-6" smooth="yes"/>
      <point x="139" y="-6" type="curve" smooth="yes"/>
      <point x="227" y="-6" smooth="yes"/>
      <point x="247" y="23" smooth="yes"/>
      <point x="247" y="99" type="curve" smooth="yes"/>
      <point x="247" y="175" smooth="yes"/>
      <point x="227" y="206" smooth="yes"/>
      <point x="139" y="206" type="curve" smooth="yes"/>
      <point x="50" y="206" smooth="yes"/>
      <point x="30" y="175" smooth="yes"/>
    </contour>
  </outline>
</glyph>
<glyph name="zero" format="1">
  <advance width="600"/>
  <unicode hex="0030"/>
  <outline>
    <contour>
      <point x="33" y="312" type="curve" smooth="yes" name="hr00"/>
      <point x="33" y="96" smooth="yes"/>
      <point x="79" y="-15" smooth="yes"/>
      <point x="301" y="-15" type="curve" smooth="yes"/>
      <point x="523" y="-15" smooth="yes"/>
      <point x="568" y="96" smooth="yes"/>
      <point x="568" y="312" type="curve" smooth="yes"/>
      <point x="568" y="529" smooth="yes"/>
      <point x="523" y="640" smooth="yes"/>
      <point x="301" y="640" type="curve" smooth="yes"/>
      <point x="79" y="640" smooth="yes"/>
      <point x="33" y="529" smooth="yes"/>
    </contour>
    <contour>
      <point x="239" y="426" type="line" smooth="yes"/>
      <point x="239" y="475" smooth="yes"/>
      <point x="261" y="479" smooth="yes"/>
      <point x="315" y="479" type="curve" smooth="yes"/>
      <point x="362" y="479" type="line"/>
      <point x="362" y="199" type="line" smooth="yes"/>
      <point x="362" y="150" smooth="yes"/>
      <point x="335" y="146" smooth="yes"/>
      <point x="281" y="146" type="curve" smooth="yes"/>
      <point x="239" y="146" type="line"/>
    </contour>
  </outline>
</glyph>
<glyph name="one" format="1">
  <advance width="600"/>
  <unicode hex="0031"/>
  <outline>
    <contour>
      <point x="566" y="0" type="line" name="hr00"/>
      <point x="566" y="160" type="line"/>
      <point x="454" y="160" type="line"/>
      <point x="454" y="625" type="line"/>
      <point x="296" y="625" type="line"/>
      <point x="66" y="573" type="line"/>
      <point x="66" y="413" type="line"/>
      <point x="244" y="425" type="line"/>
      <point x="244" y="160" type="line"/>
      <point x="66" y="160" type="line"/>
      <point x="66" y="0" type="line"/>
    </contour>
  </outline>
</glyph>
<glyph name="two" format="1">
  <advance width="600"/>
  <unicode hex="0032"/>
  <outline>
    <contour>
      <point x="75" y="453" type="line" name="hr00"/>
      <point x="134" y="467" smooth="yes"/>
      <point x="197" y="475" smooth="yes"/>
      <point x="260" y="475" type="curve" smooth="yes"/>
      <point x="288" y="475"/>
      <point x="316" y="473"/>
      <point x="343" y="470" type="curve"/>
      <point x="343" y="416" type="line"/>
      <point x="158" y="328" smooth="yes"/>
      <point x="35" y="300" smooth="yes"/>
      <point x="35" y="125" type="curve" smooth="yes"/>
      <point x="35" y="0" type="line"/>
      <point x="548" y="0" type="line"/>
      <point x="548" y="160" type="line"/>
      <point x="266" y="160" type="line"/>
      <point x="266" y="188" type="line"/>
      <point x="502" y="268" smooth="yes"/>
      <point x="558" y="309" smooth="yes"/>
      <point x="558" y="439" type="curve" smooth="yes"/>
      <point x="558" y="623" smooth="yes"/>
      <point x="445" y="640" smooth="yes"/>
      <point x="300" y="640" type="curve" smooth="yes"/>
      <point x="217" y="640"/>
      <point x="125" y="625"/>
      <point x="49" y="602" type="curve"/>
    </contour>
  </outline>
</glyph>
<glyph name="three" format="1">
  <advance width="600"/>
  <unicode hex="0033"/>
  <outline>
    <contour>
      <point x="349" y="405" type="line"/>
      <point x="177" y="385" type="line"/>
      <point x="177" y="240" type="line"/>
      <point x="349" y="223" type="line"/>
      <point x="349" y="159" type="line"/>
      <point x="318" y="155" smooth="yes"/>
      <point x="287" y="153" smooth="yes"/>
      <point x="256" y="153" type="curve" smooth="yes"/>
      <point x="191" y="153"/>
      <point x="137" y="161"/>
      <point x="75" y="176" type="curve"/>
      <point x="47" y="11" type="line"/>
      <point x="124" y="-7" smooth="yes"/>
      <point x="195" y="-15" smooth="yes"/>
      <point x="278" y="-15" type="curve" smooth="yes"/>
      <point x="423" y="-15" smooth="yes"/>
      <point x="564" y="0" smooth="yes"/>
      <point x="564" y="183" type="curve" smooth="yes" name="hr01"/>
      <point x="564" y="251"/>
      <point x="535" y="303"/>
      <point x="465" y="332" type="curve"/>
      <point x="465" y="337" type="line"/>
      <point x="518" y="365" smooth="yes"/>
      <point x="548" y="411" smooth="yes"/>
      <point x="548" y="481" type="curve" smooth="yes" name="hr02"/>
      <point x="548" y="624" smooth="yes"/>
      <point x="440" y="640" smooth="yes"/>
      <point x="295" y="640" type="curve" smooth="yes"/>
      <point x="212" y="640"/>
      <point x="136" y="626"/>
      <point x="59" y="602" type="curve"/>
      <point x="85" y="454" type="line"/>
      <point x="147" y="467" smooth="yes"/>
      <point x="189" y="475" smooth="yes"/>
      <point x="262" y="475" type="curve" smooth="yes"/>
      <point x="286" y="475"/>
      <point x="325" y="474"/>
      <point x="349" y="470" type="curve"/>
    </contour>
  </outline>
</glyph>
<glyph name="four" format="1">
  <advance width="600"/>
  <unicode hex="0034"/>
  <outline>
    <contour>
      <point x="324" y="0" type="line" name="hr00"/>
      <point x="524" y="0" type="line"/>
      <point x="524" y="100" type="line"/>
      <point x="589" y="100" type="line"/>
      <point x="589" y="272" type="line"/>
      <point x="524" y="272" type="line"/>
      <point x="524" y="625" type="line"/>
      <point x="170" y="625" type="line"/>
      <point x="16" y="225" type="line"/>
      <point x="16" y="100" type="line"/>
      <point x="324" y="100" type="line"/>
    </contour>
    <contour>
      <point x="314" y="475" type="line"/>
      <point x="324" y="475" type="line"/>
      <point x="324" y="272" type="line"/>
      <point x="225" y="272" type="line"/>
    </contour>
  </outline>
</glyph>
<glyph name="five" format="1">
  <advance width="600"/>
  <unicode hex="0035"/>
  <outline>
    <contour>
      <point x="42" y="11" type="line" name="hr00"/>
      <point x="119" y="-7" smooth="yes"/>
      <point x="200" y="-15" smooth="yes"/>
      <point x="283" y="-15" type="curve" smooth="yes"/>
      <point x="428" y="-15" smooth="yes"/>
      <point x="569" y="-8" smooth="yes"/>
      <point x="569" y="209" type="curve" smooth="yes"/>
      <point x="569" y="316" smooth="yes"/>
      <point x="523" y="387" smooth="yes"/>
      <point x="338" y="409" type="curve" smooth="yes"/>
      <point x="279" y="416" type="line"/>
      <point x="279" y="467" type="line"/>
      <point x="516" y="453" type="line"/>
      <point x="531" y="625" type="line"/>
      <point x="76" y="625" type="line"/>
      <point x="66" y="376" smooth="yes"/>
      <point x="66" y="370" smooth="yes"/>
      <point x="66" y="365" type="curve" smooth="yes"/>
      <point x="66" y="262"/>
      <point x="117" y="234"/>
      <point x="279" y="217" type="curve"/>
      <point x="354" y="209" type="line"/>
      <point x="354" y="159" type="line"/>
      <point x="323" y="155" smooth="yes"/>
      <point x="292" y="153" smooth="yes"/>
      <point x="261" y="153" type="curve" smooth="yes"/>
      <point x="196" y="153"/>
      <point x="132" y="161"/>
      <point x="70" y="176" type="curve"/>
    </contour>
  </outline>
</glyph>
<glyph name="six" format="1">
  <advance width="600"/>
  <unicode hex="0036"/>
  <outline>
    <contour>
      <point x="350" y="178" type="line" smooth="yes" name="hr00"/>
      <point x="350" y="139" smooth="yes"/>
      <point x="331" y="136" smooth="yes"/>
      <point x="291" y="136" type="curve" smooth="yes"/>
      <point x="250" y="136" type="line"/>
      <point x="250" y="215" type="line" smooth="yes"/>
      <point x="250" y="254" smooth="yes"/>
      <point x="269" y="257" smooth="yes"/>
      <point x="309" y="257" type="curve" smooth="yes"/>
      <point x="350" y="257" type="line"/>
    </contour>
    <contour>
      <point x="565" y="200" type="curve"/>
      <point x="565" y="384"/>
      <point x="445" y="415"/>
      <point x="300" y="415" type="curve"/>
      <point x="250" y="415" type="line"/>
      <point x="250" y="466" type="line"/>
      <point x="269" y="471" smooth="yes"/>
      <point x="326" y="475" smooth="yes"/>
      <point x="363" y="475" type="curve" smooth="yes"/>
      <point x="398" y="475"/>
      <point x="460" y="470"/>
      <point x="512" y="461" type="curve"/>
      <point x="542" y="614" type="line"/>
      <point x="502" y="626" smooth="yes"/>
      <point x="400" y="640" smooth="yes"/>
      <point x="349" y="640" type="curve" smooth="yes"/>
      <point x="90" y="640" smooth="yes"/>
      <point x="35" y="529" smooth="yes"/>
      <point x="35" y="312" type="curve" smooth="yes"/>
      <point x="35" y="96" smooth="yes"/>
      <point x="90" y="-15" smooth="yes"/>
      <point x="300" y="-15" type="curve" smooth="yes"/>
      <point x="445" y="-15" smooth="yes"/>
      <point x="565" y="16" smooth="yes"/>
    </contour>
  </outline>
</glyph>
<glyph name="seven" format="1">
  <advance width="600"/>
  <unicode hex="0037"/>
  <outline>
    <contour>
      <point x="554" y="500" type="line" name="hr00"/>
      <point x="554" y="625" type="line"/>
      <point x="59" y="625" type="line"/>
      <point x="74" y="448" type="line"/>
      <point x="314" y="451" type="line"/>
      <point x="135" y="0" type="line"/>
      <point x="361" y="0" type="line"/>
    </contour>
  </outline>
</glyph>
<glyph name="eight" format="1">
  <advance width="600"/>
  <unicode hex="0038"/>
  <outline>
    <contour>
      <point x="300" y="640" type="curve" smooth="yes"/>
      <point x="174" y="640" smooth="yes"/>
      <point x="56" y="597" smooth="yes"/>
      <point x="56" y="459" type="curve" smooth="yes"/>
      <point x="56" y="397"/>
      <point x="82" y="344"/>
      <point x="123" y="315" type="curve"/>
      <point x="123" y="308" type="line"/>
      <point x="73" y="284" smooth="yes"/>
      <point x="35" y="230" smooth="yes"/>
      <point x="35" y="171" type="curve" smooth="yes" name="hr01"/>
      <point x="35" y="29" smooth="yes"/>
      <point x="153" y="-15" smooth="yes"/>
      <point x="300" y="-15" type="curve" smooth="yes"/>
      <point x="447" y="-15" smooth="yes"/>
      <point x="565" y="29" smooth="yes"/>
      <point x="565" y="171" type="curve" smooth="yes"/>
      <point x="565" y="230"/>
      <point x="527" y="284"/>
      <point x="477" y="308" type="curve"/>
      <point x="477" y="315" type="line"/>
      <point x="517" y="344" smooth="yes"/>
      <point x="544" y="397" smooth="yes"/>
      <point x="544" y="459" type="curve" smooth="yes" name="hr02"/>
      <point x="544" y="597" smooth="yes"/>
      <point x="426" y="640" smooth="yes"/>
    </contour>
    <contour>
      <point x="350" y="201" type="line"/>
      <point x="350" y="178" type="line" smooth="yes"/>
      <point x="350" y="139" smooth="yes"/>
      <point x="331" y="136" smooth="yes"/>
      <point x="291" y="136" type="curve" smooth="yes"/>
      <point x="250" y="136" type="line"/>
      <point x="250" y="223" type="line" smooth="yes"/>
      <point x="250" y="235" smooth="yes"/>
      <point x="254" y="240" smooth="yes"/>
      <point x="261" y="240" type="curve" smooth="yes"/>
      <point x="267" y="240" smooth="yes"/>
      <point x="274" y="237" smooth="yes"/>
      <point x="281" y="234" type="curve" smooth="yes"/>
    </contour>
    <contour>
      <point x="250" y="423" type="line"/>
      <point x="250" y="442" type="line" smooth="yes"/>
      <point x="250" y="481" smooth="yes"/>
      <point x="269" y="484" smooth="yes"/>
      <point x="309" y="484" type="curve" smooth="yes"/>
      <point x="350" y="484" type="line"/>
      <point x="350" y="403" type="line" smooth="yes"/>
      <point x="350" y="393" smooth="yes"/>
      <point x="342" y="385" smooth="yes"/>
      <point x="330" y="385" type="curve" smooth="yes"/>
      <point x="326" y="385" smooth="yes"/>
      <point x="321" y="386" smooth="yes"/>
      <point x="315" y="389" type="curve" smooth="yes"/>
    </contour>
  </outline>
</glyph>
<glyph name="nine" format="1">
  <advance width="600"/>
  <unicode hex="0039"/>
  <outline>
    <contour>
      <point x="249" y="447" type="line" name="hr00"/>
      <point x="249" y="486" smooth="yes"/>
      <point x="268" y="489" smooth="yes"/>
      <point x="308" y="489" type="curve" smooth="yes"/>
      <point x="349" y="489" type="line"/>
      <point x="349" y="418" type="line" smooth="yes"/>
      <point x="349" y="379" smooth="yes"/>
      <point x="330" y="376" smooth="yes"/>
      <point x="290" y="376" type="curve" smooth="yes"/>
      <point x="249" y="376" type="line"/>
    </contour>
    <contour>
      <point x="349" y="217" type="line"/>
      <point x="349" y="159" type="line"/>
      <point x="318" y="155"/>
      <point x="287" y="153"/>
      <point x="256" y="153" type="curve"/>
      <point x="206" y="153"/>
      <point x="143" y="161"/>
      <point x="81" y="176" type="curve"/>
      <point x="53" y="11" type="line"/>
      <point x="130" y="-7"/>
      <point x="216" y="-15"/>
      <point x="299" y="-15" type="curve"/>
      <point x="509" y="-15" smooth="yes"/>
      <point x="564" y="96" smooth="yes"/>
      <point x="564" y="313" type="curve" smooth="yes"/>
      <point x="564" y="529" smooth="yes"/>
      <point x="509" y="640" smooth="yes"/>
      <point x="299" y="640" type="curve" smooth="yes"/>
      <point x="154" y="640" smooth="yes"/>
      <point x="34" y="609" smooth="yes"/>
      <point x="34" y="425" type="curve" smooth="yes"/>
      <point x="34" y="241" smooth="yes"/>
      <point x="154" y="221" smooth="yes"/>
      <point x="299" y="218" type="curve" smooth="yes"/>
    </contour>
  </outline>
</glyph>
<glyph name="colon" format="1">
  <advance width="277"/>
  <unicode hex="003A"/>
  <outline>
    <contour>
      <point x="30" y="99" type="curve" smooth="yes" name="hr00"/>
      <point x="30" y="23" smooth="yes"/>
      <point x="50" y="-6" smooth="yes"/>
      <point x="139" y="-6" type="curve" smooth="yes"/>
      <point x="227" y="-6" smooth="yes"/>
      <point x="247" y="23" smooth="yes"/>
      <point x="247" y="99" type="curve" smooth="yes"/>
      <point x="247" y="175" smooth="yes"/>
      <point x="227" y="206" smooth="yes"/>
      <point x="139" y="206" type="curve" smooth="yes"/>
      <point x="50" y="206" smooth="yes"/>
      <point x="30" y="175" smooth="yes"/>
    </contour>
    <contour>
      <point x="30" y="399" type="curve" smooth="yes"/>
      <point x="30" y="323" smooth="yes"/>
      <point x="50" y="294" smooth="yes"/>
      <point x="139" y="294" type="curve" smooth="yes"/>
      <point x="227" y="294" smooth="yes"/>
      <point x="247" y="323" smooth="yes"/>
      <point x="247" y="399" type="curve" smooth="yes"/>
      <point x="247" y="475" smooth="yes"/>
      <point x="227" y="506" smooth="yes"/>
      <point x="139" y="506" type="curve" smooth="yes"/>
      <point x="50" y="506" smooth="yes"/>
      <point x="30" y="475" smooth="yes"/>
    </contour>
  </outline>
</glyph>
<glyph name="semicolon" format="1">
  <advance width="277"/>
  <unicode hex="003B"/>
  <outline>
    <contour>
      <point x="30" y="99" type="curve" smooth="yes" name="hr00"/>
      <point x="30" y="54"/>
      <point x="42" y="30"/>
      <point x="90" y="22" type="curve"/>
      <point x="57" y="-122" type="line"/>
      <point x="146" y="-151" type="line"/>
      <point x="214" y="-15" type="line" smooth="yes"/>
      <point x="228" y="13" smooth="yes"/>
      <point x="244" y="36" smooth="yes"/>
      <point x="247" y="87" type="curve" smooth="yes"/>
      <point x="247" y="89" type="line"/>
      <point x="247" y="90" type="line"/>
      <point x="247" y="99" type="line" smooth="yes"/>
      <point x="247" y="175" smooth="yes"/>
      <point x="227" y="206" smooth="yes"/>
      <point x="139" y="206" type="curve" smooth="yes"/>
      <point x="50" y="206" smooth="yes"/>
      <point x="30" y="175" smooth="yes"/>
    </contour>
    <contour>
      <point x="30" y="399" type="curve" smooth="yes"/>
      <point x="30" y="323" smooth="yes"/>
      <point x="50" y="294" smooth="yes"/>
      <point x="139" y="294" type="curve" smooth="yes"/>
      <point x="227" y="294" smooth="yes"/>
      <point x="247" y="323" smooth="yes"/>
      <point x="247" y="399" type="curve" smooth="yes"/>
      <point x="247" y="475" smooth="yes"/>
      <point x="227" y="506" smooth="yes"/>
      <point x="139" y="506" type="curve" smooth="yes"/>
      <point x="50" y="506" smooth="yes"/>
      <point x="30" y="475" smooth="yes"/>
    </contour>
  </outline>
</glyph>
<glyph name="less" format="1">
  <advance width="600"/>
  <unicode hex="003C"/>
  <outline>
    <contour>
      <point x="432" y="587" type="line" name="hr00"/>
      <point x="107" y="403" type="line"/>
      <point x="107" y="221" type="line"/>
      <point x="432" y="37" type="line"/>
      <point x="499" y="171" type="line"/>
      <point x="252" y="308" type="line"/>
      <point x="252" y="315" type="line"/>
      <point x="499" y="453" type="line"/>
    </contour>
  </outline>
</glyph>
<glyph name="equal" format="1">
  <advance width="600"/>
  <unicode hex="003D"/>
  <outline>
    <contour>
      <point x="72" y="121" type="line" name="hr00"/>
      <point x="527" y="121" type="line"/>
      <point x="527" y="265" type="line"/>
      <point x="72" y="265" type="line"/>
    </contour>
    <contour>
      <point x="72" y="359" type="line"/>
      <point x="527" y="359" type="line"/>
      <point x="527" y="503" type="line"/>
      <point x="72" y="503" type="line"/>
    </contour>
  </outline>
</glyph>
<glyph name="greater" format="1">
  <advance width="600"/>
  <unicode hex="003E"/>
  <outline>
    <contour>
      <point x="174" y="37" type="line" name="hr00"/>
      <point x="499" y="221" type="line"/>
      <point x="499" y="403" type="line"/>
      <point x="174" y="587" type="line"/>
      <point x="107" y="453" type="line"/>
      <point x="354" y="315" type="line"/>
      <point x="354" y="308" type="line"/>
      <point x="107" y="171" type="line"/>
    </contour>
  </outline>
</glyph>
<glyph name="question" format="1">
  <advance width="528"/>
  <unicode hex="003F"/>
  <outline>
    <contour>
      <point x="318" y="302" type="line" name="hr00"/>
      <point x="430" y="341" smooth="yes"/>
      <point x="488" y="374" smooth="yes"/>
      <point x="488" y="483" type="curve" smooth="yes"/>
      <point x="488" y="627" smooth="yes"/>
      <point x="378" y="640" smooth="yes"/>
      <point x="248" y="640" type="curve" smooth="yes"/>
      <point x="179" y="640"/>
      <point x="106" y="629"/>
      <point x="40" y="612" type="curve"/>
      <point x="64" y="469" type="line"/>
      <point x="90" y="478" smooth="yes"/>
      <point x="176" y="489" smooth="yes"/>
      <point x="243" y="489" type="curve" smooth="yes"/>
      <point x="259" y="489"/>
      <point x="275" y="488"/>
      <point x="288" y="487" type="curve"/>
      <point x="288" y="453" type="line"/>
      <point x="181" y="416" type="line" smooth="yes"/>
      <point x="124" y="396"/>
      <point x="116" y="386"/>
      <point x="116" y="363" type="curve"/>
      <point x="131" y="175" type="line"/>
      <point x="301" y="175" type="line"/>
    </contour>
    <contour>
      <point x="105" y="70" type="curve" smooth="yes"/>
      <point x="105" y="15" smooth="yes"/>
      <point x="125" y="-7" smooth="yes"/>
      <point x="217" y="-7" type="curve" smooth="yes"/>
      <point x="308" y="-7" smooth="yes"/>
      <point x="328" y="15" smooth="yes"/>
      <point x="328" y="70" type="curve" smooth="yes"/>
      <point x="328" y="125" smooth="yes"/>
      <point x="308" y="149" smooth="yes"/>
      <point x="217" y="149" type="curve" smooth="yes"/>
      <point x="125" y="149" smooth="yes"/>
      <point x="105" y="125" smooth="yes"/>
    </contour>
  </outline>
</glyph>
<glyph name="at" format="1">
  <advance width="867"/>
  <unicode hex="0040"/>
  <outline>
    <contour>
      <point x="537" y="187" type="line" smooth="yes"/>
      <point x="537" y="226" smooth="yes"/>
      <point x="566" y="229" smooth="yes"/>
      <point x="606" y="229" type="curve" smooth="yes"/>
      <point x="617" y="229" type="line"/>
      <point x="617" y="167" type="line"/>
      <point x="614" y="134" smooth="yes"/>
      <point x="586" y="131" smooth="yes"/>
      <point x="548" y="131" type="curve" smooth="yes"/>
      <point x="537" y="131" type="line"/>
    </contour>
    <contour>
      <point x="40" y="176" type="line"/>
      <point x="40" y="-93"/>
      <point x="224" y="-165"/>
      <point x="458" y="-165" type="curve"/>
      <point x="527" y="-165"/>
      <point x="590" y="-158"/>
      <point x="660" y="-144" type="curve"/>
      <point x="660" y="-50" type="line"/>
      <point x="472" y="-50" type="line"/>
      <point x="362" y="-50" smooth="yes"/>
      <point x="255" y="-43" smooth="yes"/>
      <point x="255" y="93" type="curve" smooth="yes"/>
      <point x="255" y="290" type="line"/>
      <point x="255" y="426" smooth="yes"/>
      <point x="362" y="433" smooth="yes"/>
      <point x="472" y="433" type="curve" smooth="yes"/>
      <point x="523" y="433"/>
      <point x="586" y="429"/>
      <point x="617" y="423" type="curve"/>
      <point x="617" y="350" type="line"/>
      <point x="577" y="350" type="line" smooth="yes"/>
      <point x="421" y="350" smooth="yes"/>
      <point x="331" y="295" smooth="yes"/>
      <point x="331" y="159" type="curve" smooth="yes"/>
      <point x="331" y="23" smooth="yes"/>
      <point x="409" y="-9" smooth="yes"/>
      <point x="484" y="-9" type="curve" smooth="yes"/>
      <point x="559" y="-9"/>
      <point x="621" y="16"/>
      <point x="660" y="63" type="curve"/>
      <point x="717" y="0" type="line" name="hr01"/>
      <point x="817" y="0" type="line"/>
      <point x="817" y="407" type="line" smooth="yes"/>
      <point x="817" y="539" smooth="yes"/>
      <point x="708" y="600" smooth="yes"/>
      <point x="458" y="600" type="curve" smooth="yes"/>
      <point x="224" y="600" smooth="yes"/>
      <point x="40" y="528" smooth="yes"/>
      <point x="40" y="259" type="curve" smooth="yes"/>
    </contour>
  </outline>
</glyph>
<glyph name="A" format="1">
  <advance width="609"/>
  <unicode hex="0041"/>
  <outline>
    <contour>
      <point x="199" y="0" type="line" name="hr00"/>
      <point x="222" y="99" type="line"/>
      <point x="387" y="99" type="line"/>
      <point x="410" y="0" type="line"/>
      <point x="621" y="0" type="line"/>
      <point x="459" y="625" type="line"/>
      <point x="150" y="625" type="line"/>
      <point x="-12" y="0" type="line"/>
    </contour>
    <contour>
      <point x="299" y="433" type="line"/>
      <point x="310" y="433" type="line"/>
      <point x="350" y="258" type="line"/>
      <point x="258" y="258" type="line"/>
    </contour>
  </outline>
</glyph>
<glyph name="B" format="1">
  <advance width="592"/>
  <unicode hex="0042"/>
  <outline>
    <contour>
      <point x="50" y="0" type="line"/>
      <point x="409" y="0" type="line" smooth="yes"/>
      <point x="526" y="0" smooth="yes"/>
      <point x="572" y="73" smooth="yes"/>
      <point x="572" y="166" type="curve" smooth="yes"/>
      <point x="572" y="248"/>
      <point x="539" y="316"/>
      <point x="451" y="331" type="curve"/>
      <point x="451" y="337" type="line"/>
      <point x="504" y="351" smooth="yes"/>
      <point x="541" y="398" smooth="yes"/>
      <point x="541" y="480" type="curve" smooth="yes" name="hr01"/>
      <point x="541" y="578" smooth="yes"/>
      <point x="496" y="625" smooth="yes"/>
      <point x="374" y="625" type="curve" smooth="yes"/>
      <point x="50" y="625" type="line"/>
    </contour>
    <contour>
      <point x="328" y="249" type="line" smooth="yes"/>
      <point x="361" y="249" smooth="yes"/>
      <point x="369" y="227" smooth="yes"/>
      <point x="369" y="198" type="curve" smooth="yes" name="hr02"/>
      <point x="369" y="169" smooth="yes"/>
      <point x="360" y="147" smooth="yes"/>
      <point x="327" y="147" type="curve" smooth="yes"/>
      <point x="250" y="147" type="line"/>
      <point x="250" y="249" type="line"/>
    </contour>
    <contour>
      <point x="313" y="488" type="line" smooth="yes"/>
      <point x="343" y="488" smooth="yes"/>
      <point x="350" y="468" smooth="yes"/>
      <point x="350" y="441" type="curve" smooth="yes" name="hr03"/>
      <point x="350" y="415" smooth="yes"/>
      <point x="342" y="395" smooth="yes"/>
      <point x="312" y="395" type="curve" smooth="yes"/>
      <point x="250" y="395" type="line"/>
      <point x="250" y="488" type="line"/>
    </contour>
  </outline>
</glyph>
<glyph name="C" format="1">
  <advance width="500"/>
  <unicode hex="0043"/>
  <outline>
    <contour>
      <point x="465" y="179" type="line" name="hr00"/>
      <point x="424" y="164" smooth="yes"/>
      <point x="366" y="155" smooth="yes"/>
      <point x="314" y="155" type="curve" smooth="yes"/>
      <point x="290" y="155"/>
      <point x="264" y="157"/>
      <point x="235" y="163" type="curve"/>
      <point x="235" y="425" type="line" smooth="yes"/>
      <point x="235" y="467" smooth="yes"/>
      <point x="264" y="475" smooth="yes"/>
      <point x="329" y="475" type="curve" smooth="yes"/>
      <point x="357" y="475"/>
      <point x="408" y="470"/>
      <point x="450" y="461" type="curve"/>
      <point x="480" y="614" type="line"/>
      <point x="444" y="630" smooth="yes"/>
      <point x="360" y="640" smooth="yes"/>
      <point x="314" y="640" type="curve" smooth="yes"/>
      <point x="80" y="640" smooth="yes"/>
      <point x="20" y="529" smooth="yes"/>
      <point x="20" y="312" type="curve" smooth="yes"/>
      <point x="20" y="96" smooth="yes"/>
      <point x="80" y="-15" smooth="yes"/>
      <point x="314" y="-15" type="curve" smooth="yes"/>
      <point x="384" y="-15"/>
      <point x="434" y="-8"/>
      <point x="480" y="11" type="curve"/>
    </contour>
  </outline>
</glyph>
<glyph name="D" format="1">
  <advance width="645"/>
  <unicode hex="0044"/>
  <outline>
    <contour>
      <point x="50" y="0" type="line" name="hr00"/>
      <point x="330" y="0" type="line" smooth="yes"/>
      <point x="562" y="0" smooth="yes"/>
      <point x="625" y="96" smooth="yes"/>
      <point x="625" y="312" type="curve" smooth="yes"/>
      <point x="625" y="529" smooth="yes"/>
      <point x="562" y="625" smooth="yes"/>
      <point x="330" y="625" type="curve" smooth="yes"/>
      <point x="50" y="625" type="line"/>
    </contour>
    <contour>
      <point x="333" y="465" type="line" smooth="yes"/>
      <point x="379" y="465" smooth="yes"/>
      <point x="411" y="461" smooth="yes"/>
      <point x="411" y="412" type="curve" smooth="yes"/>
      <point x="411" y="213" type="line" smooth="yes"/>
      <point x="411" y="164" smooth="yes"/>
      <point x="379" y="160" smooth="yes"/>
      <point x="333" y="160" type="curve" smooth="yes"/>
      <point x="250" y="160" type="line"/>
      <point x="250" y="465" type="line"/>
    </contour>
  </outline>
</glyph>
<glyph name="E" format="1">
  <advance width="530"/>
  <unicode hex="0045"/>
  <outline>
    <contour>
      <point x="450" y="236" type="line" name="hr00"/>
      <point x="450" y="381" type="line"/>
      <point x="250" y="381" type="line"/>
      <point x="250" y="465" type="line"/>
      <point x="465" y="465" type="line"/>
      <point x="490" y="625" type="line"/>
      <point x="50" y="625" type="line"/>
      <point x="50" y="0" type="line"/>
      <point x="495" y="0" type="line"/>
      <point x="495" y="160" type="line"/>
      <point x="250" y="160" type="line"/>
      <point x="250" y="236" type="line"/>
    </contour>
  </outline>
</glyph>
<glyph name="F" format="1">
  <advance width="470"/>
  <unicode hex="0046"/>
  <outline>
    <contour>
      <point x="420" y="232" type="line" name="hr00"/>
      <point x="420" y="381" type="line"/>
      <point x="250" y="381" type="line"/>
      <point x="250" y="465" type="line"/>
      <point x="435" y="465" type="line"/>
      <point x="460" y="625" type="line"/>
      <point x="50" y="625" type="line"/>
      <point x="50" y="0" type="line"/>
      <point x="250" y="0" type="line"/>
      <point x="250" y="232" type="line"/>
    </contour>
  </outline>
</glyph>
<glyph name="G" format="1">
  <advance width="600"/>
  <unicode hex="0047"/>
  <outline>
    <contour>
      <point x="370" y="184" type="line" smooth="yes" name="hr00"/>
      <point x="370" y="145" smooth="yes"/>
      <point x="341" y="142" smooth="yes"/>
      <point x="301" y="142" type="curve" smooth="yes"/>
      <point x="235" y="142" type="line"/>
      <point x="235" y="425" type="line" smooth="yes"/>
      <point x="235" y="467" smooth="yes"/>
      <point x="272" y="475" smooth="yes"/>
      <point x="351" y="475" type="curve" smooth="yes"/>
      <point x="386" y="475"/>
      <point x="448" y="470"/>
      <point x="500" y="461" type="curve"/>
      <point x="530" y="614" type="line"/>
      <point x="490" y="627" smooth="yes"/>
      <point x="388" y="640" smooth="yes"/>
      <point x="337" y="640" type="curve" smooth="yes"/>
      <point x="78" y="640" smooth="yes"/>
      <point x="20" y="529" smooth="yes"/>
      <point x="20" y="312" type="curve" smooth="yes"/>
      <point x="20" y="96" smooth="yes"/>
      <point x="80" y="-15" smooth="yes"/>
      <point x="314" y="-15" type="curve" smooth="yes"/>
      <point x="384" y="-15"/>
      <point x="478" y="-1"/>
      <point x="560" y="30" type="curve"/>
      <point x="560" y="364" type="line"/>
      <point x="319" y="364" type="line"/>
      <point x="319" y="211" type="line"/>
      <point x="370" y="211" type="line"/>
    </contour>
  </outline>
</glyph>
<glyph name="H" format="1">
  <advance width="650"/>
  <unicode hex="0048"/>
  <outline>
    <contour>
      <point x="400" y="0" type="line" name="hr00"/>
      <point x="600" y="0" type="line"/>
      <point x="600" y="625" type="line"/>
      <point x="400" y="625" type="line"/>
      <point x="400" y="404" type="line"/>
      <point x="250" y="404" type="line"/>
      <point x="250" y="625" type="line"/>
      <point x="50" y="625" type="line"/>
      <point x="50" y="0" type="line"/>
      <point x="250" y="0" type="line"/>
      <point x="250" y="221" type="line"/>
      <point x="400" y="221" type="line"/>
    </contour>
  </outline>
</glyph>
<glyph name="I" format="1">
  <advance width="300"/>
  <unicode hex="0049"/>
  <outline>
    <contour>
      <point x="50" y="0" type="line" name="hr00"/>
      <point x="250" y="0" type="line"/>
      <point x="250" y="625" type="line"/>
      <point x="50" y="625" type="line"/>
    </contour>
  </outline>
</glyph>
<glyph name="J" format="1">
  <advance width="366"/>
  <unicode hex="004A"/>
  <outline>
    <contour>
      <point x="20" y="0" type="line" name="hr00"/>
      <point x="176" y="0" type="line" smooth="yes"/>
      <point x="276" y="0" smooth="yes"/>
      <point x="331" y="57" smooth="yes"/>
      <point x="331" y="165" type="curve" smooth="yes"/>
      <point x="331" y="625" type="line"/>
      <point x="48" y="625" type="line"/>
      <point x="48" y="465" type="line"/>
      <point x="131" y="465" type="line"/>
      <point x="131" y="190" type="line" smooth="yes"/>
      <point x="131" y="162" smooth="yes"/>
      <point x="110" y="160" smooth="yes"/>
      <point x="83" y="160" type="curve" smooth="yes"/>
      <point x="0" y="160" type="line"/>
    </contour>
  </outline>
</glyph>
<glyph name="K" format="1">
  <advance width="593"/>
  <unicode hex="004B"/>
  <outline>
    <contour>
      <point x="250" y="272" type="line" name="hr00"/>
      <point x="254" y="272" type="line"/>
      <point x="255" y="256" smooth="yes"/>
      <point x="259" y="235" smooth="yes"/>
      <point x="264" y="224" type="curve" smooth="yes"/>
      <point x="367" y="0" type="line"/>
      <point x="583" y="0" type="line"/>
      <point x="428" y="318" type="line"/>
      <point x="578" y="625" type="line"/>
      <point x="362" y="625" type="line"/>
      <point x="264" y="418" type="line" smooth="yes"/>
      <point x="259" y="407"/>
      <point x="255" y="386"/>
      <point x="254" y="370" type="curve"/>
      <point x="250" y="370" type="line"/>
      <point x="250" y="625" type="line"/>
      <point x="50" y="625" type="line"/>
      <point x="50" y="0" type="line"/>
      <point x="250" y="0" type="line"/>
    </contour>
  </outline>
</glyph>
<glyph name="L" format="1">
  <advance width="455"/>
  <unicode hex="004C"/>
  <outline>
    <contour>
      <point x="450" y="0" type="line" name="hr00"/>
      <point x="450" y="160" type="line"/>
      <point x="250" y="160" type="line"/>
      <point x="250" y="625" type="line"/>
      <point x="50" y="625" type="line"/>
      <point x="50" y="0" type="line"/>
    </contour>
  </outline>
</glyph>
<glyph name="M" format="1">
  <advance width="811"/>
  <unicode hex="004D"/>
  <outline>
    <contour>
      <point x="234" y="0" type="line" name="hr00"/>
      <point x="246" y="303" type="line"/>
      <point x="252" y="303" type="line"/>
      <point x="329" y="0" type="line"/>
      <point x="482" y="0" type="line"/>
      <point x="558" y="303" type="line"/>
      <point x="565" y="303" type="line"/>
      <point x="577" y="0" type="line"/>
      <point x="786" y="0" type="line"/>
      <point x="748" y="625" type="line"/>
      <point x="487" y="625" type="line"/>
      <point x="409" y="307" type="line"/>
      <point x="402" y="307" type="line"/>
      <point x="324" y="625" type="line"/>
      <point x="63" y="625" type="line"/>
      <point x="25" y="0" type="line"/>
    </contour>
  </outline>
</glyph>
<glyph name="N" format="1">
  <advance width="655"/>
  <unicode hex="004E"/>
  <outline>
    <contour>
      <point x="417" y="0" type="line" name="hr00"/>
      <point x="605" y="0" type="line"/>
      <point x="605" y="625" type="line"/>
      <point x="405" y="625" type="line"/>
      <point x="405" y="355" type="line"/>
      <point x="401" y="355" type="line"/>
      <point x="400" y="371" smooth="yes"/>
      <point x="398" y="393" smooth="yes"/>
      <point x="391" y="403" type="curve" smooth="yes"/>
      <point x="238" y="625" type="line"/>
      <point x="50" y="625" type="line"/>
      <point x="50" y="0" type="line"/>
      <point x="250" y="0" type="line"/>
      <point x="250" y="270" type="line"/>
      <point x="254" y="270" type="line"/>
      <point x="255" y="254" smooth="yes"/>
      <point x="257" y="232" smooth="yes"/>
      <point x="264" y="222" type="curve" smooth="yes"/>
    </contour>
  </outline>
</glyph>
<glyph name="O" format="1">
  <advance width="630"/>
  <unicode hex="004F"/>
  <outline>
    <contour>
      <point x="20" y="312" type="curve" smooth="yes" name="hr00"/>
      <point x="20" y="96" smooth="yes"/>
      <point x="83" y="-15" smooth="yes"/>
      <point x="315" y="-15" type="curve" smooth="yes"/>
      <point x="547" y="-15" smooth="yes"/>
      <point x="610" y="96" smooth="yes"/>
      <point x="610" y="312" type="curve" smooth="yes"/>
      <point x="610" y="529" smooth="yes"/>
      <point x="547" y="640" smooth="yes"/>
      <point x="315" y="640" type="curve" smooth="yes"/>
      <point x="83" y="640" smooth="yes"/>
      <point x="20" y="529" smooth="yes"/>
    </contour>
    <contour>
      <point x="235" y="416" type="line" smooth="yes"/>
      <point x="235" y="465" smooth="yes"/>
      <point x="266" y="469" smooth="yes"/>
      <point x="312" y="469" type="curve" smooth="yes"/>
      <point x="396" y="469" type="line"/>
      <point x="396" y="209" type="line" smooth="yes"/>
      <point x="396" y="160"/>
      <point x="364" y="156"/>
      <point x="318" y="156" type="curve"/>
      <point x="235" y="156" type="line"/>
    </contour>
  </outline>
</glyph>
<glyph name="P" format="1">
  <advance width="590"/>
  <unicode hex="0050"/>
  <outline>
    <contour>
      <point x="380" y="151" type="line" smooth="yes" name="hr00"/>
      <point x="551" y="151" smooth="yes"/>
      <point x="580" y="291" smooth="yes"/>
      <point x="580" y="394" type="curve" smooth="yes"/>
      <point x="580" y="519" smooth="yes"/>
      <point x="536" y="625" smooth="yes"/>
      <point x="365" y="625" type="curve" smooth="yes"/>
      <point x="50" y="625" type="line"/>
      <point x="50" y="0" type="line"/>
      <point x="250" y="0" type="line"/>
      <point x="250" y="151" type="line"/>
    </contour>
    <contour>
      <point x="250" y="465" type="line"/>
      <point x="296" y="465" type="line" smooth="yes"/>
      <point x="336" y="465" smooth="yes"/>
      <point x="365" y="462" smooth="yes"/>
      <point x="365" y="423" type="curve" smooth="yes"/>
      <point x="365" y="353" type="line" smooth="yes"/>
      <point x="365" y="314" smooth="yes"/>
      <point x="336" y="311" smooth="yes"/>
      <point x="296" y="311" type="curve" smooth="yes"/>
      <point x="250" y="311" type="line"/>
    </contour>
  </outline>
</glyph>
<glyph name="Q" format="1">
  <advance width="630"/>
  <unicode hex="0051"/>
  <outline>
    <contour>
      <point x="385" y="23" type="line" name="hr00"/>
      <point x="385" y="-15" type="line"/>
      <point x="577" y="-50" type="line"/>
      <point x="629" y="65" type="line"/>
      <point x="557" y="107" type="line"/>
      <point x="587" y="151" smooth="yes"/>
      <point x="610" y="222" smooth="yes"/>
      <point x="610" y="312" type="curve" smooth="yes"/>
      <point x="610" y="529" smooth="yes"/>
      <point x="544" y="640" smooth="yes"/>
      <point x="315" y="640" type="curve" smooth="yes"/>
      <point x="83" y="640" smooth="yes"/>
      <point x="20" y="529" smooth="yes"/>
      <point x="20" y="312" type="curve" smooth="yes"/>
      <point x="20" y="123"/>
      <point x="70" y="0"/>
      <point x="300" y="0" type="curve"/>
    </contour>
    <contour>
      <point x="235" y="156" type="line"/>
      <point x="235" y="416" type="line" smooth="yes"/>
      <point x="235" y="465" smooth="yes"/>
      <point x="266" y="469" smooth="yes"/>
      <point x="312" y="469" type="curve" smooth="yes"/>
      <point x="396" y="469" type="line"/>
      <point x="396" y="209" type="line" smooth="yes"/>
      <point x="396" y="160" smooth="yes"/>
      <point x="364" y="156" smooth="yes"/>
      <point x="318" y="156" type="curve" smooth="yes"/>
    </contour>
  </outline>
</glyph>
<glyph name="R" format="1">
  <advance width="615"/>
  <unicode hex="0052"/>
  <outline>
    <contour>
      <point x="595" y="0" type="line" name="hr00"/>
      <point x="487" y="208" type="line"/>
      <point x="564" y="248" smooth="yes"/>
      <point x="580" y="334" smooth="yes"/>
      <point x="580" y="406" type="curve" smooth="yes"/>
      <point x="580" y="525" smooth="yes"/>
      <point x="536" y="625" smooth="yes"/>
      <point x="365" y="625" type="curve" smooth="yes"/>
      <point x="50" y="625" type="line"/>
      <point x="50" y="0" type="line"/>
      <point x="250" y="0" type="line"/>
      <point x="250" y="186" type="line"/>
      <point x="293" y="186" type="line"/>
      <point x="375" y="0" type="line"/>
    </contour>
    <contour>
      <point x="250" y="465" type="line"/>
      <point x="296" y="465" type="line" smooth="yes"/>
      <point x="336" y="465" smooth="yes"/>
      <point x="365" y="462" smooth="yes"/>
      <point x="365" y="423" type="curve" smooth="yes"/>
      <point x="365" y="382" type="line" smooth="yes"/>
      <point x="365" y="343" smooth="yes"/>
      <point x="336" y="340" smooth="yes"/>
      <point x="296" y="340" type="curve" smooth="yes"/>
      <point x="250" y="340" type="line"/>
    </contour>
  </outline>
</glyph>
<glyph name="S" format="1">
  <advance width="577"/>
  <unicode hex="0053"/>
  <outline>
    <contour>
      <point x="25" y="31" type="line" name="hr00"/>
      <point x="102" y="-1" smooth="yes"/>
      <point x="183" y="-15" smooth="yes"/>
      <point x="266" y="-15" type="curve" smooth="yes"/>
      <point x="411" y="-15" smooth="yes"/>
      <point x="552" y="-8" smooth="yes"/>
      <point x="552" y="209" type="curve" smooth="yes"/>
      <point x="552" y="316" smooth="yes"/>
      <point x="506" y="391" smooth="yes"/>
      <point x="321" y="409" type="curve" smooth="yes"/>
      <point x="249" y="416" type="line"/>
      <point x="249" y="465" type="line"/>
      <point x="280" y="469" smooth="yes"/>
      <point x="298" y="470" smooth="yes"/>
      <point x="331" y="470" type="curve" smooth="yes"/>
      <point x="391" y="470"/>
      <point x="437" y="464"/>
      <point x="493" y="455" type="curve"/>
      <point x="518" y="615" type="line"/>
      <point x="445" y="632" smooth="yes"/>
      <point x="369" y="640" smooth="yes"/>
      <point x="293" y="640" type="curve" smooth="yes"/>
      <point x="95" y="640" smooth="yes"/>
      <point x="34" y="586" smooth="yes"/>
      <point x="34" y="416" type="curve" smooth="yes"/>
      <point x="34" y="300" smooth="yes"/>
      <point x="76" y="232" smooth="yes"/>
      <point x="247" y="217" type="curve" smooth="yes"/>
      <point x="337" y="209" type="line"/>
      <point x="337" y="159" type="line"/>
      <point x="309" y="155" smooth="yes"/>
      <point x="283" y="154" smooth="yes"/>
      <point x="256" y="154" type="curve" smooth="yes"/>
      <point x="185" y="154"/>
      <point x="118" y="167"/>
      <point x="53" y="196" type="curve"/>
    </contour>
  </outline>
</glyph>
<glyph name="T" format="1">
  <advance width="500"/>
  <unicode hex="0054"/>
  <outline>
    <contour>
      <point x="495" y="465" type="line" name="hr00"/>
      <point x="495" y="625" type="line"/>
      <point x="5" y="625" type="line"/>
      <point x="5" y="465" type="line"/>
      <point x="150" y="465" type="line"/>
      <point x="150" y="0" type="line"/>
      <point x="350" y="0" type="line"/>
      <point x="350" y="465" type="line"/>
    </contour>
  </outline>
</glyph>
<glyph name="U" format="1">
  <advance width="607"/>
  <unicode hex="0055"/>
  <outline>
    <contour>
      <point x="235" y="625" type="line" name="hr00"/>
      <point x="35" y="625" type="line"/>
      <point x="35" y="274" type="line"/>
      <point x="35" y="58" smooth="yes"/>
      <point x="83" y="-15" smooth="yes"/>
      <point x="303" y="-15" type="curve" smooth="yes"/>
      <point x="523" y="-15"/>
      <point x="572" y="58"/>
      <point x="572" y="274" type="curve"/>
      <point x="572" y="625" type="line"/>
      <point x="372" y="625" type="line"/>
      <point x="372" y="209" type="line" smooth="yes"/>
      <point x="372" y="160" smooth="yes"/>
      <point x="352" y="156" smooth="yes"/>
      <point x="306" y="156" type="curve" smooth="yes"/>
      <point x="235" y="156" type="line"/>
    </contour>
  </outline>
</glyph>
<glyph name="V" format="1">
  <advance width="602"/>
  <unicode hex="0056"/>
  <outline>
    <contour>
      <point x="391" y="625" type="line" name="hr00"/>
      <point x="305" y="228" type="line"/>
      <point x="296" y="228" type="line"/>
      <point x="211" y="625" type="line"/>
      <point x="0" y="625" type="line"/>
      <point x="155" y="0" type="line"/>
      <point x="447" y="0" type="line"/>
      <point x="602" y="625" type="line"/>
    </contour>
  </outline>
</glyph>
<glyph name="W" format="1">
  <advance width="821"/>
  <unicode hex="0057"/>
  <outline>
    <contour>
      <point x="612" y="625" type="line" name="hr00"/>
      <point x="564" y="276" type="line"/>
      <point x="558" y="276" type="line"/>
      <point x="487" y="625" type="line"/>
      <point x="334" y="625" type="line"/>
      <point x="262" y="276" type="line"/>
      <point x="256" y="276" type="line"/>
      <point x="209" y="625" type="line"/>
      <point x="0" y="625" type="line"/>
      <point x="98" y="0" type="line"/>
      <point x="359" y="0" type="line"/>
      <point x="404" y="230" type="line"/>
      <point x="416" y="230" type="line"/>
      <point x="462" y="0" type="line"/>
      <point x="723" y="0" type="line"/>
      <point x="821" y="625" type="line"/>
    </contour>
  </outline>
</glyph>
<glyph name="X" format="1">
  <advance width="592"/>
  <unicode hex="0058"/>
  <outline>
    <contour>
      <point x="227" y="625" type="line" name="hr00"/>
      <point x="0" y="625" type="line"/>
      <point x="136" y="317" type="line"/>
      <point x="0" y="0" type="line"/>
      <point x="212" y="0" type="line"/>
      <point x="286" y="180" type="line"/>
      <point x="295" y="180" type="line"/>
      <point x="370" y="0" type="line"/>
      <point x="592" y="0" type="line"/>
      <point x="453" y="323" type="line"/>
      <point x="592" y="625" type="line"/>
      <point x="375" y="625" type="line"/>
      <point x="306" y="458" type="line"/>
      <point x="296" y="458" type="line"/>
    </contour>
  </outline>
</glyph>
<glyph name="Y" format="1">
  <advance width="560"/>
  <unicode hex="0059"/>
  <outline>
    <contour>
      <point x="221" y="625" type="line" name="hr00"/>
      <point x="0" y="625" type="line"/>
      <point x="180" y="170" type="line"/>
      <point x="180" y="0" type="line"/>
      <point x="380" y="0" type="line"/>
      <point x="380" y="170" type="line"/>
      <point x="560" y="625" type="line"/>
      <point x="339" y="625" type="line"/>
      <point x="283" y="405" type="line"/>
      <point x="276" y="405" type="line"/>
    </contour>
  </outline>
</glyph>
<glyph name="Z" format="1">
  <advance width="589"/>
  <unicode hex="005A"/>
  <outline>
    <contour>
      <point x="564" y="0" type="line" name="hr00"/>
      <point x="564" y="160" type="line"/>
      <point x="310" y="160" type="line"/>
      <point x="307" y="166" type="line"/>
      <point x="560" y="500" type="line"/>
      <point x="560" y="625" type="line"/>
      <point x="50" y="625" type="line"/>
      <point x="68" y="465" type="line"/>
      <point x="278" y="465" type="line"/>
      <point x="281" y="459" type="line"/>
      <point x="25" y="125" type="line"/>
      <point x="25" y="0" type="line"/>
    </contour>
  </outline>
</glyph>
<glyph name="bracketleft" format="1">
  <advance width="339"/>
  <unicode hex="005B"/>
  <outline>
    <contour>
      <point x="50" y="-41" type="line" name="hr00"/>
      <point x="50" y="-141"/>
      <point x="170" y="-146"/>
      <point x="300" y="-146" type="curve"/>
      <point x="309" y="1" type="line"/>
      <point x="226" y="8" type="line"/>
      <point x="226" y="456" type="line"/>
      <point x="306" y="463"/>
      <point x="308" y="463"/>
      <point x="309" y="463" type="curve"/>
      <point x="300" y="610" type="line"/>
      <point x="170" y="610" smooth="yes"/>
      <point x="50" y="605" smooth="yes"/>
      <point x="50" y="505" type="curve" smooth="yes"/>
    </contour>
  </outline>
</glyph>
<glyph name="bracketright" format="1">
  <advance width="339"/>
  <unicode hex="005D"/>
  <outline>
    <contour>
      <point x="289" y="505" type="line" smooth="yes" name="hr00"/>
      <point x="289" y="605"/>
      <point x="169" y="610"/>
      <point x="39" y="610" type="curve"/>
      <point x="30" y="463" type="line"/>
      <point x="31" y="463"/>
      <point x="33" y="463"/>
      <point x="113" y="456" type="curve"/>
      <point x="113" y="8" type="line"/>
      <point x="30" y="1" type="line"/>
      <point x="39" y="-146" type="line"/>
      <point x="169" y="-146"/>
      <point x="289" y="-141"/>
      <point x="289" y="-41" type="curve"/>
    </contour>
  </outline>
</glyph>
<glyph name="asciicircum" format="1">
  <advance width="600"/>
  <unicode hex="005E"/>
  <outline>
    <contour>
      <point x="548" y="262" type="line" name="hr00"/>
      <point x="394" y="587" type="line"/>
      <point x="212" y="587" type="line"/>
      <point x="58" y="262" type="line"/>
      <point x="192" y="218" type="line"/>
      <point x="300" y="442" type="line"/>
      <point x="306" y="442" type="line"/>
      <point x="414" y="218" type="line"/>
    </contour>
  </outline>
</glyph>
<glyph name="underscore" format="1">
  <advance width="595"/>
  <unicode hex="005F"/>
  <outline>
    <contour>
      <point x="25" y="-135" type="line" name="hr00"/>
      <point x="501" y="-135" type="line" smooth="yes"/>
      <point x="541" y="-135" smooth="yes"/>
      <point x="570" y="-132" smooth="yes"/>
      <point x="570" y="-93" type="curve" smooth="yes"/>
      <point x="570" y="15" type="line"/>
      <point x="94" y="15" type="line" smooth="yes"/>
      <point x="54" y="15"/>
      <point x="25" y="12"/>
      <point x="25" y="-27" type="curve"/>
    </contour>
  </outline>
</glyph>
<glyph name="grave" format="1">
  <advance width="429"/>
  <unicode hex="0060"/>
  <outline>
    <contour>
      <point x="288" y="539" type="line" name="hr00"/>
      <point x="329" y="596" type="line"/>
      <point x="140" y="735" type="line" smooth="yes"/>
      <point x="137" y="737" smooth="yes"/>
      <point x="133" y="739" smooth="yes"/>
      <point x="129" y="739" type="curve" smooth="yes"/>
      <point x="122" y="739" smooth="yes"/>
      <point x="116" y="734" smooth="yes"/>
      <point x="111" y="728" type="curve" smooth="yes"/>
      <point x="48" y="654" type="line" smooth="yes"/>
      <point x="42" y="647" smooth="yes"/>
      <point x="39" y="641" smooth="yes"/>
      <point x="39" y="636" type="curve" smooth="yes"/>
      <point x="39" y="631"/>
      <point x="41" y="628"/>
      <point x="43" y="625" type="curve"/>
      <point x="43" y="625" smooth="yes"/>
      <point x="44" y="624" smooth="yes"/>
      <point x="88" y="586" type="curve" smooth="yes"/>
      <point x="95" y="580"/>
      <point x="99" y="577"/>
      <point x="114" y="574" type="curve"/>
    </contour>
  </outline>
</glyph>
<glyph name="a" format="1">
  <advance width="567"/>
  <unicode hex="0061"/>
  <outline>
    <contour>
      <point x="287" y="515" type="curve" smooth="yes"/>
      <point x="210" y="515"/>
      <point x="127" y="506"/>
      <point x="56" y="484" type="curve"/>
      <point x="80" y="341" type="line"/>
      <point x="134" y="359" smooth="yes"/>
      <point x="211" y="368" smooth="yes"/>
      <point x="274" y="368" type="curve" smooth="yes"/>
      <point x="293" y="368"/>
      <point x="311" y="367"/>
      <point x="327" y="366" type="curve"/>
      <point x="327" y="330" type="line"/>
      <point x="287" y="330" type="line" smooth="yes"/>
      <point x="131" y="330" smooth="yes"/>
      <point x="15" y="286" smooth="yes"/>
      <point x="15" y="150" type="curve" smooth="yes"/>
      <point x="15" y="14" smooth="yes"/>
      <point x="108" y="-15" smooth="yes"/>
      <point x="183" y="-15" type="curve" smooth="yes"/>
      <point x="258" y="-15"/>
      <point x="331" y="10"/>
      <point x="370" y="57" type="curve"/>
      <point x="427" y="0" type="line" name="hr01"/>
      <point x="527" y="0" type="line"/>
      <point x="527" y="350" type="line" smooth="yes"/>
      <point x="527" y="482" smooth="yes"/>
      <point x="417" y="515" smooth="yes"/>
    </contour>
    <contour>
      <point x="217" y="172" type="line" smooth="yes"/>
      <point x="217" y="211" smooth="yes"/>
      <point x="246" y="214" smooth="yes"/>
      <point x="286" y="214" type="curve" smooth="yes"/>
      <point x="327" y="214" type="line"/>
      <point x="327" y="167" type="line" smooth="yes"/>
      <point x="327" y="134" smooth="yes"/>
      <point x="296" y="131" smooth="yes"/>
      <point x="258" y="131" type="curve" smooth="yes" name="hr02"/>
      <point x="217" y="131" type="line"/>
    </contour>
  </outline>
</glyph>
<glyph name="b" format="1">
  <advance width="595"/>
  <unicode hex="0062"/>
  <outline>
    <contour>
      <point x="50" y="25" type="line" name="hr00"/>
      <point x="150" y="-8" smooth="yes"/>
      <point x="232" y="-15" smooth="yes"/>
      <point x="309" y="-15" type="curve" smooth="yes"/>
      <point x="469" y="-15" smooth="yes"/>
      <point x="565" y="55" smooth="yes"/>
      <point x="565" y="250" type="curve" smooth="yes"/>
      <point x="565" y="375" smooth="yes"/>
      <point x="521" y="515" smooth="yes"/>
      <point x="350" y="515" type="curve" smooth="yes"/>
      <point x="309" y="515"/>
      <point x="276" y="510"/>
      <point x="250" y="499" type="curve"/>
      <point x="250" y="665" type="line"/>
      <point x="50" y="650" type="line"/>
    </contour>
    <contour>
      <point x="250" y="332" type="line"/>
      <point x="252" y="366" smooth="yes"/>
      <point x="281" y="369" smooth="yes"/>
      <point x="319" y="369" type="curve" smooth="yes"/>
      <point x="350" y="369" type="line"/>
      <point x="350" y="173" type="line" smooth="yes"/>
      <point x="350" y="134" smooth="yes"/>
      <point x="321" y="131" smooth="yes"/>
      <point x="281" y="131" type="curve" smooth="yes"/>
      <point x="250" y="131" type="line"/>
    </contour>
  </outline>
</glyph>
<glyph name="c" format="1">
  <advance width="459"/>
  <unicode hex="0063"/>
  <outline>
    <contour>
      <point x="417" y="150" type="line" name="hr00"/>
      <point x="384" y="138" smooth="yes"/>
      <point x="351" y="131" smooth="yes"/>
      <point x="309" y="131" type="curve" smooth="yes"/>
      <point x="290" y="131"/>
      <point x="269" y="132"/>
      <point x="245" y="137" type="curve"/>
      <point x="245" y="316" type="line" smooth="yes"/>
      <point x="245" y="350" smooth="yes"/>
      <point x="269" y="369" smooth="yes"/>
      <point x="321" y="369" type="curve" smooth="yes"/>
      <point x="344" y="369"/>
      <point x="371" y="365"/>
      <point x="405" y="358" type="curve"/>
      <point x="429" y="494" type="line"/>
      <point x="400" y="507" smooth="yes"/>
      <point x="332" y="515" smooth="yes"/>
      <point x="295" y="515" type="curve" smooth="yes"/>
      <point x="105" y="515" smooth="yes"/>
      <point x="30" y="425" smooth="yes"/>
      <point x="30" y="250" type="curve" smooth="yes"/>
      <point x="30" y="75" smooth="yes"/>
      <point x="105" y="-15" smooth="yes"/>
      <point x="295" y="-15" type="curve" smooth="yes"/>
      <point x="351" y="-15"/>
      <point x="392" y="-9"/>
      <point x="429" y="6" type="curve"/>
    </contour>
  </outline>
</glyph>
<glyph name="d" format="1">
  <advance width="595"/>
  <unicode hex="0064"/>
  <outline>
    <contour>
      <point x="545" y="0" type="line"/>
      <point x="545" y="665" type="line"/>
      <point x="345" y="650" type="line"/>
      <point x="345" y="500" type="line"/>
      <point x="230" y="500" type="line" smooth="yes"/>
      <point x="59" y="500" smooth="yes"/>
      <point x="30" y="353" smooth="yes"/>
      <point x="30" y="250" type="curve" smooth="yes"/>
      <point x="30" y="125" smooth="yes"/>
      <point x="74" y="-15" smooth="yes"/>
      <point x="245" y="-15" type="curve" smooth="yes" name="hr01"/>
      <point x="324" y="-15"/>
      <point x="373" y="4"/>
      <point x="402" y="42" type="curve"/>
      <point x="445" y="0" type="line" name="hr02"/>
    </contour>
    <contour>
      <point x="245" y="327" type="line" smooth="yes"/>
      <point x="245" y="366" smooth="yes"/>
      <point x="274" y="369" smooth="yes"/>
      <point x="314" y="369" type="curve" smooth="yes"/>
      <point x="345" y="369" type="line"/>
      <point x="345" y="167" type="line"/>
      <point x="342" y="134" smooth="yes"/>
      <point x="314" y="131" smooth="yes"/>
      <point x="276" y="131" type="curve" smooth="yes" name="hr03"/>
      <point x="245" y="131" type="line"/>
    </contour>
  </outline>
</glyph>
<glyph name="e" format="1">
  <advance width="565"/>
  <unicode hex="0065"/>
  <outline>
    <contour>
      <point x="245" y="170" type="line" name="hr00"/>
      <point x="477" y="170" smooth="yes"/>
      <point x="540" y="223" smooth="yes"/>
      <point x="540" y="335" type="curve" smooth="yes"/>
      <point x="540" y="476" smooth="yes"/>
      <point x="478" y="515" smooth="yes"/>
      <point x="295" y="515" type="curve" smooth="yes"/>
      <point x="105" y="515" smooth="yes"/>
      <point x="30" y="425" smooth="yes"/>
      <point x="30" y="250" type="curve" smooth="yes"/>
      <point x="30" y="75"/>
      <point x="105" y="-15"/>
      <point x="295" y="-15" type="curve"/>
      <point x="372" y="-15"/>
      <point x="446" y="-4"/>
      <point x="517" y="15" type="curve"/>
      <point x="493" y="162" type="line"/>
      <point x="430" y="142" smooth="yes"/>
      <point x="367" y="132" smooth="yes"/>
      <point x="305" y="132" type="curve" smooth="yes"/>
      <point x="285" y="132"/>
      <point x="265" y="133"/>
      <point x="245" y="135" type="curve"/>
    </contour>
    <contour>
      <point x="245" y="327" type="line" smooth="yes"/>
      <point x="245" y="366" smooth="yes"/>
      <point x="274" y="369" smooth="yes"/>
      <point x="314" y="369" type="curve" smooth="yes"/>
      <point x="355" y="369" type="line"/>
      <point x="355" y="328" type="line" smooth="yes"/>
      <point x="355" y="289" smooth="yes"/>
      <point x="326" y="286" smooth="yes"/>
      <point x="286" y="286" type="curve" smooth="yes"/>
      <point x="245" y="286" type="line"/>
    </contour>
  </outline>
</glyph>
<glyph name="f" format="1">
  <advance width="358"/>
  <unicode hex="0066"/>
  <outline>
    <contour>
      <point x="280" y="542" type="line" name="hr00"/>
      <point x="362" y="534" type="line"/>
      <point x="373" y="665" type="line"/>
      <point x="332" y="671" smooth="yes"/>
      <point x="295" y="675" smooth="yes"/>
      <point x="263" y="675" type="curve" smooth="yes"/>
      <point x="154" y="675" smooth="yes"/>
      <point x="96" y="636" smooth="yes"/>
      <point x="87" y="560" type="curve" smooth="yes"/>
      <point x="80" y="500" type="line"/>
      <point x="30" y="500" type="line"/>
      <point x="30" y="370" type="line"/>
      <point x="80" y="370" type="line"/>
      <point x="80" y="0" type="line"/>
      <point x="280" y="0" type="line"/>
      <point x="280" y="370" type="line"/>
      <point x="340" y="370" type="line"/>
      <point x="340" y="500" type="line"/>
      <point x="280" y="500" type="line"/>
    </contour>
  </outline>
</glyph>
<glyph name="g" format="1">
  <advance width="536"/>
  <unicode hex="0067"/>
  <outline>
    <contour>
      <point x="23" y="-135" type="line"/>
      <point x="93" y="-153" smooth="yes"/>
      <point x="169" y="-165" smooth="yes"/>
      <point x="242" y="-165" type="curve" smooth="yes"/>
      <point x="378" y="-165" smooth="yes"/>
      <point x="512" y="-151" smooth="yes"/>
      <point x="512" y="0" type="curve" smooth="yes"/>
      <point x="512" y="100"/>
      <point x="450" y="122"/>
      <point x="315" y="130" type="curve"/>
      <point x="319" y="154" type="line"/>
      <point x="457" y="165" smooth="yes"/>
      <point x="499" y="216" smooth="yes"/>
      <point x="499" y="318" type="curve" smooth="yes" name="hr01"/>
      <point x="499" y="354"/>
      <point x="495" y="384"/>
      <point x="486" y="408" type="curve"/>
      <point x="543" y="475" type="line"/>
      <point x="438" y="576" type="line"/>
      <point x="351" y="509" type="line"/>
      <point x="326" y="513" smooth="yes"/>
      <point x="297" y="515" smooth="yes"/>
      <point x="266" y="515" type="curve" smooth="yes"/>
      <point x="87" y="515" smooth="yes"/>
      <point x="15" y="457" smooth="yes"/>
      <point x="15" y="334" type="curve" smooth="yes"/>
      <point x="15" y="220"/>
      <point x="71" y="173"/>
      <point x="162" y="157" type="curve"/>
      <point x="132" y="71" type="line"/>
      <point x="132" y="49"/>
      <point x="135" y="22"/>
      <point x="296" y="22" type="curve"/>
      <point x="296" y="-13" type="line"/>
      <point x="282" y="-15" smooth="yes"/>
      <point x="265" y="-15" smooth="yes"/>
      <point x="248" y="-15" type="curve" smooth="yes"/>
      <point x="182" y="-15"/>
      <point x="105" y="-5"/>
      <point x="49" y="14" type="curve"/>
    </contour>
    <contour>
      <point x="203" y="340" type="line" smooth="yes"/>
      <point x="203" y="379" smooth="yes"/>
      <point x="232" y="382" smooth="yes"/>
      <point x="272" y="382" type="curve" smooth="yes"/>
      <point x="303" y="382" type="line"/>
      <point x="303" y="317" type="line" smooth="yes"/>
      <point x="303" y="278" smooth="yes"/>
      <point x="274" y="275" smooth="yes"/>
      <point x="234" y="275" type="curve" smooth="yes"/>
      <point x="203" y="275" type="line"/>
    </contour>
  </outline>
</glyph>
<glyph name="h" format="1">
  <advance width="595"/>
  <unicode hex="0068"/>
  <outline>
    <contour>
      <point x="250" y="308" type="line" smooth="yes" name="hr00"/>
      <point x="250" y="347" smooth="yes"/>
      <point x="279" y="350" smooth="yes"/>
      <point x="319" y="350" type="curve" smooth="yes"/>
      <point x="350" y="350" type="line"/>
      <point x="350" y="0" type="line"/>
      <point x="550" y="0" type="line"/>
      <point x="550" y="400" type="line" smooth="yes"/>
      <point x="550" y="472" smooth="yes"/>
      <point x="494" y="515" smooth="yes"/>
      <point x="400" y="515" type="curve" smooth="yes"/>
      <point x="343" y="515"/>
      <point x="291" y="503"/>
      <point x="250" y="482" type="curve"/>
      <point x="250" y="665" type="line"/>
      <point x="50" y="650" type="line"/>
      <point x="50" y="0" type="line"/>
      <point x="250" y="0" type="line"/>
    </contour>
  </outline>
</glyph>
<glyph name="i" format="1">
  <advance width="300"/>
  <unicode hex="0069"/>
  <outline>
    <contour>
      <point x="50" y="0" type="line"/>
      <point x="250" y="0" type="line"/>
      <point x="250" y="500" type="line"/>
      <point x="50" y="475" type="line"/>
    </contour>
    <contour>
      <point x="39" y="594" type="curve" smooth="yes"/>
      <point x="39" y="536" smooth="yes"/>
      <point x="59" y="515" smooth="yes"/>
      <point x="151" y="515" type="curve" smooth="yes"/>
      <point x="242" y="515" smooth="yes"/>
      <point x="262" y="536" smooth="yes"/>
      <point x="262" y="594" type="curve" smooth="yes" name="hr01"/>
      <point x="262" y="652" smooth="yes"/>
      <point x="242" y="675" smooth="yes"/>
      <point x="151" y="675" type="curve" smooth="yes"/>
      <point x="59" y="675" smooth="yes"/>
      <point x="39" y="652" smooth="yes"/>
    </contour>
  </outline>
</glyph>
<glyph name="j" format="1">
  <advance width="300"/>
  <unicode hex="006A"/>
  <outline>
    <contour>
      <point x="-50" y="-165" type="line"/>
      <point x="95" y="-165" type="line" smooth="yes"/>
      <point x="195" y="-165" smooth="yes"/>
      <point x="250" y="-108" smooth="yes"/>
      <point x="250" y="0" type="curve" smooth="yes"/>
      <point x="250" y="500" type="line"/>
      <point x="50" y="475" type="line"/>
      <point x="50" y="15" type="line" smooth="yes"/>
      <point x="50" y="-13" smooth="yes"/>
      <point x="28" y="-20" smooth="yes"/>
      <point x="2" y="-25" type="curve" smooth="yes"/>
      <point x="-50" y="-35" type="line"/>
    </contour>
    <contour>
      <point x="39" y="594" type="curve" smooth="yes"/>
      <point x="39" y="536" smooth="yes"/>
      <point x="59" y="515" smooth="yes"/>
      <point x="151" y="515" type="curve" smooth="yes"/>
      <point x="242" y="515" smooth="yes"/>
      <point x="262" y="536" smooth="yes"/>
      <point x="262" y="594" type="curve" smooth="yes" name="hr01"/>
      <point x="262" y="652" smooth="yes"/>
      <point x="242" y="675" smooth="yes"/>
      <point x="151" y="675" type="curve" smooth="yes"/>
      <point x="59" y="675" smooth="yes"/>
      <point x="39" y="652" smooth="yes"/>
    </contour>
  </outline>
</glyph>
<glyph name="k" format="1">
  <advance width="560"/>
  <unicode hex="006B"/>
  <outline>
    <contour>
      <point x="334" y="0" type="line" name="hr00"/>
      <point x="550" y="0" type="line"/>
      <point x="429" y="262" type="line"/>
      <point x="545" y="500" type="line"/>
      <point x="329" y="500" type="line"/>
      <point x="257" y="335" type="line"/>
      <point x="250" y="335" type="line"/>
      <point x="250" y="665" type="line"/>
      <point x="50" y="650" type="line"/>
      <point x="50" y="0" type="line"/>
      <point x="250" y="0" type="line"/>
      <point x="250" y="198" type="line"/>
      <point x="257" y="198" type="line"/>
    </contour>
  </outline>
</glyph>
<glyph name="l" format="1">
  <advance width="309"/>
  <unicode hex="006C"/>
  <outline>
    <contour>
      <point x="250" y="665" type="line" name="hr00"/>
      <point x="50" y="650" type="line"/>
      <point x="50" y="94" type="line" smooth="yes"/>
      <point x="50" y="-6"/>
      <point x="160" y="-11"/>
      <point x="290" y="-11" type="curve"/>
      <point x="299" y="136" type="line"/>
      <point x="283" y="137"/>
      <point x="266" y="140"/>
      <point x="250" y="143" type="curve"/>
    </contour>
  </outline>
</glyph>
<glyph name="m" format="1">
  <advance width="854"/>
  <unicode hex="006D"/>
  <outline>
    <contour>
      <point x="330" y="350" type="line"/>
      <point x="330" y="0" type="line"/>
      <point x="530" y="0" type="line"/>
      <point x="530" y="310" type="line"/>
      <point x="532" y="348" smooth="yes"/>
      <point x="561" y="350" smooth="yes"/>
      <point x="596" y="350" type="curve" smooth="yes"/>
      <point x="610" y="350" type="line"/>
      <point x="610" y="0" type="line"/>
      <point x="810" y="0" type="line"/>
      <point x="810" y="400" type="line" smooth="yes"/>
      <point x="810" y="472" smooth="yes"/>
      <point x="747" y="515" smooth="yes"/>
      <point x="640" y="515" type="curve" smooth="yes"/>
      <point x="583" y="515"/>
      <point x="535" y="499"/>
      <point x="498" y="474" type="curve"/>
      <point x="470" y="500" smooth="yes"/>
      <point x="422" y="515" smooth="yes"/>
      <point x="360" y="515" type="curve" smooth="yes"/>
      <point x="290" y="515"/>
      <point x="232" y="491"/>
      <point x="195" y="454" type="curve"/>
      <point x="150" y="500" type="line" name="hr01"/>
      <point x="50" y="500" type="line"/>
      <point x="50" y="0" type="line"/>
      <point x="250" y="0" type="line"/>
      <point x="250" y="304" type="line" smooth="yes"/>
      <point x="250" y="348" smooth="yes"/>
      <point x="279" y="350" smooth="yes"/>
      <point x="316" y="350" type="curve" smooth="yes" name="hr02"/>
    </contour>
  </outline>
</glyph>
<glyph name="n" format="1">
  <advance width="595"/>
  <unicode hex="006E"/>
  <outline>
    <contour>
      <point x="150" y="500" type="line"/>
      <point x="50" y="500" type="line"/>
      <point x="50" y="0" type="line"/>
      <point x="250" y="0" type="line"/>
      <point x="250" y="312" type="line" smooth="yes"/>
      <point x="250" y="346" smooth="yes"/>
      <point x="281" y="350" smooth="yes"/>
      <point x="319" y="350" type="curve" smooth="yes" name="hr01"/>
      <point x="350" y="350" type="line"/>
      <point x="350" y="0" type="line"/>
      <point x="550" y="0" type="line"/>
      <point x="550" y="400" type="line" smooth="yes"/>
      <point x="550" y="472" smooth="yes"/>
      <point x="494" y="515" smooth="yes"/>
      <point x="400" y="515" type="curve" smooth="yes" name="hr02"/>
      <point x="317" y="515"/>
      <point x="250" y="485"/>
      <point x="200" y="450" type="curve"/>
    </contour>
  </outline>
</glyph>
<glyph name="o" format="1">
  <advance width="590"/>
  <unicode hex="006F"/>
  <outline>
    <contour>
      <point x="30" y="250" type="curve" smooth="yes" name="hr00"/>
      <point x="30" y="75" smooth="yes"/>
      <point x="105" y="-15" smooth="yes"/>
      <point x="295" y="-15" type="curve" smooth="yes"/>
      <point x="485" y="-15" smooth="yes"/>
      <point x="560" y="75" smooth="yes"/>
      <point x="560" y="250" type="curve" smooth="yes"/>
      <point x="560" y="425" smooth="yes"/>
      <point x="485" y="515" smooth="yes"/>
      <point x="295" y="515" type="curve" smooth="yes"/>
      <point x="105" y="515" smooth="yes"/>
      <point x="30" y="425" smooth="yes"/>
    </contour>
    <contour>
      <point x="245" y="327" type="line" smooth="yes"/>
      <point x="245" y="366" smooth="yes"/>
      <point x="274" y="369" smooth="yes"/>
      <point x="314" y="369" type="curve" smooth="yes"/>
      <point x="345" y="369" type="line"/>
      <point x="345" y="173" type="line" smooth="yes"/>
      <point x="345" y="134" smooth="yes"/>
      <point x="316" y="131" smooth="yes"/>
      <point x="276" y="131" type="curve" smooth="yes"/>
      <point x="245" y="131" type="line"/>
    </contour>
  </outline>
</glyph>
<glyph name="p" format="1">
  <advance width="595"/>
  <unicode hex="0070"/>
  <outline>
    <contour>
      <point x="50" y="500" type="line"/>
      <point x="50" y="-165" type="line"/>
      <point x="250" y="-150" type="line"/>
      <point x="250" y="0" type="line"/>
      <point x="365" y="0" type="line" smooth="yes"/>
      <point x="536" y="0" smooth="yes"/>
      <point x="565" y="147" smooth="yes"/>
      <point x="565" y="250" type="curve" smooth="yes"/>
      <point x="565" y="375" smooth="yes"/>
      <point x="521" y="515" smooth="yes"/>
      <point x="350" y="515" type="curve" smooth="yes" name="hr01"/>
      <point x="266" y="515"/>
      <point x="216" y="493"/>
      <point x="187" y="450" type="curve"/>
      <point x="150" y="500" type="line" name="hr02"/>
    </contour>
    <contour>
      <point x="250" y="332" type="line"/>
      <point x="252" y="366" smooth="yes"/>
      <point x="281" y="369" smooth="yes"/>
      <point x="319" y="369" type="curve" smooth="yes" name="hr03"/>
      <point x="350" y="369" type="line"/>
      <point x="350" y="173" type="line" smooth="yes"/>
      <point x="350" y="134" smooth="yes"/>
      <point x="321" y="131" smooth="yes"/>
      <point x="281" y="131" type="curve" smooth="yes"/>
      <point x="250" y="131" type="line"/>
    </contour>
  </outline>
</glyph>
<glyph name="q" format="1">
  <advance width="595"/>
  <unicode hex="0071"/>
  <outline>
    <contour>
      <point x="445" y="500" type="line"/>
      <point x="417" y="472" type="line"/>
      <point x="373" y="501" smooth="yes"/>
      <point x="324" y="515" smooth="yes"/>
      <point x="265" y="515" type="curve" smooth="yes" name="hr01"/>
      <point x="94" y="515" smooth="yes"/>
      <point x="30" y="400" smooth="yes"/>
      <point x="30" y="250" type="curve" smooth="yes"/>
      <point x="30" y="129" smooth="yes"/>
      <point x="74" y="-15" smooth="yes"/>
      <point x="245" y="-15" type="curve" smooth="yes"/>
      <point x="286" y="-15"/>
      <point x="319" y="-10"/>
      <point x="345" y="0" type="curve"/>
      <point x="345" y="-165" type="line"/>
      <point x="545" y="-151" type="line"/>
      <point x="545" y="500" type="line" name="hr02"/>
    </contour>
    <contour>
      <point x="245" y="327" type="line" smooth="yes"/>
      <point x="245" y="366" smooth="yes"/>
      <point x="274" y="369" smooth="yes"/>
      <point x="314" y="369" type="curve" smooth="yes" name="hr03"/>
      <point x="345" y="369" type="line"/>
      <point x="345" y="173" type="line" smooth="yes"/>
      <point x="345" y="134" smooth="yes"/>
      <point x="316" y="131" smooth="yes"/>
      <point x="276" y="131" type="curve" smooth="yes"/>
      <point x="245" y="131" type="line"/>
    </contour>
  </outline>
</glyph>
<glyph name="r" format="1">
  <advance width="375"/>
  <unicode hex="0072"/>
  <outline>
    <contour>
      <point x="50" y="500" type="line"/>
      <point x="50" y="0" type="line"/>
      <point x="250" y="0" type="line"/>
      <point x="250" y="286" type="line"/>
      <point x="271" y="312"/>
      <point x="344" y="325"/>
      <point x="365" y="326" type="curve"/>
      <point x="353" y="515" type="line" name="hr01"/>
      <point x="290" y="503"/>
      <point x="242" y="478"/>
      <point x="205" y="444" type="curve"/>
      <point x="150" y="500" type="line" name="hr02"/>
    </contour>
  </outline>
</glyph>
<glyph name="s" format="1">
  <advance width="526"/>
  <unicode hex="0073"/>
  <outline>
    <contour>
      <point x="33" y="341" type="curve" smooth="yes" name="hr00"/>
      <point x="33" y="226"/>
      <point x="92" y="166"/>
      <point x="314" y="166" type="curve"/>
      <point x="314" y="134" type="line"/>
      <point x="289" y="131" smooth="yes"/>
      <point x="264" y="130" smooth="yes"/>
      <point x="240" y="130" type="curve" smooth="yes"/>
      <point x="172" y="130"/>
      <point x="109" y="141"/>
      <point x="50" y="166" type="curve"/>
      <point x="25" y="24" type="line"/>
      <point x="94" y="-3" smooth="yes"/>
      <point x="188" y="-15" smooth="yes"/>
      <point x="269" y="-15" type="curve" smooth="yes"/>
      <point x="379" y="-15" smooth="yes"/>
      <point x="506" y="-2" smooth="yes"/>
      <point x="506" y="166" type="curve" smooth="yes"/>
      <point x="506" y="263"/>
      <point x="455" y="334"/>
      <point x="233" y="334" type="curve"/>
      <point x="233" y="366" type="line"/>
      <point x="255" y="368" smooth="yes"/>
      <point x="278" y="370" smooth="yes"/>
      <point x="301" y="370" type="curve" smooth="yes"/>
      <point x="352" y="370"/>
      <point x="404" y="363"/>
      <point x="457" y="348" type="curve"/>
      <point x="480" y="484" type="line"/>
      <point x="413" y="506" smooth="yes"/>
      <point x="334" y="515" smooth="yes"/>
      <point x="261" y="515" type="curve" smooth="yes"/>
      <point x="137" y="515" smooth="yes"/>
      <point x="33" y="485" smooth="yes"/>
    </contour>
  </outline>
</glyph>
<glyph name="t" format="1">
  <advance width="364"/>
  <unicode hex="0074"/>
  <outline>
    <contour>
      <point x="20" y="371" type="line" name="hr00"/>
      <point x="70" y="371" type="line"/>
      <point x="70" y="94" type="line" smooth="yes"/>
      <point x="70" y="-6"/>
      <point x="180" y="-11"/>
      <point x="320" y="-11" type="curve"/>
      <point x="329" y="136" type="line"/>
      <point x="313" y="137"/>
      <point x="286" y="140"/>
      <point x="270" y="143" type="curve"/>
      <point x="270" y="371" type="line"/>
      <point x="339" y="371" type="line"/>
      <point x="339" y="500" type="line"/>
      <point x="270" y="500" type="line"/>
      <point x="270" y="630" type="line"/>
      <point x="70" y="580" type="line"/>
      <point x="70" y="500" type="line"/>
      <point x="20" y="500" type="line"/>
    </contour>
  </outline>
</glyph>
<glyph name="u" format="1">
  <advance width="590"/>
  <unicode hex="0075"/>
  <outline>
    <contour>
      <point x="240" y="500" type="line"/>
      <point x="40" y="500" type="line"/>
      <point x="40" y="150" type="line" smooth="yes"/>
      <point x="40" y="29" smooth="yes"/>
      <point x="94" y="-15" smooth="yes"/>
      <point x="211" y="-15" type="curve" smooth="yes"/>
      <point x="283" y="-15"/>
      <point x="342" y="9"/>
      <point x="382" y="57" type="curve"/>
      <point x="440" y="0" type="line" name="hr01"/>
      <point x="540" y="0" type="line"/>
      <point x="540" y="500" type="line"/>
      <point x="340" y="500" type="line"/>
      <point x="340" y="173" type="line" smooth="yes"/>
      <point x="340" y="134" smooth="yes"/>
      <point x="311" y="131" smooth="yes"/>
      <point x="271" y="131" type="curve" smooth="yes" name="hr02"/>
      <point x="240" y="131" type="line"/>
    </contour>
  </outline>
</glyph>
<glyph name="v" format="1">
  <advance width="520"/>
  <unicode hex="0076"/>
  <outline>
    <contour>
      <point x="125" y="0" type="line" name="hr00"/>
      <point x="395" y="0" type="line"/>
      <point x="520" y="500" type="line"/>
      <point x="320" y="500" type="line"/>
      <point x="265" y="175" type="line"/>
      <point x="255" y="175" type="line"/>
      <point x="200" y="500" type="line"/>
      <point x="0" y="500" type="line"/>
    </contour>
  </outline>
</glyph>
<glyph name="w" format="1">
  <advance width="800"/>
  <unicode hex="0077"/>
  <outline>
    <contour>
      <point x="114" y="0" type="line" name="hr00"/>
      <point x="350" y="0" type="line"/>
      <point x="393" y="215" type="line"/>
      <point x="401" y="215" type="line"/>
      <point x="440" y="0" type="line"/>
      <point x="686" y="0" type="line"/>
      <point x="786" y="500" type="line"/>
      <point x="590" y="500" type="line"/>
      <point x="542" y="203" type="line"/>
      <point x="531" y="203" type="line"/>
      <point x="475" y="500" type="line"/>
      <point x="325" y="500" type="line"/>
      <point x="262" y="203" type="line"/>
      <point x="251" y="203" type="line"/>
      <point x="210" y="500" type="line"/>
      <point x="14" y="500" type="line"/>
    </contour>
  </outline>
</glyph>
<glyph name="x" format="1">
  <advance width="540"/>
  <unicode hex="0078"/>
  <outline>
    <contour>
      <point x="213" y="500" type="line" name="hr00"/>
      <point x="5" y="500" type="line"/>
      <point x="130" y="258" type="line"/>
      <point x="0" y="0" type="line"/>
      <point x="208" y="0" type="line"/>
      <point x="265" y="135" type="line"/>
      <point x="270" y="135" type="line"/>
      <point x="332" y="0" type="line"/>
      <point x="540" y="0" type="line"/>
      <point x="410" y="244" type="line"/>
      <point x="535" y="500" type="line"/>
      <point x="327" y="500" type="line"/>
      <point x="275" y="376" type="line"/>
      <point x="269" y="376" type="line"/>
    </contour>
  </outline>
</glyph>
<glyph name="y" format="1">
  <advance width="520"/>
  <unicode hex="0079"/>
  <outline>
    <contour>
      <point x="112" y="52" type="line" name="hr00"/>
      <point x="217" y="52" type="line"/>
      <point x="218" y="46" type="line"/>
      <point x="196" y="1" smooth="yes"/>
      <point x="148" y="-8" smooth="yes"/>
      <point x="104" y="-17" type="curve" smooth="yes"/>
      <point x="10" y="-35" type="line"/>
      <point x="10" y="-165" type="line"/>
      <point x="204" y="-165" type="line" smooth="yes"/>
      <point x="304" y="-165"/>
      <point x="356" y="-137"/>
      <point x="395" y="0" type="curve"/>
      <point x="520" y="500" type="line"/>
      <point x="320" y="500" type="line"/>
      <point x="265" y="175" type="line"/>
      <point x="255" y="175" type="line"/>
      <point x="200" y="500" type="line"/>
      <point x="0" y="500" type="line"/>
    </contour>
  </outline>
</glyph>
<glyph name="z" format="1">
  <advance width="530"/>
  <unicode hex="007A"/>
  <outline>
    <contour>
      <point x="25" y="100" type="line" name="hr00"/>
      <point x="25" y="0" type="line"/>
      <point x="505" y="0" type="line"/>
      <point x="505" y="150" type="line"/>
      <point x="309" y="150" type="line"/>
      <point x="306" y="156" type="line"/>
      <point x="499" y="400" type="line"/>
      <point x="499" y="500" type="line"/>
      <point x="45" y="500" type="line"/>
      <point x="60" y="350" type="line"/>
      <point x="218" y="350" type="line"/>
      <point x="221" y="344" type="line"/>
    </contour>
  </outline>
</glyph>
<glyph name="braceleft" format="1">
  <advance width="339"/>
  <unicode hex="007B"/>
  <outline>
    <contour>
      <point x="241" y="102" type="line" smooth="yes" name="hr00"/>
      <point x="241" y="160"/>
      <point x="227" y="200"/>
      <point x="185" y="225" type="curve"/>
      <point x="185" y="237" type="line"/>
      <point x="227" y="262" smooth="yes"/>
      <point x="241" y="302" smooth="yes"/>
      <point x="241" y="360" type="curve" smooth="yes"/>
      <point x="226" y="456" type="line"/>
      <point x="306" y="463"/>
      <point x="308" y="463"/>
      <point x="309" y="463" type="curve"/>
      <point x="300" y="610" type="line"/>
      <point x="170" y="610" smooth="yes"/>
      <point x="50" y="605" smooth="yes"/>
      <point x="50" y="505" type="curve" smooth="yes"/>
      <point x="65" y="303" type="line"/>
      <point x="0" y="287" type="line"/>
      <point x="0" y="175" type="line"/>
      <point x="65" y="159" type="line"/>
      <point x="50" y="-41" type="line" smooth="yes"/>
      <point x="50" y="-141"/>
      <point x="170" y="-146"/>
      <point x="300" y="-146" type="curve"/>
      <point x="309" y="1" type="line"/>
      <point x="226" y="8" type="line"/>
    </contour>
  </outline>
</glyph>
<glyph name="bar" format="1">
  <advance width="420"/>
  <unicode hex="007C"/>
  <outline>
    <contour>
      <point x="150" y="-180" type="line" name="hr00"/>
      <point x="270" y="-180" type="line"/>
      <point x="270" y="704" type="line"/>
      <point x="150" y="704" type="line"/>
    </contour>
  </outline>
</glyph>
<glyph name="braceright" format="1">
  <advance width="339"/>
  <unicode hex="007D"/>
  <outline>
    <contour>
      <point x="113" y="8" type="line"/>
      <point x="30" y="1" type="line"/>
      <point x="39" y="-146" type="line"/>
      <point x="169" y="-146" smooth="yes"/>
      <point x="289" y="-141" smooth="yes"/>
      <point x="289" y="-41" type="curve" smooth="yes"/>
      <point x="274" y="159" type="line"/>
      <point x="339" y="175" type="line"/>
      <point x="339" y="287" type="line"/>
      <point x="274" y="303" type="line"/>
      <point x="289" y="505" type="line" smooth="yes"/>
      <point x="289" y="605"/>
      <point x="169" y="610"/>
      <point x="39" y="610" type="curve"/>
      <point x="30" y="463" type="line"/>
      <point x="31" y="463"/>
      <point x="33" y="463"/>
      <point x="113" y="456" type="curve"/>
      <point x="98" y="360" type="line" smooth="yes" name="hr01"/>
      <point x="98" y="302"/>
      <point x="112" y="262"/>
      <point x="154" y="237" type="curve"/>
      <point x="154" y="225" type="line"/>
      <point x="112" y="200" smooth="yes"/>
      <point x="98" y="160" smooth="yes"/>
      <point x="98" y="102" type="curve" smooth="yes"/>
    </contour>
  </outline>
</glyph>
<glyph name="asciitilde" format="1">
  <advance width="600"/>
  <unicode hex="007E"/>
  <outline>
    <contour>
      <point x="407" y="203" type="curve" smooth="yes"/>
      <point x="483" y="203"/>
      <point x="547" y="255"/>
      <point x="588" y="330" type="curve"/>
      <point x="481" y="420" type="line"/>
      <point x="449" y="376" smooth="yes"/>
      <point x="420" y="354" smooth="yes"/>
      <point x="385" y="354" type="curve" smooth="yes"/>
      <point x="322" y="354" smooth="yes"/>
      <point x="263" y="423" smooth="yes"/>
      <point x="190" y="423" type="curve" smooth="yes" name="hr01"/>
      <point x="112" y="423"/>
      <point x="58" y="355"/>
      <point x="12" y="293" type="curve"/>
      <point x="118" y="202" type="line"/>
      <point x="150" y="238" smooth="yes"/>
      <point x="179" y="268" smooth="yes"/>
      <point x="215" y="268" type="curve" smooth="yes"/>
      <point x="264" y="268" smooth="yes"/>
      <point x="321" y="203" smooth="yes"/>
    </contour>
  </outline>
</glyph>
<glyph name="exclamdown" format="1">
  <advance width="330"/>
  <unicode hex="00A1"/>
  <outline>
    <contour>
      <point x="80" y="455" type="line"/>
      <point x="50" y="27" type="line"/>
      <point x="50" y="12" smooth="yes"/>
      <point x="57" y="0" smooth="yes"/>
      <point x="87" y="0" type="curve" smooth="yes"/>
      <point x="243" y="0" type="line" smooth="yes"/>
      <point x="273" y="0"/>
      <point x="280" y="12"/>
      <point x="280" y="27" type="curve"/>
      <point x="250" y="455" type="line"/>
    </contour>
    <contour>
      <point x="53" y="555" type="curve" smooth="yes" name="hr01"/>
      <point x="53" y="500" smooth="yes"/>
      <point x="73" y="476" smooth="yes"/>
      <point x="165" y="476" type="curve" smooth="yes"/>
      <point x="256" y="476" smooth="yes"/>
      <point x="276" y="500" smooth="yes"/>
      <point x="276" y="555" type="curve" smooth="yes"/>
      <point x="276" y="610" smooth="yes"/>
      <point x="256" y="632" smooth="yes"/>
      <point x="165" y="632" type="curve" smooth="yes"/>
      <point x="73" y="632" smooth="yes"/>
      <point x="53" y="610" smooth="yes"/>
    </contour>
  </outline>
</glyph>
<glyph name="cent" format="1">
  <advance width="459"/>
  <unicode hex="00A2"/>
  <outline>
    <contour>
      <point x="39" y="245" type="curve" smooth="yes" name="hr00"/>
      <point x="39" y="124"/>
      <point x="76" y="65"/>
      <point x="168" y="44" type="curve"/>
      <point x="164" y="-64" type="line"/>
      <point x="293" y="-64" type="line"/>
      <point x="297" y="35" type="line"/>
      <point x="340" y="36"/>
      <point x="374" y="43"/>
      <point x="407" y="56" type="curve"/>
      <point x="401" y="201" type="line"/>
      <point x="366" y="190" smooth="yes"/>
      <point x="330" y="186" smooth="yes"/>
      <point x="297" y="186" type="curve" smooth="yes"/>
      <point x="280" y="186"/>
      <point x="265" y="187"/>
      <point x="248" y="189" type="curve"/>
      <point x="254" y="302" type="line" smooth="yes"/>
      <point x="257" y="347" smooth="yes"/>
      <point x="288" y="351" smooth="yes"/>
      <point x="321" y="351" type="curve" smooth="yes"/>
      <point x="391" y="351" type="line"/>
      <point x="419" y="496" type="line"/>
      <point x="387" y="504"/>
      <point x="348" y="510"/>
      <point x="315" y="513" type="curve"/>
      <point x="319" y="600" type="line"/>
      <point x="191" y="600" type="line"/>
      <point x="187" y="504" type="line"/>
      <point x="73" y="473" smooth="yes"/>
      <point x="39" y="371" smooth="yes"/>
    </contour>
  </outline>
</glyph>
<glyph name="sterling" format="1">
  <advance width="586"/>
  <unicode hex="00A3"/>
  <outline>
    <contour>
      <point x="460" y="262" type="line" name="hr00"/>
      <point x="470" y="369" type="line"/>
      <point x="318" y="369" type="line"/>
      <point x="324" y="428" type="line" smooth="yes"/>
      <point x="328" y="473" smooth="yes"/>
      <point x="359" y="477" smooth="yes"/>
      <point x="397" y="477" type="curve" smooth="yes"/>
      <point x="495" y="477" type="line"/>
      <point x="525" y="622" type="line"/>
      <point x="480" y="632" smooth="yes"/>
      <point x="423" y="641" smooth="yes"/>
      <point x="338" y="641" type="curve" smooth="yes"/>
      <point x="214" y="641" smooth="yes"/>
      <point x="138" y="573" smooth="yes"/>
      <point x="124" y="443" type="curve" smooth="yes"/>
      <point x="116" y="369" type="line"/>
      <point x="40" y="369" type="line"/>
      <point x="40" y="262" type="line"/>
      <point x="104" y="262" type="line"/>
      <point x="90" y="135" type="line"/>
      <point x="40" y="100" type="line"/>
      <point x="40" y="0" type="line"/>
      <point x="546" y="0" type="line"/>
      <point x="521" y="160" type="line"/>
      <point x="299" y="160" type="line"/>
      <point x="308" y="262" type="line"/>
    </contour>
  </outline>
</glyph>
<glyph name="currency" format="1">
  <advance width="568"/>
  <unicode hex="00A4"/>
  <outline>
    <contour>
      <point x="94" y="313" type="curve" smooth="yes" name="hr00"/>
      <point x="94" y="253"/>
      <point x="97" y="206"/>
      <point x="117" y="172" type="curve"/>
      <point x="25" y="80" type="line"/>
      <point x="71" y="34" type="line"/>
      <point x="166" y="129" type="line"/>
      <point x="194" y="117" smooth="yes"/>
      <point x="232" y="111" smooth="yes"/>
      <point x="284" y="111" type="curve" smooth="yes"/>
      <point x="336" y="111"/>
      <point x="373" y="117"/>
      <point x="401" y="130" type="curve"/>
      <point x="497" y="34" type="line"/>
      <point x="543" y="80" type="line"/>
      <point x="450" y="173" type="line"/>
      <point x="469" y="206" smooth="yes"/>
      <point x="473" y="253" smooth="yes"/>
      <point x="473" y="313" type="curve" smooth="yes"/>
      <point x="473" y="373"/>
      <point x="469" y="419"/>
      <point x="450" y="453" type="curve"/>
      <point x="543" y="546" type="line"/>
      <point x="497" y="592" type="line"/>
      <point x="401" y="496" type="line"/>
      <point x="373" y="508" smooth="yes"/>
      <point x="336" y="515" smooth="yes"/>
      <point x="284" y="515" type="curve" smooth="yes"/>
      <point x="232" y="515"/>
      <point x="194" y="509"/>
      <point x="166" y="496" type="curve"/>
      <point x="71" y="592" type="line"/>
      <point x="25" y="546" type="line"/>
      <point x="117" y="453" type="line"/>
      <point x="97" y="420" smooth="yes"/>
      <point x="94" y="373" smooth="yes"/>
    </contour>
    <contour>
      <point x="234" y="353" type="line" smooth="yes"/>
      <point x="234" y="392" smooth="yes"/>
      <point x="263" y="395" smooth="yes"/>
      <point x="303" y="395" type="curve" smooth="yes"/>
      <point x="334" y="395" type="line"/>
      <point x="334" y="273" type="line" smooth="yes"/>
      <point x="334" y="234" smooth="yes"/>
      <point x="305" y="231" smooth="yes"/>
      <point x="265" y="231" type="curve" smooth="yes"/>
      <point x="234" y="231" type="line"/>
    </contour>
  </outline>
</glyph>
<glyph name="yen" format="1">
  <advance width="560"/>
  <unicode hex="00A5"/>
  <outline>
    <contour>
      <point x="221" y="625" type="line" name="hr00"/>
      <point x="10" y="625" type="line"/>
      <point x="106" y="369" type="line"/>
      <point x="40" y="369" type="line"/>
      <point x="40" y="262" type="line"/>
      <point x="146" y="262" type="line"/>
      <point x="164" y="212" type="line"/>
      <point x="40" y="212" type="line"/>
      <point x="40" y="105" type="line"/>
      <point x="180" y="105" type="line"/>
      <point x="180" y="0" type="line"/>
      <point x="380" y="0" type="line"/>
      <point x="380" y="105" type="line"/>
      <point x="520" y="105" type="line"/>
      <point x="520" y="212" type="line"/>
      <point x="395" y="212" type="line"/>
      <point x="414" y="262" type="line"/>
      <point x="520" y="262" type="line"/>
      <point x="520" y="369" type="line"/>
      <point x="454" y="369" type="line"/>
      <point x="550" y="625" type="line"/>
      <point x="339" y="625" type="line"/>
      <point x="283" y="391" type="line"/>
      <point x="277" y="391" type="line"/>
    </contour>
  </outline>
</glyph>
<glyph name="brokenbar" format="1">
  <advance width="420"/>
  <unicode hex="00A6"/>
  <outline>
    <contour>
      <point x="150" y="368" type="line" name="hr00"/>
      <point x="270" y="368" type="line"/>
      <point x="270" y="704" type="line"/>
      <point x="150" y="704" type="line"/>
    </contour>
    <contour>
      <point x="150" y="-180" type="line"/>
      <point x="270" y="-180" type="line"/>
      <point x="270" y="156" type="line"/>
      <point x="150" y="156" type="line"/>
    </contour>
  </outline>
</glyph>
<glyph name="section" format="1">
  <advance width="588"/>
  <unicode hex="00A7"/>
  <outline>
    <contour>
      <point x="280" y="216" type="line" name="hr00"/>
      <point x="249" y="216"/>
      <point x="246" y="222"/>
      <point x="246" y="252" type="curve"/>
      <point x="246" y="277" type="line"/>
      <point x="326" y="277" type="line"/>
      <point x="357" y="277"/>
      <point x="360" y="272"/>
      <point x="360" y="242" type="curve"/>
      <point x="360" y="216" type="line"/>
    </contour>
    <contour>
      <point x="50" y="-91" type="line"/>
      <point x="122" y="-112" smooth="yes"/>
      <point x="204" y="-121" smooth="yes"/>
      <point x="278" y="-121" type="curve" smooth="yes"/>
      <point x="410" y="-121" smooth="yes"/>
      <point x="538" y="-115" smooth="yes"/>
      <point x="538" y="63" type="curve" smooth="yes"/>
      <point x="538" y="98"/>
      <point x="532" y="128"/>
      <point x="513" y="155" type="curve"/>
      <point x="528" y="181" smooth="yes"/>
      <point x="538" y="219" smooth="yes"/>
      <point x="538" y="266" type="curve" smooth="yes"/>
      <point x="538" y="365"/>
      <point x="487" y="432"/>
      <point x="265" y="432" type="curve"/>
      <point x="265" y="466" type="line"/>
      <point x="492" y="466" type="line"/>
      <point x="514" y="593" type="line"/>
      <point x="445" y="611" smooth="yes"/>
      <point x="371" y="618" smooth="yes"/>
      <point x="302" y="618" type="curve" smooth="yes"/>
      <point x="170" y="618" smooth="yes"/>
      <point x="59" y="610" smooth="yes"/>
      <point x="59" y="434" type="curve" smooth="yes"/>
      <point x="59" y="398"/>
      <point x="64" y="368"/>
      <point x="82" y="342" type="curve"/>
      <point x="68" y="316" smooth="yes"/>
      <point x="59" y="278" smooth="yes"/>
      <point x="59" y="231" type="curve" smooth="yes"/>
      <point x="59" y="120"/>
      <point x="118" y="65"/>
      <point x="340" y="65" type="curve"/>
      <point x="340" y="31" type="line"/>
      <point x="72" y="31" type="line"/>
    </contour>
  </outline>
</glyph>
<glyph name="dieresis" format="1">
  <advance width="430"/>
  <unicode hex="00A8"/>
  <outline>
    <contour>
      <point x="26" y="629" type="curve" smooth="yes" name="hr00"/>
      <point x="26" y="573" smooth="yes"/>
      <point x="41" y="552" smooth="yes"/>
      <point x="106" y="552" type="curve" smooth="yes"/>
      <point x="170" y="552" smooth="yes"/>
      <point x="185" y="573" smooth="yes"/>
      <point x="185" y="629" type="curve" smooth="yes"/>
      <point x="185" y="685" smooth="yes"/>
      <point x="170" y="708" smooth="yes"/>
      <point x="106" y="708" type="curve" smooth="yes"/>
      <point x="41" y="708" smooth="yes"/>
      <point x="26" y="685" smooth="yes"/>
    </contour>
    <contour>
      <point x="245" y="629" type="curve" smooth="yes"/>
      <point x="245" y="573" smooth="yes"/>
      <point x="260" y="552" smooth="yes"/>
      <point x="325" y="552" type="curve" smooth="yes"/>
      <point x="389" y="552" smooth="yes"/>
      <point x="404" y="573" smooth="yes"/>
      <point x="404" y="629" type="curve" smooth="yes"/>
      <point x="404" y="685" smooth="yes"/>
      <point x="389" y="708" smooth="yes"/>
      <point x="325" y="708" type="curve" smooth="yes"/>
      <point x="260" y="708" smooth="yes"/>
      <point x="245" y="685" smooth="yes"/>
    </contour>
  </outline>
</glyph>
<glyph name="copyright" format="1">
  <advance width="563"/>
  <unicode hex="00A9"/>
  <outline>
    <contour>
      <point x="368" y="375" type="line"/>
      <point x="346" y="366" smooth="yes"/>
      <point x="318" y="361" smooth="yes"/>
      <point x="294" y="361" type="curve" smooth="yes"/>
      <point x="285" y="361"/>
      <point x="273" y="363"/>
      <point x="261" y="364" type="curve"/>
      <point x="261" y="484" type="line"/>
      <point x="261" y="500" smooth="yes"/>
      <point x="274" y="503" smooth="yes"/>
      <point x="301" y="503" type="curve" smooth="yes"/>
      <point x="315" y="503"/>
      <point x="340" y="501"/>
      <point x="361" y="496" type="curve"/>
      <point x="376" y="574" type="line"/>
      <point x="357" y="583" smooth="yes"/>
      <point x="316" y="588" smooth="yes"/>
      <point x="294" y="588" type="curve" smooth="yes"/>
      <point x="181" y="588" smooth="yes"/>
      <point x="153" y="535" smooth="yes"/>
      <point x="153" y="431" type="curve" smooth="yes" name="hr01"/>
      <point x="153" y="327" smooth="yes"/>
      <point x="181" y="274" smooth="yes"/>
      <point x="294" y="274" type="curve" smooth="yes"/>
      <point x="327" y="274"/>
      <point x="351" y="278"/>
      <point x="376" y="288" type="curve"/>
    </contour>
    <contour>
      <point x="30" y="431" type="curve" smooth="yes" name="hr02"/>
      <point x="30" y="265" smooth="yes"/>
      <point x="101" y="179" smooth="yes"/>
      <point x="282" y="179" type="curve" smooth="yes"/>
      <point x="462" y="179" smooth="yes"/>
      <point x="533" y="265" smooth="yes"/>
      <point x="533" y="431" type="curve" smooth="yes"/>
      <point x="533" y="596" smooth="yes"/>
      <point x="462" y="682" smooth="yes"/>
      <point x="282" y="682" type="curve" smooth="yes"/>
      <point x="101" y="682" smooth="yes"/>
      <point x="30" y="596" smooth="yes"/>
    </contour>
    <contour>
      <point x="80" y="431" type="curve" smooth="yes"/>
      <point x="80" y="586" smooth="yes"/>
      <point x="137" y="636" smooth="yes"/>
      <point x="282" y="636" type="curve" smooth="yes"/>
      <point x="426" y="636" smooth="yes"/>
      <point x="483" y="586" smooth="yes"/>
      <point x="483" y="431" type="curve" smooth="yes"/>
      <point x="483" y="275" smooth="yes"/>
      <point x="426" y="225" smooth="yes"/>
      <point x="282" y="225" type="curve" smooth="yes"/>
      <point x="137" y="225" smooth="yes"/>
      <point x="80" y="275" smooth="yes"/>
    </contour>
  </outline>
</glyph>
<glyph name="ordfeminine" format="1">
  <advance width="458"/>
  <unicode hex="00AA"/>
  <outline>
    <contour>
      <point x="231" y="770" type="curve" smooth="yes" name="hr00"/>
      <point x="169" y="770"/>
      <point x="102" y="763"/>
      <point x="43" y="744" type="curve"/>
      <point x="62" y="628" type="line"/>
      <point x="107" y="640" smooth="yes"/>
      <point x="150" y="646" smooth="yes"/>
      <point x="195" y="646" type="curve" smooth="yes"/>
      <point x="215" y="646"/>
      <point x="235" y="645"/>
      <point x="255" y="642" type="curve"/>
      <point x="255" y="606" type="line"/>
      <point x="231" y="606" type="line" smooth="yes"/>
      <point x="105" y="606" smooth="yes"/>
      <point x="12" y="585" smooth="yes"/>
      <point x="12" y="475" type="curve" smooth="yes"/>
      <point x="12" y="363" smooth="yes"/>
      <point x="88" y="344" smooth="yes"/>
      <point x="149" y="344" type="curve" smooth="yes"/>
      <point x="204" y="344"/>
      <point x="262" y="364"/>
      <point x="295" y="398" type="curve"/>
      <point x="337" y="356" type="line"/>
      <point x="424" y="356" type="line"/>
      <point x="424" y="635" type="line" smooth="yes"/>
      <point x="424" y="744" smooth="yes"/>
      <point x="336" y="770" smooth="yes"/>
    </contour>
    <contour>
      <point x="191" y="493" type="line" smooth="yes"/>
      <point x="191" y="517" smooth="yes"/>
      <point x="210" y="518" smooth="yes"/>
      <point x="237" y="518" type="curve" smooth="yes"/>
      <point x="255" y="518" type="line"/>
      <point x="255" y="484" type="line"/>
      <point x="252" y="464" smooth="yes"/>
      <point x="234" y="462" smooth="yes"/>
      <point x="207" y="462" type="curve" smooth="yes"/>
      <point x="191" y="462" type="line"/>
    </contour>
    <contour>
      <point x="35" y="191" type="line"/>
      <point x="375" y="191" type="line" smooth="yes"/>
      <point x="404" y="191" smooth="yes"/>
      <point x="423" y="193" smooth="yes"/>
      <point x="423" y="222" type="curve" smooth="yes"/>
      <point x="423" y="300" type="line"/>
      <point x="83" y="300" type="line" smooth="yes"/>
      <point x="54" y="300" smooth="yes"/>
      <point x="35" y="300" smooth="yes"/>
      <point x="35" y="271" type="curve" smooth="yes"/>
    </contour>
  </outline>
</glyph>
<glyph name="guillemotleft" format="1">
  <advance width="575"/>
  <unicode hex="00AB"/>
  <outline>
    <contour>
      <point x="25" y="300" type="line" name="hr00"/>
      <point x="25" y="200" type="line"/>
      <point x="219" y="25" type="line"/>
      <point x="300" y="76" type="line"/>
      <point x="200" y="250" type="line"/>
      <point x="300" y="424" type="line"/>
      <point x="219" y="475" type="line"/>
    </contour>
    <contour>
      <point x="275" y="300" type="line"/>
      <point x="275" y="200" type="line"/>
      <point x="469" y="25" type="line"/>
      <point x="550" y="76" type="line"/>
      <point x="450" y="250" type="line"/>
      <point x="550" y="424" type="line"/>
      <point x="469" y="475" type="line"/>
    </contour>
  </outline>
</glyph>
<glyph name="logicalnot" format="1">
  <advance width="600"/>
  <unicode hex="00AC"/>
  <outline>
    <contour>
      <point x="72" y="240" type="line" name="hr00"/>
      <point x="393" y="240" type="line"/>
      <point x="393" y="100" type="line"/>
      <point x="527" y="100" type="line"/>
      <point x="527" y="384" type="line"/>
      <point x="72" y="384" type="line"/>
    </contour>
  </outline>
</glyph>
<glyph name="registered" format="1">
  <advance width="563"/>
  <unicode hex="00AE"/>
  <outline>
    <contour>
      <point x="30" y="431" type="curve" smooth="yes"/>
      <point x="30" y="265" smooth="yes"/>
      <point x="101" y="179" smooth="yes"/>
      <point x="282" y="179" type="curve" smooth="yes"/>
      <point x="462" y="179" smooth="yes"/>
      <point x="533" y="265" smooth="yes"/>
      <point x="533" y="431" type="curve" smooth="yes"/>
      <point x="533" y="596" smooth="yes"/>
      <point x="462" y="682" smooth="yes"/>
      <point x="282" y="682" type="curve" smooth="yes"/>
      <point x="101" y="682" smooth="yes"/>
      <point x="30" y="596" smooth="yes"/>
    </contour>
    <contour>
      <point x="80" y="431" type="curve" smooth="yes"/>
      <point x="80" y="586" smooth="yes"/>
      <point x="137" y="636" smooth="yes"/>
      <point x="282" y="636" type="curve" smooth="yes"/>
      <point x="426" y="636" smooth="yes"/>
      <point x="483" y="586" smooth="yes"/>
      <point x="483" y="431" type="curve" smooth="yes"/>
      <point x="483" y="275" smooth="yes"/>
      <point x="426" y="225" smooth="yes"/>
      <point x="282" y="225" type="curve" smooth="yes"/>
      <point x="137" y="225" smooth="yes"/>
      <point x="80" y="275" smooth="yes"/>
    </contour>
    <contour>
      <point x="425" y="281" type="line"/>
      <point x="373" y="380" type="line"/>
      <point x="408" y="400" smooth="yes"/>
      <point x="416" y="440" smooth="yes"/>
      <point x="416" y="475" type="curve" smooth="yes"/>
      <point x="416" y="532" smooth="yes"/>
      <point x="395" y="581" smooth="yes"/>
      <point x="311" y="581" type="curve" smooth="yes"/>
      <point x="160" y="581" type="line" name="hr01"/>
      <point x="160" y="281" type="line"/>
      <point x="262" y="281" type="line"/>
      <point x="262" y="368" type="line"/>
      <point x="274" y="368" type="line"/>
      <point x="313" y="281" type="line"/>
    </contour>
    <contour>
      <point x="262" y="498" type="line"/>
      <point x="279" y="498" type="line" smooth="yes"/>
      <point x="295" y="498" smooth="yes"/>
      <point x="307" y="497" smooth="yes"/>
      <point x="307" y="483" type="curve" smooth="yes"/>
      <point x="307" y="463" type="line" smooth="yes"/>
      <point x="307" y="449" smooth="yes"/>
      <point x="295" y="448" smooth="yes"/>
      <point x="279" y="448" type="curve" smooth="yes"/>
      <point x="262" y="448" type="line"/>
    </contour>
  </outline>
</glyph>
<glyph name="macron" format="1">
  <advance width="399"/>
  <unicode hex="00AF"/>
  <outline>
    <contour>
      <point x="349" y="568" type="line" name="hr00"/>
      <point x="349" y="632" type="line" smooth="yes"/>
      <point x="349" y="682" smooth="yes"/>
      <point x="345" y="695" smooth="yes"/>
      <point x="297" y="695" type="curve" smooth="yes"/>
      <point x="50" y="695" type="line"/>
      <point x="50" y="632" type="line" smooth="yes"/>
      <point x="50" y="583" smooth="yes"/>
      <point x="55" y="568" smooth="yes"/>
      <point x="103" y="568" type="curve" smooth="yes"/>
    </contour>
  </outline>
</glyph>
<glyph name="degree" format="1">
  <advance width="407"/>
  <unicode hex="00B0"/>
  <outline>
    <contour>
      <point x="30" y="531" type="curve" smooth="yes" name="hr00"/>
      <point x="30" y="416" smooth="yes"/>
      <point x="79" y="357" smooth="yes"/>
      <point x="204" y="357" type="curve" smooth="yes"/>
      <point x="328" y="357" smooth="yes"/>
      <point x="377" y="416" smooth="yes"/>
      <point x="377" y="531" type="curve" smooth="yes"/>
      <point x="377" y="645" smooth="yes"/>
      <point x="328" y="704" smooth="yes"/>
      <point x="204" y="704" type="curve" smooth="yes"/>
      <point x="79" y="704" smooth="yes"/>
      <point x="30" y="645" smooth="yes"/>
    </contour>
    <contour>
      <point x="140" y="562" type="line" smooth="yes"/>
      <point x="140" y="599" smooth="yes"/>
      <point x="167" y="600" smooth="yes"/>
      <point x="208" y="600" type="curve" smooth="yes"/>
      <point x="265" y="600" type="line"/>
      <point x="265" y="500" type="line" smooth="yes"/>
      <point x="265" y="462" smooth="yes"/>
      <point x="240" y="461" smooth="yes"/>
      <point x="203" y="461" type="curve" smooth="yes"/>
      <point x="140" y="461" type="line"/>
    </contour>
  </outline>
</glyph>
<glyph name="twosuperior" format="1">
  <advance width="400"/>
  <unicode hex="00B2"/>
  <outline>
    <contour>
      <point x="61" y="613" type="line" name="hr00"/>
      <point x="102" y="622" smooth="yes"/>
      <point x="142" y="628" smooth="yes"/>
      <point x="178" y="628" type="curve" smooth="yes"/>
      <point x="191" y="628"/>
      <point x="199" y="628"/>
      <point x="221" y="626" type="curve"/>
      <point x="221" y="594" type="line"/>
      <point x="182" y="576" type="line" smooth="yes"/>
      <point x="93" y="535"/>
      <point x="36" y="521"/>
      <point x="36" y="425" type="curve"/>
      <point x="36" y="343" type="line"/>
      <point x="358" y="343" type="line"/>
      <point x="358" y="453" type="line"/>
      <point x="189" y="453" type="line"/>
      <point x="189" y="468" type="line"/>
      <point x="332" y="516" smooth="yes"/>
      <point x="364" y="531" smooth="yes"/>
      <point x="364" y="613" type="curve" smooth="yes"/>
      <point x="364" y="730" smooth="yes"/>
      <point x="293" y="741" smooth="yes"/>
      <point x="202" y="741" type="curve" smooth="yes"/>
      <point x="150" y="741"/>
      <point x="91" y="736"/>
      <point x="42" y="724" type="curve"/>
    </contour>
  </outline>
</glyph>
<glyph name="threesuperior" format="1">
  <advance width="400"/>
  <unicode hex="00B3"/>
  <outline>
    <contour>
      <point x="219" y="594" type="line" name="hr00"/>
      <point x="116" y="582" type="line"/>
      <point x="116" y="493" type="line"/>
      <point x="219" y="482" type="line"/>
      <point x="219" y="451" type="line"/>
      <point x="202" y="449" smooth="yes"/>
      <point x="187" y="449" smooth="yes"/>
      <point x="171" y="449" type="curve" smooth="yes"/>
      <point x="134" y="449"/>
      <point x="98" y="455"/>
      <point x="56" y="465" type="curve"/>
      <point x="37" y="351" type="line"/>
      <point x="86" y="339" smooth="yes"/>
      <point x="131" y="334" smooth="yes"/>
      <point x="184" y="334" type="curve" smooth="yes"/>
      <point x="275" y="334" smooth="yes"/>
      <point x="362" y="344" smooth="yes"/>
      <point x="362" y="460" type="curve" smooth="yes"/>
      <point x="362" y="500"/>
      <point x="348" y="531"/>
      <point x="311" y="550" type="curve"/>
      <point x="340" y="571" smooth="yes"/>
      <point x="353" y="598" smooth="yes"/>
      <point x="353" y="639" type="curve" smooth="yes"/>
      <point x="353" y="730" smooth="yes"/>
      <point x="285" y="741" smooth="yes"/>
      <point x="194" y="741" type="curve" smooth="yes"/>
      <point x="141" y="741"/>
      <point x="92" y="736"/>
      <point x="43" y="724" type="curve"/>
      <point x="62" y="614" type="line"/>
      <point x="101" y="623" smooth="yes"/>
      <point x="144" y="628" smooth="yes"/>
      <point x="182" y="628" type="curve" smooth="yes"/>
      <point x="196" y="628"/>
      <point x="205" y="627"/>
      <point x="219" y="626" type="curve"/>
    </contour>
  </outline>
</glyph>
<glyph name="mu" format="1">
  <advance width="590"/>
  <unicode hex="00B5"/>
  <outline>
    <contour>
      <point x="240" y="500" type="line"/>
      <point x="40" y="500" type="line"/>
      <point x="40" y="-165" type="line"/>
      <point x="170" y="-165" type="line"/>
      <point x="202" y="0" type="line"/>
      <point x="274" y="0" type="line" smooth="yes"/>
      <point x="333" y="0"/>
      <point x="372" y="14"/>
      <point x="397" y="43" type="curve"/>
      <point x="440" y="0" type="line"/>
      <point x="540" y="0" type="line"/>
      <point x="540" y="515" type="line" name="hr01"/>
      <point x="340" y="500" type="line" name="hr02"/>
      <point x="340" y="173" type="line" smooth="yes"/>
      <point x="340" y="134" smooth="yes"/>
      <point x="311" y="131" smooth="yes"/>
      <point x="271" y="131" type="curve" smooth="yes"/>
      <point x="240" y="131" type="line"/>
    </contour>
  </outline>
</glyph>
<glyph name="paragraph" format="1">
  <advance width="604"/>
  <unicode hex="00B6"/>
  <outline>
    <contour>
      <point x="70" y="0" type="line" name="hr00"/>
      <point x="289" y="0" type="line"/>
      <point x="289" y="465" type="line"/>
      <point x="319" y="465" type="line"/>
      <point x="319" y="0" type="line"/>
      <point x="514" y="0" type="line"/>
      <point x="514" y="465" type="line"/>
      <point x="564" y="465" type="line"/>
      <point x="564" y="625" type="line"/>
      <point x="245" y="625" type="line" smooth="yes"/>
      <point x="74" y="625" smooth="yes"/>
      <point x="30" y="530" smooth="yes"/>
      <point x="30" y="418" type="curve" smooth="yes"/>
      <point x="30" y="335"/>
      <point x="54" y="236"/>
      <point x="185" y="218" type="curve"/>
      <point x="185" y="86" type="line"/>
      <point x="70" y="50" type="line"/>
    </contour>
  </outline>
</glyph>
<glyph name="cedilla" format="1">
  <advance width="469"/>
  <unicode hex="00B8"/>
  <outline>
    <contour>
      <point x="194" y="-26" type="line" name="hr00"/>
      <point x="194" y="-54" smooth="yes"/>
      <point x="188" y="-58" smooth="yes"/>
      <point x="161" y="-58" type="curve" smooth="yes"/>
      <point x="128" y="-58" type="line"/>
      <point x="117" y="-146" type="line"/>
      <point x="158" y="-159" smooth="yes"/>
      <point x="193" y="-165" smooth="yes"/>
      <point x="221" y="-165" type="curve" smooth="yes"/>
      <point x="299" y="-165" smooth="yes"/>
      <point x="333" y="-125" smooth="yes"/>
      <point x="333" y="-81" type="curve" smooth="yes"/>
      <point x="333" y="-40"/>
      <point x="304" y="3"/>
      <point x="255" y="21" type="curve"/>
      <point x="194" y="21" type="line"/>
    </contour>
  </outline>
</glyph>
<glyph name="onesuperior" format="1">
  <advance width="400"/>
  <unicode hex="00B9"/>
  <outline>
    <contour>
      <point x="367" y="343" type="line"/>
      <point x="367" y="453" type="line"/>
      <point x="288" y="453" type="line"/>
      <point x="288" y="732" type="line"/>
      <point x="184" y="732" type="line"/>
      <point x="53" y="700" type="line"/>
      <point x="53" y="591" type="line"/>
      <point x="148" y="596" type="line" name="hr01"/>
      <point x="148" y="453" type="line"/>
      <point x="53" y="453" type="line" name="hr02"/>
      <point x="53" y="343" type="line"/>
    </contour>
  </outline>
</glyph>
<glyph name="ordmasculine" format="1">
  <advance width="472"/>
  <unicode hex="00BA"/>
  <outline>
    <contour>
      <point x="20" y="557" type="curve" smooth="yes" name="hr00"/>
      <point x="20" y="416" smooth="yes"/>
      <point x="80" y="344" smooth="yes"/>
      <point x="233" y="344" type="curve" smooth="yes"/>
      <point x="386" y="344" smooth="yes"/>
      <point x="446" y="416" smooth="yes"/>
      <point x="446" y="557" type="curve" smooth="yes"/>
      <point x="446" y="698" smooth="yes"/>
      <point x="386" y="770" smooth="yes"/>
      <point x="233" y="770" type="curve" smooth="yes"/>
      <point x="80" y="770" smooth="yes"/>
      <point x="20" y="698" smooth="yes"/>
    </contour>
    <contour>
      <point x="201" y="618" type="line"/>
      <point x="201" y="641"/>
      <point x="220" y="643"/>
      <point x="247" y="643" type="curve"/>
      <point x="265" y="643" type="line"/>
      <point x="265" y="497" type="line"/>
      <point x="265" y="474"/>
      <point x="245" y="472"/>
      <point x="218" y="472" type="curve"/>
      <point x="201" y="472" type="line"/>
    </contour>
    <contour>
      <point x="35" y="191" type="line"/>
      <point x="375" y="191" type="line" smooth="yes"/>
      <point x="404" y="191" smooth="yes"/>
      <point x="423" y="193" smooth="yes"/>
      <point x="423" y="222" type="curve" smooth="yes"/>
      <point x="423" y="300" type="line"/>
      <point x="83" y="300" type="line" smooth="yes"/>
      <point x="54" y="300" smooth="yes"/>
      <point x="35" y="300" smooth="yes"/>
      <point x="35" y="271" type="curve" smooth="yes"/>
    </contour>
  </outline>
</glyph>
<glyph name="guillemotright" format="1">
  <advance width="575"/>
  <unicode hex="00BB"/>
  <outline>
    <contour>
      <point x="356" y="475" type="line" name="hr00"/>
      <point x="275" y="424" type="line"/>
      <point x="375" y="250" type="line"/>
      <point x="275" y="76" type="line"/>
      <point x="356" y="25" type="line"/>
      <point x="550" y="200" type="line"/>
      <point x="550" y="300" type="line"/>
    </contour>
    <contour>
      <point x="106" y="475" type="line"/>
      <point x="25" y="424" type="line"/>
      <point x="125" y="250" type="line"/>
      <point x="25" y="76" type="line"/>
      <point x="106" y="25" type="line"/>
      <point x="300" y="200" type="line"/>
      <point x="300" y="300" type="line"/>
    </contour>
  </outline>
</glyph>
<glyph name="onequarter" format="1">
  <advance width="971"/>
  <unicode hex="00BC"/>
  <outline>
    <contour>
      <point x="762" y="0" type="line"/>
      <point x="896" y="0" type="line"/>
      <point x="896" y="60" type="line"/>
      <point x="935" y="60" type="line"/>
      <point x="935" y="172" type="line"/>
      <point x="896" y="172" type="line"/>
      <point x="896" y="389" type="line"/>
      <point x="672" y="389" type="line"/>
      <point x="578" y="144" type="line"/>
      <point x="578" y="60" type="line"/>
      <point x="762" y="60" type="line"/>
    </contour>
    <contour>
      <point x="762" y="172" type="line"/>
      <point x="709" y="172" type="line"/>
      <point x="754" y="295" type="line"/>
      <point x="762" y="295" type="line"/>
    </contour>
    <contour>
      <point x="373" y="227" type="line"/>
      <point x="373" y="337" type="line"/>
      <point x="294" y="337" type="line"/>
      <point x="294" y="616" type="line"/>
      <point x="190" y="616" type="line"/>
      <point x="59" y="584" type="line"/>
      <point x="59" y="475" type="line"/>
      <point x="154" y="480" type="line" name="hr01"/>
      <point x="154" y="337" type="line"/>
      <point x="59" y="337" type="line" name="hr02"/>
      <point x="59" y="227" type="line"/>
    </contour>
    <component  base="fraction" xOffset="256"/>
  </outline>
</glyph>
<glyph name="onehalf" format="1">
  <advance width="971"/>
  <unicode hex="00BD"/>
  <outline>
    <contour>
      <point x="618" y="270" type="line"/>
      <point x="659" y="279" smooth="yes"/>
      <point x="699" y="285" smooth="yes"/>
      <point x="735" y="285" type="curve" smooth="yes"/>
      <point x="748" y="285"/>
      <point x="756" y="285"/>
      <point x="778" y="283" type="curve"/>
      <point x="778" y="251" type="line"/>
      <point x="739" y="233" type="line" smooth="yes"/>
      <point x="650" y="192"/>
      <point x="593" y="178"/>
      <point x="593" y="82" type="curve"/>
      <point x="593" y="0" type="line"/>
      <point x="915" y="0" type="line"/>
      <point x="915" y="110" type="line"/>
      <point x="746" y="110" type="line"/>
      <point x="746" y="125" type="line"/>
      <point x="889" y="173" smooth="yes"/>
      <point x="921" y="188" smooth="yes"/>
      <point x="921" y="270" type="curve" smooth="yes"/>
      <point x="921" y="387" smooth="yes"/>
      <point x="850" y="398" smooth="yes"/>
      <point x="759" y="398" type="curve" smooth="yes"/>
      <point x="707" y="398"/>
      <point x="648" y="393"/>
      <point x="599" y="381" type="curve"/>
    </contour>
    <contour>
      <point x="373" y="227" type="line"/>
      <point x="373" y="337" type="line"/>
      <point x="294" y="337" type="line"/>
      <point x="294" y="616" type="line"/>
      <point x="190" y="616" type="line"/>
      <point x="59" y="584" type="line"/>
      <point x="59" y="475" type="line"/>
      <point x="154" y="480" type="line" name="hr01"/>
      <point x="154" y="337" type="line"/>
      <point x="59" y="337" type="line" name="hr02"/>
      <point x="59" y="227" type="line"/>
    </contour>
    <component  base="fraction" xOffset="226"/>
  </outline>
</glyph>
<glyph name="threequarters" format="1">
  <advance width="971"/>
  <unicode hex="00BE"/>
  <outline>
    <contour>
      <point x="762" y="0" type="line" name="hr00"/>
      <point x="896" y="0" type="line"/>
      <point x="896" y="60" type="line"/>
      <point x="935" y="60" type="line"/>
      <point x="935" y="172" type="line"/>
      <point x="896" y="172" type="line"/>
      <point x="896" y="389" type="line"/>
      <point x="672" y="389" type="line"/>
      <point x="578" y="144" type="line"/>
      <point x="578" y="60" type="line"/>
      <point x="762" y="60" type="line"/>
    </contour>
    <contour>
      <point x="762" y="172" type="line"/>
      <point x="709" y="172" type="line"/>
      <point x="754" y="295" type="line"/>
      <point x="762" y="295" type="line"/>
    </contour>
    <contour>
      <point x="235" y="478" type="line"/>
      <point x="132" y="466" type="line"/>
      <point x="132" y="377" type="line"/>
      <point x="235" y="366" type="line"/>
      <point x="235" y="335" type="line"/>
      <point x="218" y="333" smooth="yes"/>
      <point x="203" y="333" smooth="yes"/>
      <point x="187" y="333" type="curve" smooth="yes"/>
      <point x="150" y="333"/>
      <point x="114" y="339"/>
      <point x="72" y="349" type="curve"/>
      <point x="53" y="235" type="line"/>
      <point x="102" y="223" smooth="yes"/>
      <point x="147" y="218" smooth="yes"/>
      <point x="200" y="218" type="curve" smooth="yes"/>
      <point x="291" y="218" smooth="yes"/>
      <point x="378" y="228" smooth="yes"/>
      <point x="378" y="344" type="curve" smooth="yes"/>
      <point x="378" y="384"/>
      <point x="364" y="415"/>
      <point x="327" y="434" type="curve"/>
      <point x="356" y="455" smooth="yes"/>
      <point x="369" y="482" smooth="yes"/>
      <point x="369" y="523" type="curve" smooth="yes"/>
      <point x="369" y="614" smooth="yes"/>
      <point x="301" y="625" smooth="yes"/>
      <point x="210" y="625" type="curve" smooth="yes"/>
      <point x="157" y="625"/>
      <point x="108" y="620"/>
      <point x="59" y="608" type="curve"/>
      <point x="78" y="498" type="line"/>
      <point x="117" y="507" smooth="yes"/>
      <point x="160" y="512" smooth="yes"/>
      <point x="198" y="512" type="curve" smooth="yes"/>
      <point x="212" y="512"/>
      <point x="221" y="511"/>
      <point x="235" y="510" type="curve"/>
    </contour>
    <component  base="fraction" xOffset="237"/>
  </outline>
</glyph>
<glyph name="questiondown" format="1">
  <advance width="528"/>
  <unicode hex="00BF"/>
  <outline>
    <contour>
      <point x="210" y="323" type="line" name="hr00"/>
      <point x="98" y="284" smooth="yes"/>
      <point x="40" y="251" smooth="yes"/>
      <point x="40" y="142" type="curve" smooth="yes"/>
      <point x="40" y="-2" smooth="yes"/>
      <point x="150" y="-15" smooth="yes"/>
      <point x="280" y="-15" type="curve" smooth="yes"/>
      <point x="349" y="-15"/>
      <point x="422" y="-4"/>
      <point x="488" y="13" type="curve"/>
      <point x="464" y="156" type="line"/>
      <point x="438" y="147" smooth="yes"/>
      <point x="352" y="136" smooth="yes"/>
      <point x="285" y="136" type="curve" smooth="yes"/>
      <point x="269" y="136"/>
      <point x="253" y="137"/>
      <point x="240" y="138" type="curve"/>
      <point x="240" y="172" type="line"/>
      <point x="347" y="209" type="line" smooth="yes"/>
      <point x="404" y="229"/>
      <point x="412" y="239"/>
      <point x="412" y="262" type="curve"/>
      <point x="397" y="450" type="line"/>
      <point x="227" y="450" type="line"/>
    </contour>
    <contour>
      <point x="423" y="555" type="curve" smooth="yes"/>
      <point x="423" y="610" smooth="yes"/>
      <point x="403" y="632" smooth="yes"/>
      <point x="311" y="632" type="curve" smooth="yes"/>
      <point x="220" y="632" smooth="yes"/>
      <point x="200" y="610" smooth="yes"/>
      <point x="200" y="555" type="curve" smooth="yes"/>
      <point x="200" y="500" smooth="yes"/>
      <point x="220" y="476" smooth="yes"/>
      <point x="311" y="476" type="curve" smooth="yes"/>
      <point x="403" y="476" smooth="yes"/>
      <point x="423" y="500" smooth="yes"/>
    </contour>
  </outline>
</glyph>
<glyph name="AE" format="1">
  <advance width="811"/>
  <unicode hex="00C6"/>
  <outline>
    <contour>
      <point x="199" y="0" type="line"/>
      <point x="222" y="99" type="line" name="hr01"/>
      <point x="387" y="99" type="line"/>
      <point x="410" y="0" type="line" name="hr02"/>
      <point x="791" y="0" type="line"/>
      <point x="791" y="160" type="line"/>
      <point x="579" y="160" type="line"/>
      <point x="560" y="236" type="line"/>
      <point x="700" y="236" type="line"/>
      <point x="700" y="381" type="line"/>
      <point x="522" y="381" type="line"/>
      <point x="500" y="465" type="line"/>
      <point x="715" y="465" type="line"/>
      <point x="740" y="625" type="line"/>
      <point x="150" y="625" type="line"/>
      <point x="-12" y="0" type="line"/>
    </contour>
    <contour>
      <point x="299" y="433" type="line"/>
      <point x="310" y="433" type="line"/>
      <point x="350" y="258" type="line" name="hr03"/>
      <point x="258" y="258" type="line"/>
    </contour>
  </outline>
</glyph>
<glyph name="Oslash" format="1">
  <advance width="630"/>
  <unicode hex="00D8"/>
  <outline>
    <contour>
      <point x="464" y="486" type="line" name="hr00"/>
      <point x="566" y="665" type="line"/>
      <point x="495" y="665" type="line" smooth="yes"/>
      <point x="467" y="665" smooth="yes"/>
      <point x="461" y="656" smooth="yes"/>
      <point x="452" y="640" type="curve" smooth="yes"/>
      <point x="364" y="486" type="line"/>
      <point x="378" y="486" type="line"/>
      <point x="185" y="149" type="line"/>
      <point x="171" y="149" type="line"/>
      <point x="63" y="-40" type="line"/>
      <point x="134" y="-40" type="line" smooth="yes"/>
      <point x="162" y="-40" smooth="yes"/>
      <point x="168" y="-31" smooth="yes"/>
      <point x="177" y="-15" type="curve" smooth="yes"/>
      <point x="271" y="149" type="line"/>
      <point x="256" y="149" type="line"/>
      <point x="449" y="486" type="line"/>
    </contour>
    <component  base="O"/>
  </outline>
</glyph>
<glyph name="Thorn" format="1">
  <advance width="590"/>
  <unicode hex="00DE"/>
  <outline>
    <contour>
      <point x="380" y="76" type="line" smooth="yes" name="hr00"/>
      <point x="551" y="76" smooth="yes"/>
      <point x="580" y="216" smooth="yes"/>
      <point x="580" y="319" type="curve" smooth="yes"/>
      <point x="580" y="444" smooth="yes"/>
      <point x="536" y="550" smooth="yes"/>
      <point x="365" y="550" type="curve" smooth="yes"/>
      <point x="250" y="550" type="line"/>
      <point x="250" y="625" type="line"/>
      <point x="50" y="625" type="line"/>
      <point x="50" y="0" type="line"/>
      <point x="250" y="0" type="line"/>
      <point x="250" y="76" type="line"/>
    </contour>
    <contour>
      <point x="250" y="390" type="line"/>
      <point x="296" y="390" type="line" smooth="yes"/>
      <point x="336" y="390" smooth="yes"/>
      <point x="365" y="387" smooth="yes"/>
      <point x="365" y="348" type="curve" smooth="yes"/>
      <point x="365" y="278" type="line" smooth="yes"/>
      <point x="365" y="239" smooth="yes"/>
      <point x="336" y="236" smooth="yes"/>
      <point x="296" y="236" type="curve" smooth="yes"/>
      <point x="250" y="236" type="line"/>
    </contour>
  </outline>
</glyph>
<glyph name="germandbls" format="1">
  <advance width="672"/>
  <unicode hex="00DF"/>
  <outline>
    <contour>
      <point x="20" y="370" type="line"/>
      <point x="70" y="370" type="line" name="hr01"/>
      <point x="70" y="0" type="line"/>
      <point x="270" y="0" type="line"/>
      <point x="270" y="515" type="line"/>
      <point x="284" y="518" smooth="yes"/>
      <point x="295" y="519" smooth="yes"/>
      <point x="305" y="519" type="curve" smooth="yes"/>
      <point x="343" y="519" smooth="yes"/>
      <point x="355" y="501" smooth="yes"/>
      <point x="355" y="474" type="curve" smooth="yes"/>
      <point x="355" y="445" smooth="yes"/>
      <point x="341" y="406" smooth="yes"/>
      <point x="330" y="369" type="curve" smooth="yes"/>
      <point x="318" y="329" smooth="yes"/>
      <point x="312" y="296" smooth="yes"/>
      <point x="312" y="270" type="curve" smooth="yes"/>
      <point x="312" y="192"/>
      <point x="361" y="166"/>
      <point x="450" y="166" type="curve"/>
      <point x="450" y="134" type="line"/>
      <point x="449" y="131" smooth="yes"/>
      <point x="431" y="130" smooth="yes"/>
      <point x="412" y="130" type="curve" smooth="yes" name="hr02"/>
      <point x="383" y="130"/>
      <point x="354" y="134"/>
      <point x="326" y="141" type="curve"/>
      <point x="306" y="-1" type="line"/>
      <point x="328" y="-10" smooth="yes"/>
      <point x="392" y="-15" smooth="yes"/>
      <point x="444" y="-15" type="curve" smooth="yes"/>
      <point x="545" y="-15" smooth="yes"/>
      <point x="642" y="16" smooth="yes"/>
      <point x="642" y="151" type="curve" smooth="yes"/>
      <point x="642" y="248"/>
      <point x="600" y="314"/>
      <point x="470" y="314" type="curve"/>
      <point x="532" y="400" smooth="yes"/>
      <point x="552" y="480" smooth="yes"/>
      <point x="552" y="515" type="curve" smooth="yes"/>
      <point x="552" y="655" smooth="yes"/>
      <point x="418" y="675" smooth="yes"/>
      <point x="330" y="675" type="curve" smooth="yes"/>
      <point x="194" y="675" smooth="yes"/>
      <point x="89" y="665" smooth="yes"/>
      <point x="77" y="560" type="curve" smooth="yes"/>
      <point x="70" y="500" type="line"/>
      <point x="20" y="500" type="line" name="hr03"/>
    </contour>
  </outline>
</glyph>
<glyph name="ae" format="1">
  <advance width="852"/>
  <unicode hex="00E6"/>
  <outline>
    <contour>
      <point x="287" y="515" type="curve" smooth="yes"/>
      <point x="210" y="515"/>
      <point x="127" y="506"/>
      <point x="56" y="484" type="curve"/>
      <point x="80" y="341" type="line"/>
      <point x="134" y="359" smooth="yes"/>
      <point x="211" y="368" smooth="yes"/>
      <point x="274" y="368" type="curve" smooth="yes"/>
      <point x="293" y="368"/>
      <point x="311" y="367"/>
      <point x="327" y="366" type="curve"/>
      <point x="327" y="330" type="line"/>
      <point x="287" y="330" type="line" smooth="yes"/>
      <point x="131" y="330" smooth="yes"/>
      <point x="15" y="286" smooth="yes"/>
      <point x="15" y="150" type="curve" smooth="yes"/>
      <point x="15" y="29" smooth="yes"/>
      <point x="81" y="-15" smooth="yes"/>
      <point x="198" y="-15" type="curve" smooth="yes"/>
      <point x="275" y="-15"/>
      <point x="334" y="11"/>
      <point x="373" y="60" type="curve"/>
      <point x="411" y="10" smooth="yes"/>
      <point x="476" y="-15" smooth="yes"/>
      <point x="577" y="-15" type="curve" smooth="yes"/>
      <point x="654" y="-15"/>
      <point x="728" y="-4"/>
      <point x="799" y="15" type="curve"/>
      <point x="775" y="162" type="line"/>
      <point x="712" y="141" smooth="yes"/>
      <point x="649" y="132" smooth="yes"/>
      <point x="587" y="132" type="curve" smooth="yes"/>
      <point x="567" y="132"/>
      <point x="547" y="133"/>
      <point x="527" y="135" type="curve"/>
      <point x="527" y="170" type="line" name="hr01"/>
      <point x="759" y="170" smooth="yes"/>
      <point x="822" y="223" smooth="yes"/>
      <point x="822" y="335" type="curve" smooth="yes"/>
      <point x="822" y="476" smooth="yes"/>
      <point x="760" y="515" smooth="yes"/>
      <point x="577" y="515" type="curve" smooth="yes"/>
      <point x="519" y="515"/>
      <point x="474" y="507"/>
      <point x="438" y="490" type="curve"/>
      <point x="397" y="508" smooth="yes"/>
      <point x="344" y="515" smooth="yes"/>
    </contour>
    <contour>
      <point x="527" y="327" type="line" smooth="yes"/>
      <point x="527" y="366" smooth="yes"/>
      <point x="556" y="369" smooth="yes"/>
      <point x="596" y="369" type="curve" smooth="yes"/>
      <point x="637" y="369" type="line"/>
      <point x="637" y="328" type="line" smooth="yes"/>
      <point x="637" y="289" smooth="yes"/>
      <point x="608" y="286" smooth="yes"/>
      <point x="568" y="286" type="curve" smooth="yes"/>
      <point x="527" y="286" type="line"/>
    </contour>
    <contour>
      <point x="217" y="172" type="line" smooth="yes"/>
      <point x="217" y="211" smooth="yes"/>
      <point x="246" y="214" smooth="yes"/>
      <point x="286" y="214" type="curve" smooth="yes" name="hr02"/>
      <point x="327" y="214" type="line"/>
      <point x="327" y="167" type="line"/>
      <point x="324" y="134" smooth="yes"/>
      <point x="296" y="131" smooth="yes"/>
      <point x="258" y="131" type="curve" smooth="yes"/>
      <point x="217" y="131" type="line"/>
    </contour>
  </outline>
</glyph>
<glyph name="eth" format="1">
  <advance width="590"/>
  <unicode hex="00F0"/>
  <outline>
    <contour>
      <point x="245" y="247" type="line" smooth="yes" name="hr00"/>
      <point x="245" y="286" smooth="yes"/>
      <point x="274" y="289" smooth="yes"/>
      <point x="314" y="289" type="curve" smooth="yes"/>
      <point x="345" y="289" type="line"/>
      <point x="345" y="173" type="line" smooth="yes"/>
      <point x="345" y="134" smooth="yes"/>
      <point x="316" y="131" smooth="yes"/>
      <point x="276" y="131" type="curve" smooth="yes"/>
      <point x="245" y="131" type="line"/>
    </contour>
    <contour>
      <point x="127" y="462" type="line"/>
      <point x="514" y="581" type="line"/>
      <point x="493" y="651" type="line"/>
      <point x="106" y="532" type="line"/>
    </contour>
    <contour>
      <point x="181" y="618" type="line"/>
      <point x="305" y="420" type="line"/>
      <point x="108" y="420" smooth="yes"/>
      <point x="30" y="348" smooth="yes"/>
      <point x="30" y="210" type="curve" smooth="yes"/>
      <point x="30" y="63" smooth="yes"/>
      <point x="105" y="-15" smooth="yes"/>
      <point x="295" y="-15" type="curve" smooth="yes"/>
      <point x="485" y="-15" smooth="yes"/>
      <point x="560" y="63" smooth="yes"/>
      <point x="560" y="210" type="curve" smooth="yes"/>
      <point x="560" y="263" smooth="yes"/>
      <point x="546" y="334" smooth="yes"/>
      <point x="489" y="424" type="curve" smooth="yes"/>
      <point x="336" y="666" type="line"/>
    </contour>
  </outline>
</glyph>
<glyph name="divide" format="1">
  <advance width="600"/>
  <unicode hex="00F7"/>
  <outline>
    <contour>
      <point x="72" y="240" type="line" name="hr00"/>
      <point x="527" y="240" type="line"/>
      <point x="527" y="384" type="line"/>
      <point x="72" y="384" type="line"/>
    </contour>
    <contour>
      <point x="377" y="547" type="line" smooth="yes"/>
      <point x="377" y="563" smooth="yes"/>
      <point x="368" y="575" smooth="yes"/>
      <point x="338" y="575" type="curve" smooth="yes"/>
      <point x="258" y="575" type="line" smooth="yes"/>
      <point x="228" y="575" smooth="yes"/>
      <point x="219" y="563" smooth="yes"/>
      <point x="219" y="547" type="curve" smooth="yes"/>
      <point x="219" y="457" type="line" smooth="yes"/>
      <point x="219" y="441" smooth="yes"/>
      <point x="228" y="428" smooth="yes"/>
      <point x="258" y="428" type="curve" smooth="yes"/>
      <point x="338" y="428" type="line" smooth="yes"/>
      <point x="368" y="428" smooth="yes"/>
      <point x="377" y="441" smooth="yes"/>
      <point x="377" y="457" type="curve" smooth="yes"/>
    </contour>
    <contour>
      <point x="377" y="167" type="line" smooth="yes"/>
      <point x="377" y="183" smooth="yes"/>
      <point x="368" y="195" smooth="yes"/>
      <point x="338" y="195" type="curve" smooth="yes"/>
      <point x="258" y="195" type="line" smooth="yes"/>
      <point x="228" y="195" smooth="yes"/>
      <point x="219" y="183" smooth="yes"/>
      <point x="219" y="167" type="curve" smooth="yes"/>
      <point x="219" y="77" type="line" smooth="yes"/>
      <point x="219" y="61" smooth="yes"/>
      <point x="228" y="48" smooth="yes"/>
      <point x="258" y="48" type="curve" smooth="yes"/>
      <point x="338" y="48" type="line" smooth="yes"/>
      <point x="368" y="48" smooth="yes"/>
      <point x="377" y="61" smooth="yes"/>
      <point x="377" y="77" type="curve" smooth="yes"/>
    </contour>
  </outline>
</glyph>
<glyph name="oslash" format="1">
  <advance width="590"/>
  <unicode hex="00F8"/>
  <outline>
    <contour>
      <point x="240" y="100" type="line" name="hr00"/>
      <point x="412" y="400" type="line"/>
      <point x="351" y="400" type="line"/>
      <point x="179" y="100" type="line"/>
    </contour>
    <contour>
      <point x="151" y="85" type="line"/>
      <point x="43" y="-104" type="line"/>
      <point x="114" y="-104" type="line" smooth="yes"/>
      <point x="142" y="-104" smooth="yes"/>
      <point x="148" y="-95" smooth="yes"/>
      <point x="157" y="-79" type="curve" smooth="yes"/>
      <point x="251" y="85" type="line"/>
    </contour>
    <contour>
      <point x="444" y="422" type="line"/>
      <point x="546" y="601" type="line"/>
      <point x="475" y="601" type="line" smooth="yes"/>
      <point x="447" y="601" smooth="yes"/>
      <point x="441" y="592" smooth="yes"/>
      <point x="432" y="576" type="curve" smooth="yes"/>
      <point x="344" y="422" type="line"/>
    </contour>
    <component  base="o"/>
  </outline>
</glyph>
<glyph name="thorn" format="1">
  <advance width="420"/>
  <unicode hex="00FE"/>
  <outline>
    <contour>
      <point x="-47" y="650" type="line" name="hr00"/>
      <point x="-47" y="-165" type="line"/>
      <point x="153" y="-150" type="line"/>
      <point x="153" y="-13" type="line"/>
      <point x="169" y="-14" smooth="yes"/>
      <point x="192" y="-15" smooth="yes"/>
      <point x="212" y="-15" type="curve" smooth="yes"/>
      <point x="372" y="-15" smooth="yes"/>
      <point x="468" y="55" smooth="yes"/>
      <point x="468" y="250" type="curve" smooth="yes"/>
      <point x="468" y="375" smooth="yes"/>
      <point x="424" y="515" smooth="yes"/>
      <point x="253" y="515" type="curve" smooth="yes"/>
      <point x="212" y="515"/>
      <point x="179" y="510"/>
      <point x="153" y="499" type="curve"/>
      <point x="153" y="665" type="line"/>
    </contour>
    <contour>
      <point x="153" y="332" type="line"/>
      <point x="155" y="366" smooth="yes"/>
      <point x="184" y="369" smooth="yes"/>
      <point x="222" y="369" type="curve" smooth="yes"/>
      <point x="253" y="369" type="line"/>
      <point x="253" y="173" type="line" smooth="yes"/>
      <point x="253" y="134" smooth="yes"/>
      <point x="224" y="131" smooth="yes"/>
      <point x="184" y="131" type="curve" smooth="yes"/>
      <point x="153" y="131" type="line"/>
    </contour>
  </outline>
</glyph>
<glyph name="hbar" format="1">
  <advance width="595"/>
  <unicode hex="0127"/>
  <outline>
    <contour>
      <point x="250" y="268" type="line" smooth="yes" name="hr00"/>
      <point x="250" y="307" smooth="yes"/>
      <point x="279" y="310" smooth="yes"/>
      <point x="319" y="310" type="curve" smooth="yes"/>
      <point x="350" y="310" type="line"/>
      <point x="350" y="0" type="line"/>
      <point x="550" y="0" type="line"/>
      <point x="550" y="360" type="line" smooth="yes"/>
      <point x="550" y="432" smooth="yes"/>
      <point x="494" y="475" smooth="yes"/>
      <point x="400" y="475" type="curve" smooth="yes"/>
      <point x="343" y="475"/>
      <point x="291" y="463"/>
      <point x="250" y="442" type="curve"/>
      <point x="250" y="665" type="line"/>
      <point x="50" y="650" type="line"/>
      <point x="50" y="0" type="line"/>
      <point x="250" y="0" type="line"/>
    </contour>
    <component  base="croatbar" xOffset="-19" yOffset="-7"/>
  </outline>
</glyph>
<glyph name="dotlessi" format="1">
  <advance width="300"/>
  <unicode hex="0131"/>
  <outline>
    <contour>
      <point x="50" y="0" type="line" name="hr00"/>
      <point x="250" y="0" type="line"/>
      <point x="250" y="500" type="line"/>
      <point x="50" y="475" type="line"/>
    </contour>
  </outline>
</glyph>
<glyph name="Lslash" format="1">
  <advance width="455"/>
  <unicode hex="0141"/>
  <outline>
    <contour>
      <point x="0" y="343" type="line" name="hr00"/>
      <point x="330" y="444" type="line"/>
      <point x="309" y="514" type="line"/>
      <point x="-21" y="413" type="line"/>
    </contour>
    <component  base="L"/>
  </outline>
</glyph>
<glyph name="Eng" format="1">
  <advance width="655"/>
  <unicode hex="014A"/>
  <outline>
    <contour>
      <point x="405" y="15" type="line" name="hr00"/>
      <point x="405" y="-13" smooth="yes"/>
      <point x="383" y="-20" smooth="yes"/>
      <point x="357" y="-25" type="curve" smooth="yes"/>
      <point x="305" y="-35" type="line"/>
      <point x="305" y="-165" type="line"/>
      <point x="450" y="-165" type="line" smooth="yes"/>
      <point x="550" y="-165" smooth="yes"/>
      <point x="605" y="-108" smooth="yes"/>
      <point x="605" y="0" type="curve" smooth="yes"/>
      <point x="605" y="625" type="line"/>
      <point x="405" y="625" type="line"/>
      <point x="405" y="355" type="line"/>
      <point x="401" y="355" type="line"/>
      <point x="400" y="371" smooth="yes"/>
      <point x="398" y="393" smooth="yes"/>
      <point x="391" y="403" type="curve" smooth="yes"/>
      <point x="238" y="625" type="line"/>
      <point x="50" y="625" type="line"/>
      <point x="50" y="0" type="line"/>
      <point x="250" y="0" type="line"/>
      <point x="250" y="270" type="line"/>
      <point x="254" y="270" type="line"/>
      <point x="255" y="254" smooth="yes"/>
      <point x="257" y="232" smooth="yes"/>
      <point x="264" y="222" type="curve" smooth="yes"/>
    </contour>
  </outline>
</glyph>
<glyph name="OE" format="1">
  <advance width="856"/>
  <unicode hex="0152"/>
  <outline>
    <contour>
      <point x="821" y="0" type="line"/>
      <point x="821" y="160" type="line"/>
      <point x="596" y="160" type="line"/>
      <point x="596" y="236" type="line"/>
      <point x="776" y="236" type="line"/>
      <point x="776" y="381" type="line"/>
      <point x="596" y="381" type="line"/>
      <point x="596" y="465" type="line"/>
      <point x="791" y="465" type="line"/>
      <point x="816" y="625" type="line"/>
      <point x="441" y="625" type="line"/>
      <point x="406" y="635" smooth="yes"/>
      <point x="364" y="640" smooth="yes"/>
      <point x="315" y="640" type="curve" smooth="yes" name="hr01"/>
      <point x="83" y="640" smooth="yes"/>
      <point x="20" y="529" smooth="yes"/>
      <point x="20" y="312" type="curve" smooth="yes"/>
      <point x="20" y="96" smooth="yes"/>
      <point x="83" y="-15" smooth="yes"/>
      <point x="315" y="-15" type="curve" smooth="yes"/>
      <point x="364" y="-15"/>
      <point x="406" y="-10"/>
      <point x="441" y="0" type="curve" name="hr02"/>
    </contour>
    <contour>
      <point x="235" y="416" type="line" smooth="yes"/>
      <point x="235" y="465" smooth="yes"/>
      <point x="266" y="469" smooth="yes"/>
      <point x="312" y="469" type="curve" smooth="yes"/>
      <point x="396" y="469" type="line"/>
      <point x="396" y="202" type="line"/>
      <point x="393" y="159" smooth="yes"/>
      <point x="361" y="156" smooth="yes"/>
      <point x="318" y="156" type="curve" smooth="yes"/>
      <point x="235" y="156" type="line"/>
    </contour>
  </outline>
</glyph>
<glyph name="florin" format="1">
  <advance width="479"/>
  <unicode hex="0192"/>
  <outline>
    <contour>
      <point x="329" y="428" type="line" smooth="yes"/>
      <point x="331" y="473" smooth="yes"/>
      <point x="364" y="477" smooth="yes"/>
      <point x="402" y="477" type="curve" smooth="yes"/>
      <point x="449" y="477" type="line"/>
      <point x="479" y="622" type="line"/>
      <point x="427" y="634" smooth="yes"/>
      <point x="345" y="641" smooth="yes"/>
      <point x="307" y="641" type="curve" smooth="yes"/>
      <point x="188" y="641" smooth="yes"/>
      <point x="134" y="574" smooth="yes"/>
      <point x="129" y="443" type="curve" smooth="yes" name="hr01"/>
      <point x="126" y="369" type="line"/>
      <point x="45" y="369" type="line"/>
      <point x="45" y="262" type="line"/>
      <point x="121" y="262" type="line"/>
      <point x="111" y="15" type="line" smooth="yes"/>
      <point x="110" y="-13" smooth="yes"/>
      <point x="89" y="-20" smooth="yes"/>
      <point x="63" y="-25" type="curve" smooth="yes"/>
      <point x="11" y="-35" type="line"/>
      <point x="11" y="-165" type="line"/>
      <point x="156" y="-165" type="line" smooth="yes"/>
      <point x="256" y="-165" smooth="yes"/>
      <point x="306" y="-108" smooth="yes"/>
      <point x="311" y="0" type="curve" smooth="yes"/>
      <point x="322" y="262" type="line"/>
      <point x="429" y="262" type="line"/>
      <point x="439" y="369" type="line"/>
      <point x="326" y="369" type="line"/>
    </contour>
  </outline>
</glyph>
<glyph name="dotlessj" format="1">
  <advance width="300"/>
  <unicode hex="0237"/>
  <outline>
    <contour>
      <point x="-50" y="-165" type="line" name="hr00"/>
      <point x="95" y="-165" type="line" smooth="yes"/>
      <point x="195" y="-165" smooth="yes"/>
      <point x="250" y="-108" smooth="yes"/>
      <point x="250" y="0" type="curve" smooth="yes"/>
      <point x="250" y="500" type="line"/>
      <point x="50" y="475" type="line"/>
      <point x="50" y="15" type="line" smooth="yes"/>
      <point x="50" y="-13" smooth="yes"/>
      <point x="28" y="-20" smooth="yes"/>
      <point x="2" y="-25" type="curve" smooth="yes"/>
      <point x="-50" y="-35" type="line"/>
    </contour>
  </outline>
</glyph>
<glyph name="circumflex" format="1">
  <advance width="385"/>
  <unicode hex="02C6"/>
  <outline>
    <contour>
      <point x="168" y="740" type="line" name="hr00"/>
      <point x="161" y="740" smooth="yes"/>
      <point x="157" y="736" smooth="yes"/>
      <point x="152" y="731" type="curve" smooth="yes"/>
      <point x="39" y="586" type="line"/>
      <point x="99" y="537" type="line"/>
      <point x="192" y="600" type="line"/>
      <point x="285" y="537" type="line"/>
      <point x="345" y="586" type="line"/>
      <point x="232" y="731" type="line" smooth="yes"/>
      <point x="227" y="736"/>
      <point x="223" y="740"/>
      <point x="216" y="740" type="curve"/>
    </contour>
  </outline>
</glyph>
<glyph name="breve" format="1">
  <advance width="385"/>
  <unicode hex="02D8"/>
  <outline>
    <contour>
      <point x="137" y="704" type="curve" name="hr00"/>
      <point x="41" y="689" type="line"/>
      <point x="60" y="596" smooth="yes"/>
      <point x="125" y="550" smooth="yes"/>
      <point x="192" y="550" type="curve" smooth="yes"/>
      <point x="259" y="550"/>
      <point x="323" y="596"/>
      <point x="343" y="689" type="curve"/>
      <point x="247" y="704" type="line"/>
      <point x="238" y="675" smooth="yes"/>
      <point x="216" y="659" smooth="yes"/>
      <point x="192" y="659" type="curve" smooth="yes"/>
      <point x="168" y="659"/>
      <point x="146" y="675"/>
    </contour>
  </outline>
</glyph>
<glyph name="dotaccent" format="1">
  <advance width="265"/>
  <unicode hex="02D9"/>
  <outline>
    <contour>
      <point x="37" y="632" type="curve" smooth="yes" name="hr00"/>
      <point x="37" y="561" smooth="yes"/>
      <point x="55" y="537" smooth="yes"/>
      <point x="133" y="537" type="curve" smooth="yes"/>
      <point x="210" y="537" smooth="yes"/>
      <point x="228" y="561" smooth="yes"/>
      <point x="228" y="632" type="curve" smooth="yes"/>
      <point x="228" y="702" smooth="yes"/>
      <point x="210" y="729" smooth="yes"/>
      <point x="133" y="729" type="curve" smooth="yes"/>
      <point x="55" y="729" smooth="yes"/>
      <point x="37" y="702" smooth="yes"/>
    </contour>
  </outline>
</glyph>
<glyph name="ogonek" format="1">
  <advance width="500"/>
  <unicode hex="02DB"/>
  <outline>
    <contour>
      <point x="315" y="14" type="line" name="hr00"/>
      <point x="315" y="31" type="line"/>
      <point x="185" y="16" smooth="yes"/>
      <point x="142" y="-29" smooth="yes"/>
      <point x="142" y="-81" type="curve" smooth="yes"/>
      <point x="142" y="-125" smooth="yes"/>
      <point x="174" y="-165" smooth="yes"/>
      <point x="259" y="-165" type="curve" smooth="yes"/>
      <point x="285" y="-165"/>
      <point x="330" y="-157"/>
      <point x="358" y="-146" type="curve"/>
      <point x="339" y="-58" type="line"/>
      <point x="314" y="-58" type="line" smooth="yes"/>
      <point x="287" y="-58" smooth="yes"/>
      <point x="271" y="-54" smooth="yes"/>
      <point x="271" y="-26" type="curve" smooth="yes"/>
      <point x="271" y="-21" type="line" smooth="yes"/>
      <point x="271" y="3" smooth="yes"/>
      <point x="277" y="8" smooth="yes"/>
      <point x="304" y="12" type="curve" smooth="yes"/>
    </contour>
  </outline>
</glyph>
<glyph name="tilde" format="1">
  <advance width="458"/>
  <unicode hex="02DC"/>
  <outline>
    <contour>
      <point x="372" y="716" type="line" name="hr00"/>
      <point x="290" y="676" type="line"/>
      <point x="258" y="699" smooth="yes"/>
      <point x="236" y="721" smooth="yes"/>
      <point x="202" y="721" type="curve" smooth="yes"/>
      <point x="169" y="721"/>
      <point x="163" y="714"/>
      <point x="36" y="629" type="curve"/>
      <point x="86" y="548" type="line"/>
      <point x="168" y="588" type="line"/>
      <point x="200" y="565" smooth="yes"/>
      <point x="222" y="543" smooth="yes"/>
      <point x="256" y="543" type="curve" smooth="yes"/>
      <point x="289" y="543"/>
      <point x="295" y="550"/>
      <point x="422" y="635" type="curve"/>
    </contour>
  </outline>
</glyph>
<glyph name="pi" format="1">
  <advance width="657"/>
  <unicode hex="03C0"/>
  <outline>
    <contour>
      <point x="55" y="500" type="line"/>
      <point x="55" y="378" type="line"/>
      <point x="108" y="366" type="line"/>
      <point x="83" y="0" type="line"/>
      <point x="235" y="0" type="line"/>
      <point x="291" y="312" type="line" smooth="yes"/>
      <point x="296" y="341" smooth="yes"/>
      <point x="323" y="349" smooth="yes"/>
      <point x="345" y="350" type="curve" smooth="yes"/>
      <point x="352" y="350" type="line"/>
      <point x="352" y="94" type="line" smooth="yes"/>
      <point x="352" y="-6"/>
      <point x="462" y="-11"/>
      <point x="592" y="-11" type="curve" name="hr01"/>
      <point x="601" y="136" type="line"/>
      <point x="585" y="137"/>
      <point x="568" y="140"/>
      <point x="552" y="143" type="curve"/>
      <point x="552" y="350" type="line"/>
      <point x="626" y="350"/>
      <point x="630" y="432"/>
      <point x="630" y="529" type="curve"/>
      <point x="483" y="536" type="line"/>
      <point x="482" y="525"/>
      <point x="480" y="512"/>
      <point x="477" y="500" type="curve"/>
    </contour>
  </outline>
</glyph>
<glyph name="endash" format="1">
  <advance width="595"/>
  <unicode hex="2013"/>
  <outline>
    <contour>
      <point x="25" y="200" type="line" name="hr00"/>
      <point x="501" y="200" type="line" smooth="yes"/>
      <point x="541" y="200" smooth="yes"/>
      <point x="570" y="203" smooth="yes"/>
      <point x="570" y="242" type="curve" smooth="yes"/>
      <point x="570" y="350" type="line"/>
      <point x="94" y="350" type="line" smooth="yes"/>
      <point x="54" y="350"/>
      <point x="25" y="347"/>
      <point x="25" y="308" type="curve"/>
    </contour>
  </outline>
</glyph>
<glyph name="emdash" format="1">
  <advance width="854"/>
  <unicode hex="2014"/>
  <outline>
    <contour>
      <point x="25" y="200" type="line" name="hr00"/>
      <point x="760" y="200" type="line" smooth="yes"/>
      <point x="800" y="200" smooth="yes"/>
      <point x="829" y="203" smooth="yes"/>
      <point x="829" y="242" type="curve" smooth="yes"/>
      <point x="829" y="350" type="line"/>
      <point x="94" y="350" type="line" smooth="yes"/>
      <point x="54" y="350" smooth="yes"/>
      <point x="25" y="347" smooth="yes"/>
      <point x="25" y="308" type="curve" smooth="yes"/>
    </contour>
  </outline>
</glyph>
<glyph name="quoteleft" format="1">
  <advance width="275"/>
  <unicode hex="2018"/>
  <outline>
    <contour>
      <point x="234" y="420" type="curve" smooth="yes" name="hr00"/>
      <point x="234" y="465"/>
      <point x="221" y="488"/>
      <point x="174" y="496" type="curve"/>
      <point x="207" y="641" type="line"/>
      <point x="118" y="670" type="line"/>
      <point x="50" y="534" type="line" smooth="yes"/>
      <point x="36" y="506" smooth="yes"/>
      <point x="19" y="483" smooth="yes"/>
      <point x="17" y="432" type="curve" smooth="yes"/>
      <point x="17" y="420" type="line" smooth="yes"/>
      <point x="17" y="344" smooth="yes"/>
      <point x="37" y="313" smooth="yes"/>
      <point x="125" y="313" type="curve" smooth="yes"/>
      <point x="214" y="313" smooth="yes"/>
      <point x="234" y="344" smooth="yes"/>
    </contour>
  </outline>
</glyph>
<glyph name="quotesinglbase" format="1">
  <advance width="275"/>
  <unicode hex="201A"/>
  <outline>
    <contour>
      <point x="41" y="101" type="curve" smooth="yes" name="hr00"/>
      <point x="41" y="56"/>
      <point x="53" y="32"/>
      <point x="101" y="24" type="curve"/>
      <point x="68" y="-120" type="line"/>
      <point x="157" y="-149" type="line"/>
      <point x="225" y="-13" type="line" smooth="yes"/>
      <point x="239" y="15" smooth="yes"/>
      <point x="255" y="38" smooth="yes"/>
      <point x="258" y="89" type="curve" smooth="yes"/>
      <point x="258" y="92" type="line"/>
      <point x="258" y="101" type="line" smooth="yes"/>
      <point x="258" y="177" smooth="yes"/>
      <point x="238" y="208" smooth="yes"/>
      <point x="150" y="208" type="curve" smooth="yes"/>
      <point x="61" y="208" smooth="yes"/>
      <point x="41" y="177" smooth="yes"/>
    </contour>
  </outline>
</glyph>
<glyph name="quotedblright" format="1">
  <advance width="525"/>
  <unicode hex="201D"/>
  <outline>
    <contour>
      <point x="41" y="551" type="curve" smooth="yes" name="hr00"/>
      <point x="41" y="506"/>
      <point x="53" y="482"/>
      <point x="101" y="474" type="curve"/>
      <point x="68" y="330" type="line"/>
      <point x="157" y="301" type="line"/>
      <point x="225" y="437" type="line" smooth="yes"/>
      <point x="239" y="465" smooth="yes"/>
      <point x="255" y="488" smooth="yes"/>
      <point x="258" y="539" type="curve" smooth="yes"/>
      <point x="258" y="541" type="line"/>
      <point x="258" y="551" type="line" smooth="yes"/>
      <point x="258" y="627" smooth="yes"/>
      <point x="238" y="658" smooth="yes"/>
      <point x="150" y="658" type="curve" smooth="yes"/>
      <point x="61" y="658" smooth="yes"/>
      <point x="41" y="627" smooth="yes"/>
    </contour>
    <contour>
      <point x="291" y="551" type="curve" smooth="yes"/>
      <point x="291" y="506"/>
      <point x="303" y="482"/>
      <point x="351" y="474" type="curve"/>
      <point x="318" y="330" type="line"/>
      <point x="407" y="301" type="line"/>
      <point x="475" y="437" type="line" smooth="yes"/>
      <point x="489" y="465" smooth="yes"/>
      <point x="506" y="488" smooth="yes"/>
      <point x="508" y="541" type="curve" smooth="yes"/>
      <point x="508" y="551" type="line" smooth="yes"/>
      <point x="508" y="627" smooth="yes"/>
      <point x="488" y="658" smooth="yes"/>
      <point x="400" y="658" type="curve" smooth="yes"/>
      <point x="311" y="658" smooth="yes"/>
      <point x="291" y="627" smooth="yes"/>
    </contour>
  </outline>
</glyph>
<glyph name="dagger" format="1">
  <advance width="540"/>
  <unicode hex="2020"/>
  <outline>
    <contour>
      <point x="510" y="330" type="line" name="hr00"/>
      <point x="510" y="520" type="line"/>
      <point x="355" y="497" type="line"/>
      <point x="380" y="665" type="line"/>
      <point x="160" y="665" type="line"/>
      <point x="185" y="500" type="line"/>
      <point x="30" y="520" type="line"/>
      <point x="30" y="330" type="line"/>
      <point x="191" y="350" type="line"/>
      <point x="160" y="-50" type="line"/>
      <point x="380" y="-50" type="line"/>
      <point x="348" y="350" type="line"/>
    </contour>
  </outline>
</glyph>
<glyph name="daggerdbl" format="1">
  <advance width="540"/>
  <unicode hex="2021"/>
  <outline>
    <contour>
      <point x="510" y="330" type="line" name="hr00"/>
      <point x="510" y="520" type="line"/>
      <point x="364" y="499" type="line"/>
      <point x="380" y="665" type="line"/>
      <point x="160" y="665" type="line"/>
      <point x="175" y="499" type="line"/>
      <point x="30" y="520" type="line"/>
      <point x="30" y="330" type="line"/>
      <point x="189" y="350" type="line"/>
      <point x="193" y="307" type="line"/>
      <point x="189" y="265" type="line"/>
      <point x="30" y="285" type="line"/>
      <point x="30" y="95" type="line"/>
      <point x="175" y="116" type="line"/>
      <point x="160" y="-50" type="line"/>
      <point x="380" y="-50" type="line"/>
      <point x="364" y="116" type="line"/>
      <point x="510" y="95" type="line"/>
      <point x="510" y="285" type="line"/>
      <point x="351" y="264" type="line"/>
      <point x="347" y="307" type="line"/>
      <point x="351" y="350" type="line"/>
    </contour>
  </outline>
</glyph>
<glyph name="bullet" format="1">
  <advance width="342"/>
  <unicode hex="2022"/>
  <outline>
    <contour>
      <point x="30" y="249" type="curve" smooth="yes" name="hr00"/>
      <point x="30" y="150" smooth="yes"/>
      <point x="56" y="112" smooth="yes"/>
      <point x="172" y="112" type="curve" smooth="yes"/>
      <point x="286" y="112" smooth="yes"/>
      <point x="312" y="150" smooth="yes"/>
      <point x="312" y="249" type="curve" smooth="yes"/>
      <point x="312" y="347" smooth="yes"/>
      <point x="286" y="388" smooth="yes"/>
      <point x="172" y="388" type="curve" smooth="yes"/>
      <point x="56" y="388" smooth="yes"/>
      <point x="30" y="347" smooth="yes"/>
    </contour>
  </outline>
</glyph>
<glyph name="ellipsis" format="1">
  <advance width="877"/>
  <unicode hex="2026"/>
  <outline>
    <contour>
      <point x="30" y="99" type="curve" smooth="yes" name="hr00"/>
      <point x="30" y="23" smooth="yes"/>
      <point x="50" y="-6" smooth="yes"/>
      <point x="139" y="-6" type="curve" smooth="yes"/>
      <point x="227" y="-6" smooth="yes"/>
      <point x="247" y="23" smooth="yes"/>
      <point x="247" y="99" type="curve" smooth="yes"/>
      <point x="247" y="175" smooth="yes"/>
      <point x="227" y="206" smooth="yes"/>
      <point x="139" y="206" type="curve" smooth="yes"/>
      <point x="50" y="206" smooth="yes"/>
      <point x="30" y="175" smooth="yes"/>
    </contour>
    <contour>
      <point x="330" y="99" type="curve" smooth="yes"/>
      <point x="330" y="23" smooth="yes"/>
      <point x="350" y="-6" smooth="yes"/>
      <point x="439" y="-6" type="curve" smooth="yes"/>
      <point x="527" y="-6" smooth="yes"/>
      <point x="547" y="23" smooth="yes"/>
      <point x="547" y="99" type="curve" smooth="yes"/>
      <point x="547" y="175" smooth="yes"/>
      <point x="527" y="206" smooth="yes"/>
      <point x="439" y="206" type="curve" smooth="yes"/>
      <point x="350" y="206" smooth="yes"/>
      <point x="330" y="175" smooth="yes"/>
    </contour>
    <contour>
      <point x="630" y="99" type="curve" smooth="yes"/>
      <point x="630" y="23" smooth="yes"/>
      <point x="650" y="-6" smooth="yes"/>
      <point x="739" y="-6" type="curve" smooth="yes"/>
      <point x="827" y="-6" smooth="yes"/>
      <point x="847" y="23" smooth="yes"/>
      <point x="847" y="99" type="curve" smooth="yes"/>
      <point x="847" y="175" smooth="yes"/>
      <point x="827" y="206" smooth="yes"/>
      <point x="739" y="206" type="curve" smooth="yes"/>
      <point x="650" y="206" smooth="yes"/>
      <point x="630" y="175" smooth="yes"/>
    </contour>
  </outline>
</glyph>
<glyph name="perthousand" format="1">
  <advance width="1145"/>
  <unicode hex="2030"/>
  <outline>
    <contour>
      <point x="472" y="170" type="curve" smooth="yes"/>
      <point x="472" y="48" smooth="yes"/>
      <point x="524" y="-15" smooth="yes"/>
      <point x="657" y="-15" type="curve" smooth="yes"/>
      <point x="723" y="-15"/>
      <point x="769" y="0"/>
      <point x="798" y="31" type="curve"/>
      <point x="828" y="0" smooth="yes"/>
      <point x="874" y="-15" smooth="yes"/>
      <point x="940" y="-15" type="curve" smooth="yes"/>
      <point x="1073" y="-15" smooth="yes"/>
      <point x="1125" y="48" smooth="yes"/>
      <point x="1125" y="170" type="curve" smooth="yes"/>
      <point x="1125" y="292" smooth="yes"/>
      <point x="1073" y="355" smooth="yes"/>
      <point x="940" y="355" type="curve" smooth="yes"/>
      <point x="874" y="355"/>
      <point x="828" y="340"/>
      <point x="798" y="309" type="curve"/>
      <point x="769" y="340" smooth="yes"/>
      <point x="723" y="355" smooth="yes"/>
      <point x="657" y="355" type="curve" smooth="yes"/>
      <point x="524" y="355" smooth="yes"/>
      <point x="472" y="292" smooth="yes"/>
    </contour>
    <contour>
      <point x="20" y="455" type="curve" smooth="yes"/>
      <point x="20" y="333" smooth="yes"/>
      <point x="72" y="270" smooth="yes"/>
      <point x="205" y="270" type="curve" smooth="yes" name="hr01"/>
      <point x="338" y="270" smooth="yes"/>
      <point x="390" y="333" smooth="yes"/>
      <point x="390" y="455" type="curve" smooth="yes"/>
      <point x="390" y="577" smooth="yes"/>
      <point x="338" y="640" smooth="yes"/>
      <point x="205" y="640" type="curve" smooth="yes"/>
      <point x="72" y="640" smooth="yes"/>
      <point x="20" y="577" smooth="yes"/>
    </contour>
    <contour>
      <point x="659" y="625" type="line" name="hr02"/>
      <point x="594" y="625" type="line" smooth="yes"/>
      <point x="562" y="625" smooth="yes"/>
      <point x="558" y="623" smooth="yes"/>
      <point x="545" y="600" type="curve" smooth="yes"/>
      <point x="200" y="0" type="line"/>
      <point x="265" y="0" type="line" smooth="yes"/>
      <point x="297" y="0" smooth="yes"/>
      <point x="301" y="2" smooth="yes"/>
      <point x="314" y="25" type="curve" smooth="yes"/>
    </contour>
    <contour>
      <point x="630" y="209" type="line" smooth="yes"/>
      <point x="630" y="236" smooth="yes"/>
      <point x="634" y="238" smooth="yes"/>
      <point x="662" y="238" type="curve" smooth="yes"/>
      <point x="684" y="238" type="line"/>
      <point x="684" y="131" type="line" smooth="yes"/>
      <point x="684" y="104" smooth="yes"/>
      <point x="680" y="102" smooth="yes"/>
      <point x="652" y="102" type="curve" smooth="yes" name="hr03"/>
      <point x="630" y="102" type="line"/>
    </contour>
    <contour>
      <point x="913" y="209" type="line" smooth="yes"/>
      <point x="913" y="236" smooth="yes"/>
      <point x="917" y="238" smooth="yes"/>
      <point x="945" y="238" type="curve" smooth="yes"/>
      <point x="967" y="238" type="line"/>
      <point x="967" y="131" type="line" smooth="yes"/>
      <point x="967" y="104" smooth="yes"/>
      <point x="963" y="102" smooth="yes"/>
      <point x="935" y="102" type="curve" smooth="yes"/>
      <point x="913" y="102" type="line"/>
    </contour>
    <contour>
      <point x="178" y="494" type="line" smooth="yes"/>
      <point x="178" y="521" smooth="yes"/>
      <point x="182" y="523" smooth="yes"/>
      <point x="210" y="523" type="curve" smooth="yes"/>
      <point x="232" y="523" type="line"/>
      <point x="232" y="416" type="line" smooth="yes"/>
      <point x="232" y="389" smooth="yes"/>
      <point x="228" y="387" smooth="yes"/>
      <point x="200" y="387" type="curve" smooth="yes"/>
      <point x="178" y="387" type="line"/>
    </contour>
  </outline>
</glyph>
<glyph name="guilsinglleft" format="1">
  <advance width="325"/>
  <unicode hex="2039"/>
  <outline>
    <contour>
      <point x="25" y="300" type="line" name="hr00"/>
      <point x="25" y="200" type="line"/>
      <point x="219" y="25" type="line"/>
      <point x="300" y="76" type="line"/>
      <point x="200" y="250" type="line"/>
      <point x="300" y="424" type="line"/>
      <point x="219" y="475" type="line"/>
    </contour>
  </outline>
</glyph>
<glyph name="lira" format="1">
  <advance width="586"/>
  <unicode hex="20A4"/>
  <outline>
    <contour>
      <point x="324" y="428" type="line" name="hr00"/>
      <point x="328" y="473" smooth="yes"/>
      <point x="359" y="477" smooth="yes"/>
      <point x="397" y="477" type="curve" smooth="yes"/>
      <point x="495" y="477" type="line"/>
      <point x="525" y="622" type="line"/>
      <point x="480" y="632" smooth="yes"/>
      <point x="423" y="641" smooth="yes"/>
      <point x="338" y="641" type="curve" smooth="yes"/>
      <point x="214" y="641" smooth="yes"/>
      <point x="138" y="573" smooth="yes"/>
      <point x="124" y="443" type="curve" smooth="yes"/>
      <point x="90" y="135" type="line"/>
      <point x="40" y="100" type="line"/>
      <point x="40" y="0" type="line"/>
      <point x="546" y="0" type="line"/>
      <point x="521" y="160" type="line"/>
      <point x="299" y="160" type="line"/>
    </contour>
    <component  base="equal" xScale="0.9" yScale="0.5" xOffset="-30" yOffset="160"/>
  </outline>
</glyph>
<glyph name="Euro" format="1">
  <advance width="563"/>
  <unicode hex="20AC"/>
  <outline>
    <contour>
      <point x="439" y="206" type="line" name="hr00"/>
      <point x="446" y="288" type="line"/>
      <point x="22" y="288" type="line"/>
      <point x="15" y="206" type="line"/>
      <point x="64" y="206" type="line"/>
      <point x="80" y="46" smooth="yes"/>
      <point x="151" y="-15" smooth="yes"/>
      <point x="345" y="-15" type="curve" smooth="yes"/>
      <point x="415" y="-15"/>
      <point x="465" y="-8"/>
      <point x="512" y="11" type="curve"/>
      <point x="503" y="169" type="line"/>
      <point x="461" y="154" smooth="yes"/>
      <point x="408" y="145" smooth="yes"/>
      <point x="356" y="145" type="curve" smooth="yes"/>
      <point x="332" y="145"/>
      <point x="306" y="147"/>
      <point x="277" y="153" type="curve"/>
      <point x="279" y="206" type="line"/>
    </contour>
    <contour>
      <point x="453" y="338" type="line"/>
      <point x="460" y="420" type="line"/>
      <point x="293" y="420" type="line"/>
      <point x="293" y="426" type="line" smooth="yes"/>
      <point x="295" y="471" smooth="yes"/>
      <point x="327" y="475" smooth="yes"/>
      <point x="360" y="475" type="curve" smooth="yes"/>
      <point x="495" y="475" type="line"/>
      <point x="523" y="621" type="line"/>
      <point x="475" y="633" smooth="yes"/>
      <point x="411" y="640" smooth="yes"/>
      <point x="375" y="640" type="curve" smooth="yes"/>
      <point x="183" y="640"/>
      <point x="103" y="578"/>
      <point x="78" y="420" type="curve"/>
      <point x="36" y="420" type="line"/>
      <point x="29" y="338" type="line"/>
    </contour>
  </outline>
</glyph>
<glyph name="trademark" format="1">
  <advance width="807"/>
  <unicode hex="2122"/>
  <outline>
    <contour>
      <point x="461" y="343" type="line" name="hr00"/>
      <point x="468" y="491" type="line"/>
      <point x="474" y="491" type="line"/>
      <point x="510" y="343" type="line"/>
      <point x="605" y="343" type="line"/>
      <point x="640" y="491" type="line"/>
      <point x="646" y="491" type="line"/>
      <point x="654" y="343" type="line"/>
      <point x="792" y="343" type="line"/>
      <point x="767" y="732" type="line"/>
      <point x="592" y="732" type="line"/>
      <point x="561" y="584" type="line"/>
      <point x="554" y="584" type="line"/>
      <point x="523" y="732" type="line"/>
      <point x="348" y="732" type="line"/>
      <point x="323" y="343" type="line"/>
    </contour>
    <contour>
      <point x="326" y="617" type="line"/>
      <point x="326" y="732" type="line"/>
      <point x="15" y="732" type="line"/>
      <point x="15" y="617" type="line"/>
      <point x="100" y="617" type="line"/>
      <point x="100" y="343" type="line"/>
      <point x="240" y="343" type="line"/>
      <point x="240" y="617" type="line"/>
    </contour>
  </outline>
</glyph>
<glyph name="Omega" format="1">
  <advance width="703"/>
  <unicode hex="2126"/>
  <outline>
    <contour>
      <point x="303" y="250" type="line" name="hr00"/>
      <point x="259" y="250" smooth="yes"/>
      <point x="229" y="254" smooth="yes"/>
      <point x="229" y="300" type="curve" smooth="yes"/>
      <point x="229" y="430" type="line" smooth="yes"/>
      <point x="229" y="476" smooth="yes"/>
      <point x="259" y="480" smooth="yes"/>
      <point x="303" y="480" type="curve" smooth="yes"/>
      <point x="474" y="480" type="line"/>
      <point x="474" y="293" type="line"/>
      <point x="471" y="253"/>
      <point x="442" y="250"/>
      <point x="400" y="250" type="curve"/>
      <point x="415" y="0" type="line"/>
      <point x="688" y="0" type="line"/>
      <point x="688" y="143" type="line"/>
      <point x="538" y="152" type="line"/>
      <point x="532" y="164" type="line"/>
      <point x="643" y="203" smooth="yes"/>
      <point x="677" y="275" smooth="yes"/>
      <point x="677" y="375" type="curve" smooth="yes"/>
      <point x="677" y="521" smooth="yes"/>
      <point x="619" y="640" smooth="yes"/>
      <point x="353" y="640" type="curve" smooth="yes"/>
      <point x="88" y="640" smooth="yes"/>
      <point x="29" y="521" smooth="yes"/>
      <point x="29" y="375" type="curve" smooth="yes"/>
      <point x="29" y="276"/>
      <point x="61" y="205"/>
      <point x="171" y="166" type="curve"/>
      <point x="165" y="152" type="line"/>
      <point x="15" y="143" type="line"/>
      <point x="15" y="0" type="line"/>
      <point x="288" y="0" type="line"/>
    </contour>
  </outline>
</glyph>
<glyph name="Delta" format="1">
  <advance width="703"/>
  <unicode hex="2206"/>
  <outline>
    <contour>
      <point x="250" y="625" type="line" name="hr00"/>
      <point x="30" y="52" type="line"/>
      <point x="49" y="0" type="line"/>
      <point x="654" y="0" type="line"/>
      <point x="673" y="52" type="line"/>
      <point x="453" y="625" type="line"/>
    </contour>
    <contour>
      <point x="219" y="150" type="line"/>
      <point x="317" y="445" type="line"/>
      <point x="327" y="445" type="line"/>
      <point x="411" y="187" type="line" smooth="yes"/>
      <point x="413" y="182" smooth="yes"/>
      <point x="413" y="177" smooth="yes"/>
      <point x="413" y="173" type="curve" smooth="yes"/>
      <point x="413" y="159" smooth="yes"/>
      <point x="404" y="150" smooth="yes"/>
      <point x="384" y="150" type="curve" smooth="yes"/>
    </contour>
  </outline>
</glyph>
<glyph name="product" format="1">
  <advance width="800"/>
  <unicode hex="220F"/>
  <outline>
    <contour>
      <point x="53" y="625" type="line" name="hr00"/>
      <point x="53" y="503" type="line"/>
      <point x="140" y="484" type="line"/>
      <point x="123" y="-150" type="line"/>
      <point x="300" y="-150" type="line"/>
      <point x="349" y="425" type="line" smooth="yes"/>
      <point x="352" y="466"/>
      <point x="374" y="474"/>
      <point x="410" y="475" type="curve"/>
      <point x="474" y="475" type="line"/>
      <point x="474" y="-150" type="line"/>
      <point x="674" y="-150" type="line"/>
      <point x="674" y="475" type="line"/>
      <point x="748" y="475"/>
      <point x="752" y="557"/>
      <point x="752" y="654" type="curve"/>
      <point x="605" y="661" type="line"/>
      <point x="604" y="650"/>
      <point x="602" y="637"/>
      <point x="599" y="625" type="curve"/>
    </contour>
  </outline>
</glyph>
<glyph name="summation" format="1">
  <advance width="654"/>
  <unicode hex="2211"/>
  <outline>
    <contour>
      <point x="598" y="0" type="line" name="hr00"/>
      <point x="294" y="0" type="line"/>
      <point x="286" y="14" type="line"/>
      <point x="453" y="247" type="line"/>
      <point x="358" y="425" type="line"/>
      <point x="354" y="434" smooth="yes"/>
      <point x="352" y="441" smooth="yes"/>
      <point x="352" y="448" type="curve" smooth="yes"/>
      <point x="352" y="466" smooth="yes"/>
      <point x="368" y="471" smooth="yes"/>
      <point x="396" y="475" type="curve" smooth="yes"/>
      <point x="580" y="500" type="line"/>
      <point x="598" y="625" type="line"/>
      <point x="91" y="625" type="line"/>
      <point x="72" y="573" type="line"/>
      <point x="254" y="211" type="line"/>
      <point x="43" y="-98" type="line"/>
      <point x="62" y="-150" type="line"/>
      <point x="576" y="-150" type="line"/>
    </contour>
  </outline>
</glyph>
<glyph name="radical" format="1">
  <advance width="544"/>
  <unicode hex="221A"/>
  <outline>
    <contour>
      <point x="514" y="552" type="line" name="hr00"/>
      <point x="594" y="552" type="line"/>
      <point x="607" y="650" type="line"/>
      <point x="410" y="650" type="line"/>
      <point x="308" y="180" type="line"/>
      <point x="298" y="180" type="line"/>
      <point x="207" y="500" type="line"/>
      <point x="0" y="500" type="line"/>
      <point x="162" y="0" type="line"/>
      <point x="375" y="0" type="line"/>
    </contour>
  </outline>
</glyph>
<glyph name="infinity" format="1">
  <advance width="905"/>
  <unicode hex="221E"/>
  <outline>
    <contour>
      <point x="603" y="-15" type="curve" name="hr00"/>
      <point x="784" y="-15" smooth="yes"/>
      <point x="855" y="75" smooth="yes"/>
      <point x="855" y="250" type="curve" smooth="yes"/>
      <point x="855" y="425" smooth="yes"/>
      <point x="786" y="515" smooth="yes"/>
      <point x="610" y="515" type="curve" smooth="yes"/>
      <point x="531" y="515"/>
      <point x="474" y="488"/>
      <point x="420" y="416" type="curve"/>
      <point x="411" y="421" type="line"/>
      <point x="434" y="483" type="line"/>
      <point x="434" y="493" smooth="yes"/>
      <point x="380" y="515" smooth="yes"/>
      <point x="295" y="515" type="curve" smooth="yes"/>
      <point x="119" y="515" smooth="yes"/>
      <point x="50" y="425" smooth="yes"/>
      <point x="50" y="250" type="curve" smooth="yes"/>
      <point x="50" y="75" smooth="yes"/>
      <point x="121" y="-15" smooth="yes"/>
      <point x="302" y="-15" type="curve" smooth="yes"/>
      <point x="378" y="-15"/>
      <point x="432" y="12"/>
      <point x="483" y="84" type="curve"/>
      <point x="492" y="79" type="line"/>
      <point x="470" y="17" type="line"/>
      <point x="470" y="7" smooth="yes"/>
      <point x="522" y="-15" smooth="yes"/>
    </contour>
    <contour>
      <point x="662" y="193" type="line" smooth="yes"/>
      <point x="662" y="154" smooth="yes"/>
      <point x="633" y="151" smooth="yes"/>
      <point x="593" y="151" type="curve" smooth="yes"/>
      <point x="520" y="151" type="line"/>
      <point x="576" y="307" type="line" smooth="yes"/>
      <point x="590" y="344" smooth="yes"/>
      <point x="622" y="349" smooth="yes"/>
      <point x="662" y="349" type="curve" smooth="yes"/>
    </contour>
    <contour>
      <point x="243" y="307" type="line" smooth="yes"/>
      <point x="243" y="346" smooth="yes"/>
      <point x="272" y="349" smooth="yes"/>
      <point x="312" y="349" type="curve" smooth="yes"/>
      <point x="385" y="349" type="line"/>
      <point x="329" y="193" type="line" smooth="yes"/>
      <point x="315" y="156"/>
      <point x="283" y="151"/>
      <point x="243" y="151" type="curve"/>
    </contour>
  </outline>
</glyph>
<glyph name="integral" format="1">
  <advance width="373"/>
  <unicode hex="222B"/>
  <outline>
    <contour>
      <point x="281" y="429" type="line" smooth="yes" name="hr00"/>
      <point x="283" y="475"/>
      <point x="289" y="493"/>
      <point x="385" y="515" type="curve"/>
      <point x="379" y="632" type="line"/>
      <point x="287" y="632" smooth="yes"/>
      <point x="114" y="619" smooth="yes"/>
      <point x="109" y="515" type="curve" smooth="yes"/>
      <point x="84" y="45" type="line" smooth="yes"/>
      <point x="82" y="-1"/>
      <point x="76" y="-19"/>
      <point x="-25" y="-41" type="curve"/>
      <point x="-19" y="-158" type="line"/>
      <point x="70" y="-158" smooth="yes"/>
      <point x="249" y="-145" smooth="yes"/>
      <point x="255" y="-41" type="curve" smooth="yes"/>
    </contour>
  </outline>
</glyph>
<glyph name="approxequal" format="1">
  <advance width="600"/>
  <unicode hex="2248"/>
  <outline>
    <contour>
      <point x="72" y="121" type="line"/>
      <point x="104" y="93" smooth="yes"/>
      <point x="136" y="83" smooth="yes"/>
      <point x="168" y="83" type="curve" smooth="yes"/>
      <point x="256" y="83" smooth="yes"/>
      <point x="343" y="158" smooth="yes"/>
      <point x="431" y="158" type="curve" smooth="yes" name="hr01"/>
      <point x="463" y="158"/>
      <point x="495" y="148"/>
      <point x="527" y="121" type="curve"/>
      <point x="527" y="265" type="line"/>
      <point x="495" y="292" smooth="yes"/>
      <point x="463" y="302" smooth="yes"/>
      <point x="431" y="302" type="curve" smooth="yes"/>
      <point x="343" y="302" smooth="yes"/>
      <point x="256" y="227" smooth="yes"/>
      <point x="168" y="227" type="curve" smooth="yes" name="hr02"/>
      <point x="136" y="227"/>
      <point x="104" y="237"/>
      <point x="72" y="265" type="curve"/>
    </contour>
    <contour>
      <point x="72" y="359" type="line"/>
      <point x="104" y="331" smooth="yes"/>
      <point x="136" y="321" smooth="yes"/>
      <point x="168" y="321" type="curve" smooth="yes"/>
      <point x="256" y="321" smooth="yes"/>
      <point x="343" y="396" smooth="yes"/>
      <point x="431" y="396" type="curve" smooth="yes" name="hr03"/>
      <point x="463" y="396"/>
      <point x="495" y="386"/>
      <point x="527" y="359" type="curve"/>
      <point x="527" y="503" type="line"/>
      <point x="495" y="530" smooth="yes"/>
      <point x="463" y="540" smooth="yes"/>
      <point x="431" y="540" type="curve" smooth="yes"/>
      <point x="343" y="540" smooth="yes"/>
      <point x="256" y="465" smooth="yes"/>
      <point x="168" y="465" type="curve" smooth="yes" name="hr04"/>
      <point x="136" y="465"/>
      <point x="104" y="475"/>
      <point x="72" y="503" type="curve"/>
    </contour>
  </outline>
</glyph>
<glyph name="lessequal" format="1">
  <advance width="600"/>
  <unicode hex="2264"/>
  <outline>
    <contour>
      <point x="432" y="587" type="line" name="hr00"/>
      <point x="107" y="442" type="line"/>
      <point x="107" y="282" type="line"/>
      <point x="432" y="137" type="line"/>
      <point x="499" y="271" type="line"/>
      <point x="274" y="359" type="line"/>
      <point x="274" y="364" type="line"/>
      <point x="499" y="453" type="line"/>
    </contour>
    <contour>
      <point x="107" y="-15" type="line"/>
      <point x="493" y="-15" type="line"/>
      <point x="493" y="105" type="line"/>
      <point x="107" y="105" type="line"/>
    </contour>
  </outline>
</glyph>
<glyph name="greaterequal" format="1">
  <advance width="600"/>
  <unicode hex="2265"/>
  <outline>
    <contour>
      <point x="168" y="587" type="line" name="hr00"/>
      <point x="493" y="442" type="line"/>
      <point x="493" y="282" type="line"/>
      <point x="168" y="137" type="line"/>
      <point x="101" y="271" type="line"/>
      <point x="326" y="359" type="line"/>
      <point x="326" y="364" type="line"/>
      <point x="101" y="453" type="line"/>
    </contour>
    <contour>
      <point x="493" y="-15" type="line"/>
      <point x="107" y="-15" type="line"/>
      <point x="107" y="105" type="line"/>
      <point x="493" y="105" type="line"/>
    </contour>
  </outline>
</glyph>
<glyph name="lozenge" format="1">
  <advance width="700"/>
  <unicode hex="25CA"/>
  <outline>
    <contour>
      <point x="452" y="-150" type="line" name="hr00"/>
      <point x="649" y="237" type="line"/>
      <point x="452" y="625" type="line"/>
      <point x="249" y="625" type="line"/>
      <point x="51" y="237" type="line"/>
      <point x="249" y="-150" type="line"/>
    </contour>
    <contour>
      <point x="242" y="238" type="line"/>
      <point x="343" y="431" type="line"/>
      <point x="358" y="431" type="line"/>
      <point x="457" y="236" type="line"/>
      <point x="358" y="40" type="line"/>
      <point x="343" y="40" type="line"/>
    </contour>
  </outline>
</glyph>
<glyph name="f_f" format="1">
  <advance width="688"/>
  <unicode hex="FB00"/>
  <outline>
    <contour>
      <point x="280" y="542" type="line"/>
      <point x="353" y="542" type="line"/>
      <point x="384" y="650" type="line"/>
      <point x="339" y="668" smooth="yes"/>
      <point x="302" y="675" smooth="yes"/>
      <point x="263" y="675" type="curve" smooth="yes"/>
      <point x="154" y="675" smooth="yes"/>
      <point x="96" y="636" smooth="yes"/>
      <point x="87" y="560" type="curve" smooth="yes"/>
      <point x="80" y="500" type="line"/>
      <point x="30" y="500" type="line" name="hr01"/>
      <point x="30" y="370" type="line"/>
      <point x="80" y="370" type="line" name="hr02"/>
      <point x="80" y="0" type="line"/>
      <point x="280" y="0" type="line"/>
      <point x="280" y="370" type="line"/>
      <point x="410" y="370" type="line"/>
      <point x="410" y="0" type="line"/>
      <point x="610" y="0" type="line"/>
      <point x="610" y="370" type="line"/>
      <point x="670" y="370" type="line"/>
      <point x="670" y="500" type="line" name="hr03"/>
      <point x="610" y="500" type="line"/>
      <point x="610" y="542" type="line"/>
      <point x="692" y="534" type="line"/>
      <point x="703" y="665" type="line"/>
      <point x="662" y="671" smooth="yes"/>
      <point x="625" y="675" smooth="yes"/>
      <point x="593" y="675" type="curve" smooth="yes"/>
      <point x="496" y="675" smooth="yes"/>
      <point x="459" y="633" smooth="yes"/>
      <point x="437" y="560" type="curve" smooth="yes"/>
      <point x="410" y="470" type="line" name="hr04"/>
      <point x="280" y="470" type="line"/>
    </contour>
  </outline>
</glyph>
